%TF.GenerationSoftware,KiCad,Pcbnew,8.0.8*%
%TF.CreationDate,2025-02-02T19:51:23+01:00*%
%TF.ProjectId,PCB,5043422e-6b69-4636-9164-5f7063625858,rev?*%
%TF.SameCoordinates,Original*%
%TF.FileFunction,Soldermask,Top*%
%TF.FilePolarity,Negative*%
%FSLAX46Y46*%
G04 Gerber Fmt 4.6, Leading zero omitted, Abs format (unit mm)*
G04 Created by KiCad (PCBNEW 8.0.8) date 2025-02-02 19:51:23*
%MOMM*%
%LPD*%
G01*
G04 APERTURE LIST*
G04 Aperture macros list*
%AMRoundRect*
0 Rectangle with rounded corners*
0 $1 Rounding radius*
0 $2 $3 $4 $5 $6 $7 $8 $9 X,Y pos of 4 corners*
0 Add a 4 corners polygon primitive as box body*
4,1,4,$2,$3,$4,$5,$6,$7,$8,$9,$2,$3,0*
0 Add four circle primitives for the rounded corners*
1,1,$1+$1,$2,$3*
1,1,$1+$1,$4,$5*
1,1,$1+$1,$6,$7*
1,1,$1+$1,$8,$9*
0 Add four rect primitives between the rounded corners*
20,1,$1+$1,$2,$3,$4,$5,0*
20,1,$1+$1,$4,$5,$6,$7,0*
20,1,$1+$1,$6,$7,$8,$9,0*
20,1,$1+$1,$8,$9,$2,$3,0*%
G04 Aperture macros list end*
%ADD10RoundRect,0.250000X0.412500X0.650000X-0.412500X0.650000X-0.412500X-0.650000X0.412500X-0.650000X0*%
%ADD11O,1.700000X1.700000*%
%ADD12R,1.700000X1.700000*%
%ADD13RoundRect,0.250000X0.450000X-0.350000X0.450000X0.350000X-0.450000X0.350000X-0.450000X-0.350000X0*%
%ADD14RoundRect,0.250000X-0.450000X0.325000X-0.450000X-0.325000X0.450000X-0.325000X0.450000X0.325000X0*%
%ADD15RoundRect,0.250000X-0.400000X-0.625000X0.400000X-0.625000X0.400000X0.625000X-0.400000X0.625000X0*%
%ADD16RoundRect,0.250000X-0.450000X0.350000X-0.450000X-0.350000X0.450000X-0.350000X0.450000X0.350000X0*%
%ADD17RoundRect,0.250000X-0.350000X-0.450000X0.350000X-0.450000X0.350000X0.450000X-0.350000X0.450000X0*%
%ADD18R,2.000000X2.000000*%
%ADD19C,2.000000*%
%ADD20C,3.200000*%
%ADD21RoundRect,0.102000X-0.754000X-0.754000X0.754000X-0.754000X0.754000X0.754000X-0.754000X0.754000X0*%
%ADD22C,1.712000*%
%ADD23RoundRect,0.250000X-0.412500X-0.650000X0.412500X-0.650000X0.412500X0.650000X-0.412500X0.650000X0*%
%ADD24RoundRect,0.375000X-0.625000X-0.375000X0.625000X-0.375000X0.625000X0.375000X-0.625000X0.375000X0*%
%ADD25RoundRect,0.500000X-0.500000X-1.400000X0.500000X-1.400000X0.500000X1.400000X-0.500000X1.400000X0*%
%ADD26R,0.625000X0.250000*%
%ADD27R,0.700000X0.450000*%
%ADD28R,0.575000X0.450000*%
%ADD29C,0.650000*%
%ADD30R,1.450000X0.600000*%
%ADD31R,1.450000X0.300000*%
%ADD32O,2.100000X1.000000*%
%ADD33O,1.600000X1.000000*%
%ADD34RoundRect,0.200000X0.800000X-0.200000X0.800000X0.200000X-0.800000X0.200000X-0.800000X-0.200000X0*%
%ADD35R,1.500000X0.900000*%
%ADD36R,0.900000X1.500000*%
%ADD37C,0.600000*%
%ADD38R,3.900000X3.900000*%
%ADD39RoundRect,0.250000X0.350000X0.450000X-0.350000X0.450000X-0.350000X-0.450000X0.350000X-0.450000X0*%
G04 APERTURE END LIST*
D10*
%TO.C,C7*%
X167600000Y-101400000D03*
X164475000Y-101400000D03*
%TD*%
D11*
%TO.C,S7*%
X120790000Y-103500000D03*
X118250000Y-103500000D03*
D12*
X115710000Y-103500000D03*
%TD*%
D11*
%TO.C,S6*%
X120790000Y-106250000D03*
X118250000Y-106250000D03*
D12*
X115710000Y-106250000D03*
%TD*%
D11*
%TO.C,S5*%
X120805000Y-109000000D03*
X118265000Y-109000000D03*
D12*
X115725000Y-109000000D03*
%TD*%
%TO.C,S4*%
X115670000Y-111750000D03*
D11*
X118210000Y-111750000D03*
X120750000Y-111750000D03*
%TD*%
D12*
%TO.C,S3*%
X115670000Y-114500000D03*
D11*
X118210000Y-114500000D03*
X120750000Y-114500000D03*
%TD*%
D12*
%TO.C,S2*%
X115670000Y-117250000D03*
D11*
X118210000Y-117250000D03*
X120750000Y-117250000D03*
%TD*%
D12*
%TO.C,S1*%
X115670000Y-120000000D03*
D11*
X118210000Y-120000000D03*
X120750000Y-120000000D03*
%TD*%
D13*
%TO.C,R5*%
X157000000Y-123600000D03*
X157000000Y-121600000D03*
%TD*%
%TO.C,R4*%
X159200000Y-123600000D03*
X159200000Y-121600000D03*
%TD*%
D14*
%TO.C,D2*%
X156500000Y-125450000D03*
X156500000Y-127500000D03*
%TD*%
%TO.C,D1*%
X159000000Y-125450000D03*
X159000000Y-127500000D03*
%TD*%
D11*
%TO.C,UART0*%
X121500000Y-125750000D03*
X118960000Y-125750000D03*
X116420000Y-125750000D03*
D12*
X113880000Y-125750000D03*
%TD*%
D15*
%TO.C,R1*%
X161050000Y-130800000D03*
X164150000Y-130800000D03*
%TD*%
D16*
%TO.C,C10*%
X156600000Y-129500000D03*
X156600000Y-131500000D03*
%TD*%
%TO.C,C9*%
X158800000Y-129500000D03*
X158800000Y-131500000D03*
%TD*%
%TO.C,C2*%
X154400000Y-129500000D03*
X154400000Y-131500000D03*
%TD*%
%TO.C,C1*%
X123000000Y-129000000D03*
X123000000Y-131000000D03*
%TD*%
D17*
%TO.C,C4*%
X159600000Y-111800000D03*
X161600000Y-111800000D03*
%TD*%
D11*
%TO.C,TOF*%
X136880000Y-85500000D03*
X139420000Y-85500000D03*
X141960000Y-85500000D03*
D12*
X144500000Y-85500000D03*
%TD*%
D18*
%TO.C,BZ1*%
X153710000Y-110780000D03*
D19*
X153710000Y-103180000D03*
%TD*%
D12*
%TO.C,JP1*%
X124460000Y-92600000D03*
D11*
X127000000Y-92600000D03*
%TD*%
D12*
%TO.C,J3*%
X158080000Y-97980000D03*
D11*
X155540000Y-97980000D03*
X153000000Y-97980000D03*
X150460000Y-97980000D03*
%TD*%
D20*
%TO.C,H3*%
X113200000Y-130000000D03*
%TD*%
D12*
%TO.C,JP5*%
X156560000Y-92500000D03*
D11*
X159100000Y-92500000D03*
%TD*%
D21*
%TO.C,U5*%
X150160000Y-74900000D03*
D22*
X150160000Y-77440000D03*
X150160000Y-79980000D03*
X150160000Y-82520000D03*
X150160000Y-85060000D03*
X150160000Y-87600000D03*
X150160000Y-90140000D03*
X150160000Y-92680000D03*
X162860000Y-74900000D03*
X162860000Y-77440000D03*
X162860000Y-79980000D03*
X162860000Y-82520000D03*
X162860000Y-85060000D03*
X162860000Y-87600000D03*
X162860000Y-90140000D03*
X162860000Y-92680000D03*
%TD*%
D12*
%TO.C,J6*%
X164800000Y-126080000D03*
D11*
X162260000Y-126080000D03*
%TD*%
D13*
%TO.C,R2*%
X159200000Y-115800000D03*
X159200000Y-113800000D03*
%TD*%
D15*
%TO.C,JP8*%
X133950000Y-93500000D03*
X137050000Y-93500000D03*
%TD*%
D12*
%TO.C,J12*%
X162860000Y-97200000D03*
D11*
X165400000Y-97200000D03*
X167940000Y-97200000D03*
%TD*%
D18*
%TO.C,C3*%
X121382323Y-75000000D03*
D19*
X126382323Y-75000000D03*
%TD*%
D12*
%TO.C,J8*%
X125580000Y-98230000D03*
D11*
X123040000Y-98230000D03*
X120500000Y-98230000D03*
X117960000Y-98230000D03*
%TD*%
D12*
%TO.C,J10*%
X167400000Y-81400000D03*
D11*
X167400000Y-83940000D03*
X167400000Y-86480000D03*
X167400000Y-89020000D03*
X167400000Y-91560000D03*
%TD*%
D23*
%TO.C,C5*%
X165037500Y-111400000D03*
X168162500Y-111400000D03*
%TD*%
D12*
%TO.C,J11*%
X113000000Y-81280000D03*
D11*
X113000000Y-83820000D03*
X113000000Y-86360000D03*
X113000000Y-88900000D03*
X113000000Y-91440000D03*
%TD*%
D24*
%TO.C,U4*%
X162010000Y-104030000D03*
X162010000Y-106330000D03*
D25*
X168310000Y-106330000D03*
D24*
X162010000Y-108630000D03*
%TD*%
D20*
%TO.C,H4*%
X167200000Y-130000000D03*
%TD*%
D15*
%TO.C,JP7*%
X133950000Y-90500000D03*
X137050000Y-90500000D03*
%TD*%
D26*
%TO.C,U3*%
X159810000Y-119330000D03*
X159810000Y-118830000D03*
D27*
X159772500Y-118330000D03*
D26*
X159810000Y-117830000D03*
X159810000Y-117330000D03*
X159035000Y-117330000D03*
X159035000Y-117830000D03*
D28*
X159010000Y-118330000D03*
D26*
X159035000Y-118830000D03*
X159035000Y-119330000D03*
%TD*%
D29*
%TO.C,J1*%
X163410000Y-121470000D03*
X163410000Y-115690000D03*
D30*
X161965000Y-121830000D03*
X161965000Y-121030000D03*
D31*
X161965000Y-119830000D03*
X161965000Y-118830000D03*
X161965000Y-118330000D03*
X161965000Y-117330000D03*
D30*
X161965000Y-116130000D03*
X161965000Y-115330000D03*
X161965000Y-115330000D03*
X161965000Y-116130000D03*
D31*
X161965000Y-116830000D03*
X161965000Y-117830000D03*
X161965000Y-119330000D03*
X161965000Y-120330000D03*
D30*
X161965000Y-121030000D03*
X161965000Y-121830000D03*
D32*
X162880000Y-122900000D03*
D33*
X167060000Y-122900000D03*
D32*
X162880000Y-114260000D03*
D33*
X167060000Y-114260000D03*
%TD*%
D18*
%TO.C,C8*%
X154032323Y-74900000D03*
D19*
X159032323Y-74900000D03*
%TD*%
D34*
%TO.C,SW1*%
X126750000Y-131950000D03*
X126750000Y-127750000D03*
%TD*%
D12*
%TO.C,JP6*%
X156560000Y-89960000D03*
D11*
X159100000Y-89960000D03*
%TD*%
D20*
%TO.C,H1*%
X113200000Y-76000000D03*
%TD*%
D34*
%TO.C,SW2*%
X151400000Y-132000000D03*
X151400000Y-127800000D03*
%TD*%
D35*
%TO.C,U6*%
X148260000Y-131300000D03*
X148260000Y-130030000D03*
X148260000Y-128760000D03*
X148260000Y-127490000D03*
X148260000Y-126220000D03*
X148260000Y-124950000D03*
X148260000Y-123680000D03*
X148260000Y-122410000D03*
X148260000Y-121140000D03*
X148260000Y-119870000D03*
X148260000Y-118600000D03*
X148260000Y-117330000D03*
X148260000Y-116060000D03*
X148260000Y-114790000D03*
D36*
X146495000Y-113540000D03*
X145225000Y-113540000D03*
X143955000Y-113540000D03*
X142685000Y-113540000D03*
X141415000Y-113540000D03*
X140145000Y-113540000D03*
X138875000Y-113540000D03*
X137605000Y-113540000D03*
X136335000Y-113540000D03*
X135065000Y-113540000D03*
X133795000Y-113540000D03*
X132525000Y-113540000D03*
D35*
X130760000Y-114790000D03*
X130760000Y-116060000D03*
X130760000Y-117330000D03*
X130760000Y-118600000D03*
X130760000Y-119870000D03*
X130760000Y-121140000D03*
X130760000Y-122410000D03*
X130760000Y-123680000D03*
X130760000Y-124950000D03*
X130760000Y-126220000D03*
X130760000Y-127490000D03*
X130760000Y-128760000D03*
X130760000Y-130030000D03*
X130760000Y-131300000D03*
D37*
X142410000Y-124280000D03*
X142410000Y-122880000D03*
X141710000Y-124980000D03*
X141710000Y-123580000D03*
X141710000Y-122180000D03*
X141010000Y-124280000D03*
D38*
X141010000Y-123580000D03*
D37*
X141010000Y-122880000D03*
X140310000Y-124980000D03*
X140310000Y-123580000D03*
X140310000Y-122180000D03*
X139610000Y-124280000D03*
X139610000Y-122880000D03*
%TD*%
D20*
%TO.C,H2*%
X167200000Y-76000000D03*
%TD*%
D12*
%TO.C,JP2*%
X124460000Y-90060000D03*
D11*
X127000000Y-90060000D03*
%TD*%
D21*
%TO.C,U1*%
X117510000Y-74900000D03*
D22*
X117510000Y-77440000D03*
X117510000Y-79980000D03*
X117510000Y-82520000D03*
X117510000Y-85060000D03*
X117510000Y-87600000D03*
X117510000Y-90140000D03*
X117510000Y-92680000D03*
X130210000Y-74900000D03*
X130210000Y-77440000D03*
X130210000Y-79980000D03*
X130210000Y-82520000D03*
X130210000Y-85060000D03*
X130210000Y-87600000D03*
X130210000Y-90140000D03*
X130210000Y-92680000D03*
%TD*%
D12*
%TO.C,J5*%
X152940000Y-118400000D03*
D11*
X152940000Y-115860000D03*
%TD*%
D12*
%TO.C,J7*%
X155710000Y-118400000D03*
D11*
X155710000Y-115860000D03*
%TD*%
D39*
%TO.C,R3*%
X154500000Y-124000000D03*
X152500000Y-124000000D03*
%TD*%
D12*
%TO.C,SCREEN*%
X144500000Y-78000000D03*
D11*
X141960000Y-78000000D03*
X139420000Y-78000000D03*
X136880000Y-78000000D03*
%TD*%
M02*
