%TF.GenerationSoftware,KiCad,Pcbnew,8.0.3*%
%TF.CreationDate,2024-09-17T15:24:25+02:00*%
%TF.ProjectId,PCB,5043422e-6b69-4636-9164-5f7063625858,rev?*%
%TF.SameCoordinates,Original*%
%TF.FileFunction,Copper,L1,Top*%
%TF.FilePolarity,Positive*%
%FSLAX46Y46*%
G04 Gerber Fmt 4.6, Leading zero omitted, Abs format (unit mm)*
G04 Created by KiCad (PCBNEW 8.0.3) date 2024-09-17 15:24:25*
%MOMM*%
%LPD*%
G01*
G04 APERTURE LIST*
G04 Aperture macros list*
%AMRoundRect*
0 Rectangle with rounded corners*
0 $1 Rounding radius*
0 $2 $3 $4 $5 $6 $7 $8 $9 X,Y pos of 4 corners*
0 Add a 4 corners polygon primitive as box body*
4,1,4,$2,$3,$4,$5,$6,$7,$8,$9,$2,$3,0*
0 Add four circle primitives for the rounded corners*
1,1,$1+$1,$2,$3*
1,1,$1+$1,$4,$5*
1,1,$1+$1,$6,$7*
1,1,$1+$1,$8,$9*
0 Add four rect primitives between the rounded corners*
20,1,$1+$1,$2,$3,$4,$5,0*
20,1,$1+$1,$4,$5,$6,$7,0*
20,1,$1+$1,$6,$7,$8,$9,0*
20,1,$1+$1,$8,$9,$2,$3,0*%
G04 Aperture macros list end*
%TA.AperFunction,ComponentPad*%
%ADD10R,2.000000X2.000000*%
%TD*%
%TA.AperFunction,ComponentPad*%
%ADD11C,2.000000*%
%TD*%
%TA.AperFunction,ComponentPad*%
%ADD12R,1.700000X1.700000*%
%TD*%
%TA.AperFunction,ComponentPad*%
%ADD13O,1.700000X1.700000*%
%TD*%
%TA.AperFunction,SMDPad,CuDef*%
%ADD14RoundRect,0.075000X-0.125000X-0.075000X0.125000X-0.075000X0.125000X0.075000X-0.125000X0.075000X0*%
%TD*%
%TA.AperFunction,ComponentPad*%
%ADD15R,1.508000X1.508000*%
%TD*%
%TA.AperFunction,ComponentPad*%
%ADD16C,1.508000*%
%TD*%
%TA.AperFunction,SMDPad,CuDef*%
%ADD17RoundRect,0.075000X0.125000X0.075000X-0.125000X0.075000X-0.125000X-0.075000X0.125000X-0.075000X0*%
%TD*%
%TA.AperFunction,SMDPad,CuDef*%
%ADD18RoundRect,0.250000X-0.400000X-0.625000X0.400000X-0.625000X0.400000X0.625000X-0.400000X0.625000X0*%
%TD*%
%TA.AperFunction,SMDPad,CuDef*%
%ADD19RoundRect,0.075000X-0.075000X0.125000X-0.075000X-0.125000X0.075000X-0.125000X0.075000X0.125000X0*%
%TD*%
%TA.AperFunction,SMDPad,CuDef*%
%ADD20RoundRect,0.200000X0.200000X0.275000X-0.200000X0.275000X-0.200000X-0.275000X0.200000X-0.275000X0*%
%TD*%
%TA.AperFunction,SMDPad,CuDef*%
%ADD21RoundRect,0.375000X-0.625000X-0.375000X0.625000X-0.375000X0.625000X0.375000X-0.625000X0.375000X0*%
%TD*%
%TA.AperFunction,SMDPad,CuDef*%
%ADD22RoundRect,0.500000X-0.500000X-1.400000X0.500000X-1.400000X0.500000X1.400000X-0.500000X1.400000X0*%
%TD*%
%TA.AperFunction,SMDPad,CuDef*%
%ADD23RoundRect,0.075000X0.075000X-0.125000X0.075000X0.125000X-0.075000X0.125000X-0.075000X-0.125000X0*%
%TD*%
%TA.AperFunction,SMDPad,CuDef*%
%ADD24R,0.625000X0.250000*%
%TD*%
%TA.AperFunction,SMDPad,CuDef*%
%ADD25R,0.700000X0.450000*%
%TD*%
%TA.AperFunction,SMDPad,CuDef*%
%ADD26R,0.575000X0.450000*%
%TD*%
%TA.AperFunction,SMDPad,CuDef*%
%ADD27R,1.450000X0.600000*%
%TD*%
%TA.AperFunction,SMDPad,CuDef*%
%ADD28R,1.450000X0.300000*%
%TD*%
%TA.AperFunction,ComponentPad*%
%ADD29O,2.100000X1.000000*%
%TD*%
%TA.AperFunction,ComponentPad*%
%ADD30O,1.600000X1.000000*%
%TD*%
%TA.AperFunction,SMDPad,CuDef*%
%ADD31RoundRect,0.200000X0.800000X-0.200000X0.800000X0.200000X-0.800000X0.200000X-0.800000X-0.200000X0*%
%TD*%
%TA.AperFunction,SMDPad,CuDef*%
%ADD32RoundRect,0.218750X-0.256250X0.218750X-0.256250X-0.218750X0.256250X-0.218750X0.256250X0.218750X0*%
%TD*%
%TA.AperFunction,SMDPad,CuDef*%
%ADD33R,1.500000X0.900000*%
%TD*%
%TA.AperFunction,SMDPad,CuDef*%
%ADD34R,0.900000X1.500000*%
%TD*%
%TA.AperFunction,HeatsinkPad*%
%ADD35C,0.600000*%
%TD*%
%TA.AperFunction,SMDPad,CuDef*%
%ADD36R,3.900000X3.900000*%
%TD*%
%TA.AperFunction,ViaPad*%
%ADD37C,0.600000*%
%TD*%
%TA.AperFunction,Conductor*%
%ADD38C,0.200000*%
%TD*%
G04 APERTURE END LIST*
D10*
%TO.P,BZ1,1,+*%
%TO.N,BUZZER*%
X153710000Y-110780000D03*
D11*
%TO.P,BZ1,2,-*%
%TO.N,GND*%
X153710000Y-103180000D03*
%TD*%
D12*
%TO.P,UART1,1,Pin_1*%
%TO.N,GND*%
X124600000Y-121260000D03*
D13*
%TO.P,UART1,2,Pin_2*%
%TO.N,RX1*%
X122060000Y-121260000D03*
%TO.P,UART1,3,Pin_3*%
%TO.N,TX1*%
X119520000Y-121260000D03*
%TO.P,UART1,4,Pin_4*%
%TO.N,VCC_5V*%
X116980000Y-121260000D03*
%TD*%
D12*
%TO.P,JP1,1,A*%
%TO.N,VCC_5V*%
X123225000Y-92500000D03*
D13*
%TO.P,JP1,2,B*%
%TO.N,Net-(JP1-B)*%
X125765000Y-92500000D03*
%TD*%
D12*
%TO.P,J3,1,Pin_1*%
%TO.N,MOTORC1*%
X158080000Y-97980000D03*
D13*
%TO.P,J3,2,Pin_2*%
%TO.N,MOTORC2*%
X155540000Y-97980000D03*
%TO.P,J3,3,Pin_3*%
%TO.N,MOTORC3*%
X153000000Y-97980000D03*
%TO.P,J3,4,Pin_4*%
%TO.N,MOTORC4*%
X150460000Y-97980000D03*
%TD*%
D12*
%TO.P,J4,1,Pin_1*%
%TO.N,GPIO36*%
X137160000Y-105410000D03*
D13*
%TO.P,J4,2,Pin_2*%
%TO.N,GPIO37*%
X139700000Y-105410000D03*
%TO.P,J4,3,Pin_3*%
%TO.N,GPIO38*%
X142240000Y-105410000D03*
%TO.P,J4,4,Pin_4*%
%TO.N,GPIO47*%
X144780000Y-105410000D03*
%TD*%
D14*
%TO.P,R5,1*%
%TO.N,Net-(D2-K)*%
X156725000Y-123250000D03*
%TO.P,R5,2*%
%TO.N,GND*%
X157225000Y-123250000D03*
%TD*%
D12*
%TO.P,JP5,1,A*%
%TO.N,VCC_5V*%
X155725000Y-92500000D03*
D13*
%TO.P,JP5,2,B*%
%TO.N,Net-(JP5-B)*%
X158265000Y-92500000D03*
%TD*%
D15*
%TO.P,U5,1,GND*%
%TO.N,GND*%
X150160000Y-74900000D03*
D16*
%TO.P,U5,2,VIO*%
%TO.N,VCC_5V*%
X150160000Y-77440000D03*
%TO.P,U5,3,M1B*%
%TO.N,MOTORC1*%
X150160000Y-79980000D03*
%TO.P,U5,4,M1A*%
%TO.N,MOTORC2*%
X150160000Y-82520000D03*
%TO.P,U5,5,M2A*%
%TO.N,MOTORC3*%
X150160000Y-85060000D03*
%TO.P,U5,6,M2B*%
%TO.N,MOTORC4*%
X150160000Y-87600000D03*
%TO.P,U5,7,GND*%
%TO.N,GND*%
X150160000Y-90140000D03*
%TO.P,U5,8,VM*%
%TO.N,VCC_5V*%
X150160000Y-92680000D03*
%TO.P,U5,9,DIR*%
%TO.N,DIR3*%
X162860000Y-74900000D03*
%TO.P,U5,10,STEP*%
%TO.N,STEP3*%
X162860000Y-77440000D03*
%TO.P,U5,11,PDN*%
%TO.N,unconnected-(U5-PDN-Pad11)*%
X162860000Y-79980000D03*
%TO.P,U5,12,UART*%
%TO.N,unconnected-(U5-UART-Pad12)*%
X162860000Y-82520000D03*
%TO.P,U5,13,SPRD*%
%TO.N,unconnected-(U5-SPRD-Pad13)*%
X162860000Y-85060000D03*
%TO.P,U5,14,MS2*%
%TO.N,Net-(JP6-B)*%
X162860000Y-87600000D03*
%TO.P,U5,15,MS1*%
%TO.N,Net-(JP5-B)*%
X162860000Y-90140000D03*
%TO.P,U5,16,~{EN}*%
%TO.N,GND*%
X162860000Y-92680000D03*
%TD*%
D10*
%TO.P,C6,1*%
%TO.N,VCC_5V*%
X137732323Y-75000000D03*
D11*
%TO.P,C6,2*%
%TO.N,GND*%
X142732323Y-75000000D03*
%TD*%
D12*
%TO.P,J6,1,Pin_1*%
%TO.N,VCC_5V*%
X162985000Y-126080000D03*
D13*
%TO.P,J6,2,Pin_2*%
%TO.N,VCC_5Vin*%
X160445000Y-126080000D03*
%TD*%
D12*
%TO.P,TOF2,1,Pin_1*%
%TO.N,XSHUT2*%
X127000000Y-106680000D03*
D13*
%TO.P,TOF2,2,Pin_2*%
%TO.N,SDA*%
X124460000Y-106680000D03*
%TO.P,TOF2,3,Pin_3*%
%TO.N,SCL*%
X121920000Y-106680000D03*
%TO.P,TOF2,4,Pin_4*%
%TO.N,GND*%
X119380000Y-106680000D03*
%TO.P,TOF2,5,Pin_5*%
%TO.N,VCC_5V*%
X116840000Y-106680000D03*
%TD*%
D17*
%TO.P,R2,1*%
%TO.N,Net-(J1-CC2)*%
X160610000Y-116280000D03*
%TO.P,R2,2*%
%TO.N,GND*%
X160110000Y-116280000D03*
%TD*%
D18*
%TO.P,JP8,1,A*%
%TO.N,VCC_5V*%
X111650000Y-96400000D03*
%TO.P,JP8,2,B*%
%TO.N,SDA*%
X114750000Y-96400000D03*
%TD*%
D19*
%TO.P,C10,1*%
%TO.N,3V3*%
X150019000Y-131390000D03*
%TO.P,C10,2*%
%TO.N,GND*%
X150019000Y-131890000D03*
%TD*%
D12*
%TO.P,JP3,1,A*%
%TO.N,VCC_5V*%
X138725000Y-92000000D03*
D13*
%TO.P,JP3,2,B*%
%TO.N,Net-(JP3-B)*%
X141265000Y-92000000D03*
%TD*%
D19*
%TO.P,C9,1*%
%TO.N,3V3*%
X151035000Y-131390000D03*
%TO.P,C9,2*%
%TO.N,GND*%
X151035000Y-131890000D03*
%TD*%
D12*
%TO.P,J12,1,Pin_1*%
%TO.N,3V3*%
X162860000Y-97200000D03*
D13*
%TO.P,J12,2,Pin_2*%
X165400000Y-97200000D03*
%TO.P,J12,3,Pin_3*%
X167940000Y-97200000D03*
%TD*%
D14*
%TO.P,R4,1*%
%TO.N,Net-(D1-K)*%
X158860000Y-123480000D03*
%TO.P,R4,2*%
%TO.N,GND*%
X159360000Y-123480000D03*
%TD*%
D10*
%TO.P,C3,1*%
%TO.N,VCC_5V*%
X121382323Y-75000000D03*
D11*
%TO.P,C3,2*%
%TO.N,GND*%
X126382323Y-75000000D03*
%TD*%
D12*
%TO.P,J8,1,Pin_1*%
%TO.N,MOTORA1*%
X125580000Y-98230000D03*
D13*
%TO.P,J8,2,Pin_2*%
%TO.N,MOTORA2*%
X123040000Y-98230000D03*
%TO.P,J8,3,Pin_3*%
%TO.N,MOTORA3*%
X120500000Y-98230000D03*
%TO.P,J8,4,Pin_4*%
%TO.N,MOTORA4*%
X117960000Y-98230000D03*
%TD*%
D12*
%TO.P,J10,1,Pin_1*%
%TO.N,VCC_5V*%
X167400000Y-81400000D03*
D13*
%TO.P,J10,2,Pin_2*%
X167400000Y-83940000D03*
%TO.P,J10,3,Pin_3*%
X167400000Y-86480000D03*
%TO.P,J10,4,Pin_4*%
X167400000Y-89020000D03*
%TO.P,J10,5,Pin_5*%
X167400000Y-91560000D03*
%TD*%
D12*
%TO.P,TOF1,1,Pin_1*%
%TO.N,XSHUT1*%
X127000000Y-104140000D03*
D13*
%TO.P,TOF1,2,Pin_2*%
%TO.N,SDA*%
X124460000Y-104140000D03*
%TO.P,TOF1,3,Pin_3*%
%TO.N,SCL*%
X121920000Y-104140000D03*
%TO.P,TOF1,4,Pin_4*%
%TO.N,GND*%
X119380000Y-104140000D03*
%TO.P,TOF1,5,Pin_5*%
%TO.N,VCC_5V*%
X116840000Y-104140000D03*
%TD*%
D20*
%TO.P,C5,1*%
%TO.N,VCC_5V*%
X165985000Y-110880000D03*
%TO.P,C5,2*%
%TO.N,GND*%
X164335000Y-110880000D03*
%TD*%
D12*
%TO.P,J11,1,Pin_1*%
%TO.N,GND*%
X113000000Y-81280000D03*
D13*
%TO.P,J11,2,Pin_2*%
X113000000Y-83820000D03*
%TO.P,J11,3,Pin_3*%
X113000000Y-86360000D03*
%TO.P,J11,4,Pin_4*%
X113000000Y-88900000D03*
%TO.P,J11,5,Pin_5*%
X113000000Y-91440000D03*
%TD*%
D19*
%TO.P,C2,1*%
%TO.N,ESP32_EN*%
X156369000Y-129362000D03*
%TO.P,C2,2*%
%TO.N,GND*%
X156369000Y-129862000D03*
%TD*%
D12*
%TO.P,TOF3,1,Pin_1*%
%TO.N,XSHUT3*%
X127000000Y-109220000D03*
D13*
%TO.P,TOF3,2,Pin_2*%
%TO.N,SDA*%
X124460000Y-109220000D03*
%TO.P,TOF3,3,Pin_3*%
%TO.N,SCL*%
X121920000Y-109220000D03*
%TO.P,TOF3,4,Pin_4*%
%TO.N,GND*%
X119380000Y-109220000D03*
%TO.P,TOF3,5,Pin_5*%
%TO.N,VCC_5V*%
X116840000Y-109220000D03*
%TD*%
D21*
%TO.P,U4,1,GND*%
%TO.N,GND*%
X162010000Y-104030000D03*
%TO.P,U4,2,VO*%
%TO.N,3V3*%
X162010000Y-106330000D03*
D22*
X168310000Y-106330000D03*
D21*
%TO.P,U4,3,VI*%
%TO.N,VCC_5V*%
X162010000Y-108630000D03*
%TD*%
D23*
%TO.P,C1,1*%
%TO.N,GPIO0*%
X129060000Y-129866000D03*
%TO.P,C1,2*%
%TO.N,GND*%
X129060000Y-129366000D03*
%TD*%
D12*
%TO.P,SCREEN,1,Pin_1*%
%TO.N,SDA*%
X127000000Y-114300000D03*
D13*
%TO.P,SCREEN,2,Pin_2*%
%TO.N,SCL*%
X124460000Y-114300000D03*
%TO.P,SCREEN,3,Pin_3*%
%TO.N,VCC_5V*%
X121920000Y-114300000D03*
%TO.P,SCREEN,4,Pin_4*%
%TO.N,GND*%
X119380000Y-114300000D03*
%TD*%
D15*
%TO.P,U2,1,GND*%
%TO.N,GND*%
X133835000Y-74900000D03*
D16*
%TO.P,U2,2,VIO*%
%TO.N,VCC_5V*%
X133835000Y-77440000D03*
%TO.P,U2,3,M1B*%
%TO.N,MOTORB1*%
X133835000Y-79980000D03*
%TO.P,U2,4,M1A*%
%TO.N,MOTORB2*%
X133835000Y-82520000D03*
%TO.P,U2,5,M2A*%
%TO.N,MOTORB3*%
X133835000Y-85060000D03*
%TO.P,U2,6,M2B*%
%TO.N,MOTORB4*%
X133835000Y-87600000D03*
%TO.P,U2,7,GND*%
%TO.N,GND*%
X133835000Y-90140000D03*
%TO.P,U2,8,VM*%
%TO.N,VCC_5V*%
X133835000Y-92680000D03*
%TO.P,U2,9,DIR*%
%TO.N,DIR2*%
X146535000Y-74900000D03*
%TO.P,U2,10,STEP*%
%TO.N,STEP2*%
X146535000Y-77440000D03*
%TO.P,U2,11,PDN*%
%TO.N,unconnected-(U2-PDN-Pad11)*%
X146535000Y-79980000D03*
%TO.P,U2,12,UART*%
%TO.N,unconnected-(U2-UART-Pad12)*%
X146535000Y-82520000D03*
%TO.P,U2,13,SPRD*%
%TO.N,unconnected-(U2-SPRD-Pad13)*%
X146535000Y-85060000D03*
%TO.P,U2,14,MS2*%
%TO.N,Net-(JP4-B)*%
X146535000Y-87600000D03*
%TO.P,U2,15,MS1*%
%TO.N,Net-(JP3-B)*%
X146535000Y-90140000D03*
%TO.P,U2,16,~{EN}*%
%TO.N,GND*%
X146535000Y-92680000D03*
%TD*%
D12*
%TO.P,JP4,1,A*%
%TO.N,VCC_5V*%
X138725000Y-89460000D03*
D13*
%TO.P,JP4,2,B*%
%TO.N,Net-(JP4-B)*%
X141265000Y-89460000D03*
%TD*%
D18*
%TO.P,JP7,1,A*%
%TO.N,VCC_5V*%
X111650000Y-99000000D03*
%TO.P,JP7,2,B*%
%TO.N,SCL*%
X114750000Y-99000000D03*
%TD*%
D24*
%TO.P,U3,1*%
%TO.N,USB_N*%
X159810000Y-119330000D03*
%TO.P,U3,2*%
%TO.N,USB_P*%
X159810000Y-118830000D03*
D25*
%TO.P,U3,3,VSS*%
%TO.N,GND*%
X159772500Y-118330000D03*
D24*
%TO.P,U3,4*%
%TO.N,VCC_5V*%
X159810000Y-117830000D03*
%TO.P,U3,5*%
%TO.N,unconnected-(U3-Pad5)*%
X159810000Y-117330000D03*
%TO.P,U3,6,NC*%
%TO.N,unconnected-(U3-NC-Pad6)*%
X159035000Y-117330000D03*
%TO.P,U3,7,NC*%
%TO.N,VCC_5V*%
X159035000Y-117830000D03*
D26*
%TO.P,U3,8,VSS*%
%TO.N,GND*%
X159010000Y-118330000D03*
D24*
%TO.P,U3,9,NC*%
%TO.N,USB_P*%
X159035000Y-118830000D03*
%TO.P,U3,10,NC*%
%TO.N,USB_N*%
X159035000Y-119330000D03*
%TD*%
D27*
%TO.P,J1,A1,GND*%
%TO.N,GND*%
X161965000Y-121830000D03*
%TO.P,J1,A4,VBUS*%
%TO.N,VCC_5Vin*%
X161965000Y-121030000D03*
D28*
%TO.P,J1,A5,CC1*%
%TO.N,Net-(J1-CC1)*%
X161965000Y-119830000D03*
%TO.P,J1,A6,D+*%
%TO.N,USB_P*%
X161965000Y-118830000D03*
%TO.P,J1,A7,D-*%
%TO.N,USB_N*%
X161965000Y-118330000D03*
%TO.P,J1,A8,SBU1*%
%TO.N,unconnected-(J1-SBU1-PadA8)*%
X161965000Y-117330000D03*
D27*
%TO.P,J1,A9,VBUS*%
%TO.N,VCC_5Vin*%
X161965000Y-116130000D03*
%TO.P,J1,A12,GND*%
%TO.N,GND*%
X161965000Y-115330000D03*
%TO.P,J1,B1,GND*%
X161965000Y-115330000D03*
%TO.P,J1,B4,VBUS*%
%TO.N,VCC_5Vin*%
X161965000Y-116130000D03*
D28*
%TO.P,J1,B5,CC2*%
%TO.N,Net-(J1-CC2)*%
X161965000Y-116830000D03*
%TO.P,J1,B6,D+*%
%TO.N,USB_P*%
X161965000Y-117830000D03*
%TO.P,J1,B7,D-*%
%TO.N,USB_N*%
X161965000Y-119330000D03*
%TO.P,J1,B8,SBU2*%
%TO.N,unconnected-(J1-SBU2-PadB8)*%
X161965000Y-120330000D03*
D27*
%TO.P,J1,B9,VBUS*%
%TO.N,VCC_5Vin*%
X161965000Y-121030000D03*
%TO.P,J1,B12,GND*%
%TO.N,GND*%
X161965000Y-121830000D03*
D29*
%TO.P,J1,S1,SHIELD*%
X162880000Y-122900000D03*
D30*
X167060000Y-122900000D03*
D29*
X162880000Y-114260000D03*
D30*
X167060000Y-114260000D03*
%TD*%
D10*
%TO.P,C8,1*%
%TO.N,VCC_5V*%
X154032323Y-74900000D03*
D11*
%TO.P,C8,2*%
%TO.N,GND*%
X159032323Y-74900000D03*
%TD*%
D12*
%TO.P,UART0,1,Pin_1*%
%TO.N,GND*%
X124600000Y-123800000D03*
D13*
%TO.P,UART0,2,Pin_2*%
%TO.N,RX0*%
X122060000Y-123800000D03*
%TO.P,UART0,3,Pin_3*%
%TO.N,TX0*%
X119520000Y-123800000D03*
%TO.P,UART0,4,Pin_4*%
%TO.N,VCC_5V*%
X116980000Y-123800000D03*
%TD*%
D14*
%TO.P,C4,1*%
%TO.N,VCC_5V*%
X165623000Y-112467000D03*
%TO.P,C4,2*%
%TO.N,GND*%
X166123000Y-112467000D03*
%TD*%
D12*
%TO.P,J9,1,Pin_1*%
%TO.N,GPIO21*%
X137160000Y-107950000D03*
D13*
%TO.P,J9,2,Pin_2*%
%TO.N,GPIO35*%
X139700000Y-107950000D03*
%TO.P,J9,3,Pin_3*%
%TO.N,GPIO48*%
X142240000Y-107950000D03*
%TD*%
D31*
%TO.P,SW1,1,1*%
%TO.N,GND*%
X126460000Y-132080000D03*
%TO.P,SW1,2,2*%
%TO.N,GPIO0*%
X126460000Y-127880000D03*
%TD*%
D23*
%TO.P,R1,1*%
%TO.N,3V3*%
X149710000Y-129955000D03*
%TO.P,R1,2*%
%TO.N,ESP32_EN*%
X149710000Y-129455000D03*
%TD*%
D20*
%TO.P,C7,1*%
%TO.N,3V3*%
X165835000Y-101680000D03*
%TO.P,C7,2*%
%TO.N,GND*%
X164185000Y-101680000D03*
%TD*%
D32*
%TO.P,D1,1,K*%
%TO.N,Net-(D1-K)*%
X157660000Y-125492500D03*
%TO.P,D1,2,A*%
%TO.N,3V3*%
X157660000Y-127067500D03*
%TD*%
D12*
%TO.P,JP6,1,A*%
%TO.N,VCC_5V*%
X155725000Y-89960000D03*
D13*
%TO.P,JP6,2,B*%
%TO.N,Net-(JP6-B)*%
X158265000Y-89960000D03*
%TD*%
D31*
%TO.P,SW2,1,1*%
%TO.N,GND*%
X153310000Y-132080000D03*
%TO.P,SW2,2,2*%
%TO.N,ESP32_EN*%
X153310000Y-127880000D03*
%TD*%
D33*
%TO.P,U6,1,GND*%
%TO.N,GND*%
X148260000Y-131300000D03*
%TO.P,U6,2,3V3*%
%TO.N,3V3*%
X148260000Y-130030000D03*
%TO.P,U6,3,EN*%
%TO.N,ESP32_EN*%
X148260000Y-128760000D03*
%TO.P,U6,4,IO4*%
%TO.N,LED*%
X148260000Y-127490000D03*
%TO.P,U6,5,IO5*%
%TO.N,BUZZER*%
X148260000Y-126220000D03*
%TO.P,U6,6,IO6*%
%TO.N,LAUNCHPULL*%
X148260000Y-124950000D03*
%TO.P,U6,7,IO7*%
%TO.N,TEAMBTN*%
X148260000Y-123680000D03*
%TO.P,U6,8,IO15*%
%TO.N,DIR3*%
X148260000Y-122410000D03*
%TO.P,U6,9,IO16*%
%TO.N,DIR2*%
X148260000Y-121140000D03*
%TO.P,U6,10,IO17*%
%TO.N,TX1*%
X148260000Y-119870000D03*
%TO.P,U6,11,IO18*%
%TO.N,RX1*%
X148260000Y-118600000D03*
%TO.P,U6,12,IO8*%
%TO.N,XSHUT1*%
X148260000Y-117330000D03*
%TO.P,U6,13,IO19*%
%TO.N,USB_N*%
X148260000Y-116060000D03*
%TO.P,U6,14,IO20*%
%TO.N,USB_P*%
X148260000Y-114790000D03*
D34*
%TO.P,U6,15,IO3*%
%TO.N,unconnected-(U6-IO3-Pad15)*%
X146495000Y-113540000D03*
%TO.P,U6,16,IO46*%
%TO.N,unconnected-(U6-IO46-Pad16)*%
X145225000Y-113540000D03*
%TO.P,U6,17,IO9*%
%TO.N,XSHUT2*%
X143955000Y-113540000D03*
%TO.P,U6,18,IO10*%
%TO.N,XSHUT3*%
X142685000Y-113540000D03*
%TO.P,U6,19,IO11*%
%TO.N,STEP3*%
X141415000Y-113540000D03*
%TO.P,U6,20,IO12*%
%TO.N,STEP2*%
X140145000Y-113540000D03*
%TO.P,U6,21,IO13*%
%TO.N,STEP1*%
X138875000Y-113540000D03*
%TO.P,U6,22,IO14*%
%TO.N,DIR1*%
X137605000Y-113540000D03*
%TO.P,U6,23,IO21*%
%TO.N,GPIO21*%
X136335000Y-113540000D03*
%TO.P,U6,24,IO47*%
%TO.N,GPIO47*%
X135065000Y-113540000D03*
%TO.P,U6,25,IO48*%
%TO.N,GPIO48*%
X133795000Y-113540000D03*
%TO.P,U6,26,IO45*%
%TO.N,unconnected-(U6-IO45-Pad26)*%
X132525000Y-113540000D03*
D33*
%TO.P,U6,27,IO0*%
%TO.N,GPIO0*%
X130760000Y-114790000D03*
%TO.P,U6,28,IO35*%
%TO.N,GPIO35*%
X130760000Y-116060000D03*
%TO.P,U6,29,IO36*%
%TO.N,GPIO36*%
X130760000Y-117330000D03*
%TO.P,U6,30,IO37*%
%TO.N,GPIO37*%
X130760000Y-118600000D03*
%TO.P,U6,31,IO38*%
%TO.N,GPIO38*%
X130760000Y-119870000D03*
%TO.P,U6,32,IO39*%
%TO.N,unconnected-(U6-IO39-Pad32)*%
X130760000Y-121140000D03*
%TO.P,U6,33,IO40*%
%TO.N,unconnected-(U6-IO40-Pad33)*%
X130760000Y-122410000D03*
%TO.P,U6,34,IO41*%
%TO.N,unconnected-(U6-IO41-Pad34)*%
X130760000Y-123680000D03*
%TO.P,U6,35,IO42*%
%TO.N,unconnected-(U6-IO42-Pad35)*%
X130760000Y-124950000D03*
%TO.P,U6,36,RXD0*%
%TO.N,RX0*%
X130760000Y-126220000D03*
%TO.P,U6,37,TXD0*%
%TO.N,TX0*%
X130760000Y-127490000D03*
%TO.P,U6,38,IO2*%
%TO.N,SCL*%
X130760000Y-128760000D03*
%TO.P,U6,39,IO1*%
%TO.N,SDA*%
X130760000Y-130030000D03*
%TO.P,U6,40,GND*%
%TO.N,GND*%
X130760000Y-131300000D03*
D35*
%TO.P,U6,41,GND*%
X142410000Y-124280000D03*
X142410000Y-122880000D03*
X141710000Y-124980000D03*
X141710000Y-123580000D03*
X141710000Y-122180000D03*
X141010000Y-124280000D03*
D36*
X141010000Y-123580000D03*
D35*
X141010000Y-122880000D03*
X140310000Y-124980000D03*
X140310000Y-123580000D03*
X140310000Y-122180000D03*
X139610000Y-124280000D03*
X139610000Y-122880000D03*
%TD*%
D12*
%TO.P,ADD,1,Pin_1*%
%TO.N,SDA*%
X127000000Y-116840000D03*
D13*
%TO.P,ADD,2,Pin_2*%
%TO.N,SCL*%
X124460000Y-116840000D03*
%TO.P,ADD,3,Pin_3*%
%TO.N,VCC_5V*%
X121920000Y-116840000D03*
%TO.P,ADD,4,Pin_4*%
%TO.N,GND*%
X119380000Y-116840000D03*
%TD*%
D12*
%TO.P,JP2,1,A*%
%TO.N,VCC_5V*%
X123225000Y-89960000D03*
D13*
%TO.P,JP2,2,B*%
%TO.N,Net-(JP2-B)*%
X125765000Y-89960000D03*
%TD*%
D15*
%TO.P,U1,1,GND*%
%TO.N,GND*%
X117510000Y-74900000D03*
D16*
%TO.P,U1,2,VIO*%
%TO.N,VCC_5V*%
X117510000Y-77440000D03*
%TO.P,U1,3,M1B*%
%TO.N,MOTORA1*%
X117510000Y-79980000D03*
%TO.P,U1,4,M1A*%
%TO.N,MOTORA2*%
X117510000Y-82520000D03*
%TO.P,U1,5,M2A*%
%TO.N,MOTORA3*%
X117510000Y-85060000D03*
%TO.P,U1,6,M2B*%
%TO.N,MOTORA4*%
X117510000Y-87600000D03*
%TO.P,U1,7,GND*%
%TO.N,GND*%
X117510000Y-90140000D03*
%TO.P,U1,8,VM*%
%TO.N,VCC_5V*%
X117510000Y-92680000D03*
%TO.P,U1,9,DIR*%
%TO.N,DIR1*%
X130210000Y-74900000D03*
%TO.P,U1,10,STEP*%
%TO.N,STEP1*%
X130210000Y-77440000D03*
%TO.P,U1,11,PDN*%
%TO.N,unconnected-(U1-PDN-Pad11)*%
X130210000Y-79980000D03*
%TO.P,U1,12,UART*%
%TO.N,unconnected-(U1-UART-Pad12)*%
X130210000Y-82520000D03*
%TO.P,U1,13,SPRD*%
%TO.N,unconnected-(U1-SPRD-Pad13)*%
X130210000Y-85060000D03*
%TO.P,U1,14,MS2*%
%TO.N,Net-(JP2-B)*%
X130210000Y-87600000D03*
%TO.P,U1,15,MS1*%
%TO.N,Net-(JP1-B)*%
X130210000Y-90140000D03*
%TO.P,U1,16,~{EN}*%
%TO.N,GND*%
X130210000Y-92680000D03*
%TD*%
D12*
%TO.P,J2,1,Pin_1*%
%TO.N,MOTORB1*%
X141710000Y-97980000D03*
D13*
%TO.P,J2,2,Pin_2*%
%TO.N,MOTORB2*%
X139170000Y-97980000D03*
%TO.P,J2,3,Pin_3*%
%TO.N,MOTORB3*%
X136630000Y-97980000D03*
%TO.P,J2,4,Pin_4*%
%TO.N,MOTORB4*%
X134090000Y-97980000D03*
%TD*%
D12*
%TO.P,J5,1,Pin_1*%
%TO.N,TEAMBTN*%
X152940000Y-119255000D03*
D13*
%TO.P,J5,2,Pin_2*%
%TO.N,GND*%
X152940000Y-116715000D03*
%TD*%
D12*
%TO.P,J7,1,Pin_1*%
%TO.N,LAUNCHPULL*%
X155710000Y-119255000D03*
D13*
%TO.P,J7,2,Pin_2*%
%TO.N,GND*%
X155710000Y-116715000D03*
%TD*%
D32*
%TO.P,D2,1,K*%
%TO.N,Net-(D2-K)*%
X155910000Y-125492500D03*
%TO.P,D2,2,A*%
%TO.N,LED*%
X155910000Y-127067500D03*
%TD*%
D17*
%TO.P,R3,1*%
%TO.N,Net-(J1-CC1)*%
X159760000Y-120280000D03*
%TO.P,R3,2*%
%TO.N,GND*%
X159260000Y-120280000D03*
%TD*%
D37*
%TO.N,SDA*%
X129200000Y-119000000D03*
X133200000Y-119200000D03*
X114000000Y-101750000D03*
%TO.N,SCL*%
X125000000Y-100750000D03*
X115390000Y-100875000D03*
%TO.N,3V3*%
X165600000Y-104200000D03*
%TO.N,VCC_5V*%
X162710000Y-109980000D03*
X159710000Y-110480000D03*
X158210000Y-94980000D03*
X157210000Y-108980000D03*
%TO.N,GPIO0*%
X128900000Y-112000000D03*
X127210000Y-120980000D03*
%TO.N,USB_P*%
X146210000Y-116680000D03*
X163410000Y-117780000D03*
%TO.N,USB_N*%
X150210000Y-117080000D03*
X163570735Y-118789265D03*
%TO.N,XSHUT1*%
X144210000Y-117230000D03*
X130500000Y-105300000D03*
%TO.N,XSHUT2*%
X144210000Y-115230000D03*
X132500000Y-109100000D03*
%TO.N,XSHUT3*%
X132000000Y-110600000D03*
X139200000Y-117000000D03*
%TO.N,RX0*%
X128600000Y-125400000D03*
%TO.N,TX0*%
X129210000Y-126480000D03*
%TO.N,TX1*%
X136800000Y-120230000D03*
%TO.N,RX1*%
X135800000Y-119200000D03*
%TO.N,STEP3*%
X141210000Y-115980000D03*
%TO.N,GPIO21*%
X136000000Y-112000000D03*
%TO.N,GPIO36*%
X140800000Y-111200000D03*
X136600000Y-115000000D03*
%TO.N,GPIO47*%
X131250000Y-102500000D03*
%TO.N,GPIO48*%
X134250000Y-111500000D03*
%TO.N,GPIO37*%
X138250000Y-115000000D03*
%TO.N,GPIO35*%
X129500000Y-116000000D03*
%TO.N,GPIO38*%
X145750000Y-115250000D03*
%TO.N,GND*%
X117200000Y-112000000D03*
%TD*%
D38*
%TO.N,SDA*%
X114000000Y-101750000D02*
X113550000Y-101750000D01*
X129160000Y-119000000D02*
X127000000Y-116840000D01*
X124460000Y-109220000D02*
X124460000Y-111760000D01*
X124460000Y-111760000D02*
X127000000Y-114300000D01*
X133200000Y-119200000D02*
X135460000Y-121460000D01*
X127000000Y-114300000D02*
X127000000Y-116840000D01*
X124460000Y-104140000D02*
X124460000Y-109220000D01*
X113200000Y-101400000D02*
X113200000Y-97950000D01*
X135460000Y-121460000D02*
X135460000Y-126280000D01*
X131710000Y-130030000D02*
X130760000Y-130030000D01*
X113200000Y-97950000D02*
X114750000Y-96400000D01*
X113550000Y-101750000D02*
X113200000Y-101400000D01*
X129200000Y-119000000D02*
X129160000Y-119000000D01*
X135460000Y-126280000D02*
X131710000Y-130030000D01*
%TO.N,SCL*%
X114750000Y-100235000D02*
X114750000Y-99000000D01*
X129810000Y-128760000D02*
X130760000Y-128760000D01*
X124460000Y-116840000D02*
X124460000Y-114300000D01*
X121920000Y-104140000D02*
X121920000Y-110100000D01*
X124460000Y-116840000D02*
X127810000Y-120190000D01*
X127810000Y-120190000D02*
X127810000Y-126760000D01*
X121920000Y-110100000D02*
X124460000Y-112640000D01*
X127810000Y-126760000D02*
X129810000Y-128760000D01*
X124460000Y-112640000D02*
X124460000Y-116840000D01*
X125000000Y-100750000D02*
X125000000Y-101060000D01*
X125000000Y-101060000D02*
X121920000Y-104140000D01*
X115390000Y-100875000D02*
X114750000Y-100235000D01*
%TO.N,3V3*%
X157660000Y-127067500D02*
X157660000Y-131080000D01*
X150019000Y-131390000D02*
X150019000Y-131080000D01*
X157660000Y-131080000D02*
X161310000Y-131080000D01*
X168910000Y-123480000D02*
X168910000Y-106930000D01*
X151035000Y-131390000D02*
X151035000Y-131080000D01*
X161310000Y-131080000D02*
X168910000Y-123480000D01*
X166180000Y-104200000D02*
X168310000Y-106330000D01*
X162860000Y-97200000D02*
X167940000Y-97200000D01*
X150019000Y-131080000D02*
X151035000Y-131080000D01*
X168310000Y-106330000D02*
X162010000Y-106330000D01*
X148780000Y-130550000D02*
X149310000Y-130550000D01*
X168910000Y-106930000D02*
X168310000Y-106330000D01*
X149710000Y-129955000D02*
X148335000Y-129955000D01*
X165600000Y-104200000D02*
X166180000Y-104200000D01*
X148335000Y-129955000D02*
X148260000Y-130030000D01*
X168310000Y-106330000D02*
X168310000Y-104155000D01*
X151035000Y-131080000D02*
X157660000Y-131080000D01*
X149840000Y-131080000D02*
X150019000Y-131080000D01*
X149310000Y-130550000D02*
X149840000Y-131080000D01*
X148260000Y-130030000D02*
X148780000Y-130550000D01*
X168310000Y-104155000D02*
X165835000Y-101680000D01*
%TO.N,VCC_5V*%
X158422500Y-117036129D02*
X158422500Y-117617500D01*
X163405000Y-113460000D02*
X161998629Y-113460000D01*
X155660000Y-92630000D02*
X155660000Y-90230000D01*
X150160000Y-92680000D02*
X149106000Y-91626000D01*
X121382323Y-75000000D02*
X119950000Y-75000000D01*
X117510000Y-92680000D02*
X116456000Y-91626000D01*
X149106000Y-78494000D02*
X150160000Y-77440000D01*
X157210000Y-108980000D02*
X158210000Y-108980000D01*
X121350000Y-73600000D02*
X132430000Y-73600000D01*
X158010000Y-94980000D02*
X158210000Y-94980000D01*
X119950000Y-75000000D02*
X117510000Y-77440000D01*
X138725000Y-92000000D02*
X138725000Y-89460000D01*
X138725000Y-89460000D02*
X138725000Y-75992677D01*
X133835000Y-92680000D02*
X132781000Y-91626000D01*
X121920000Y-116840000D02*
X121920000Y-114300000D01*
X132790000Y-73600000D02*
X146752000Y-73600000D01*
X123225000Y-92500000D02*
X123225000Y-89960000D01*
X154032323Y-74900000D02*
X152700000Y-74900000D01*
X158422500Y-117617500D02*
X158610000Y-117805000D01*
X123225000Y-89960000D02*
X123225000Y-83975000D01*
X168160000Y-113055000D02*
X165985000Y-110880000D01*
X138725000Y-75992677D02*
X137732323Y-75000000D01*
X162710000Y-109330000D02*
X162010000Y-108630000D01*
X162710000Y-109980000D02*
X162710000Y-109330000D01*
X132781000Y-91626000D02*
X132781000Y-78494000D01*
X116980000Y-123800000D02*
X116980000Y-121780000D01*
X165623000Y-112467000D02*
X165623000Y-111242000D01*
X115990000Y-94200000D02*
X117510000Y-92680000D01*
X116840000Y-104140000D02*
X115990000Y-103290000D01*
X116980000Y-121780000D02*
X121920000Y-116840000D01*
X132610000Y-76215000D02*
X133835000Y-77440000D01*
X116980000Y-123800000D02*
X116980000Y-121260000D01*
X165985000Y-110880000D02*
X163405000Y-113460000D01*
X165311370Y-126080000D02*
X168135685Y-123255685D01*
X111650000Y-96400000D02*
X115370000Y-92680000D01*
X163735000Y-108630000D02*
X162010000Y-108630000D01*
X155660000Y-92630000D02*
X158010000Y-94980000D01*
X165623000Y-111242000D02*
X165985000Y-110880000D01*
X132610000Y-73780000D02*
X132790000Y-73600000D01*
X116456000Y-78494000D02*
X117510000Y-77440000D01*
X117510000Y-78260000D02*
X117510000Y-77440000D01*
X150160000Y-77008000D02*
X150160000Y-77440000D01*
X149106000Y-91626000D02*
X149106000Y-78494000D01*
X116840000Y-109220000D02*
X116840000Y-104140000D01*
X158210000Y-108980000D02*
X159710000Y-110480000D01*
X121920000Y-114300000D02*
X116840000Y-109220000D01*
X162985000Y-126080000D02*
X165311370Y-126080000D01*
X168135685Y-123255685D02*
X168160000Y-123231371D01*
X132781000Y-78494000D02*
X133835000Y-77440000D01*
X132430000Y-73600000D02*
X132610000Y-73780000D01*
X132610000Y-73780000D02*
X132610000Y-76215000D01*
X146752000Y-73600000D02*
X150160000Y-77008000D01*
X158205000Y-94980000D02*
X155725000Y-92500000D01*
X115990000Y-103290000D02*
X115990000Y-94200000D01*
X133925000Y-77530000D02*
X133835000Y-77440000D01*
X136275000Y-75000000D02*
X133835000Y-77440000D01*
X152700000Y-74900000D02*
X150160000Y-77440000D01*
X111650000Y-99000000D02*
X111650000Y-96400000D01*
X123225000Y-83975000D02*
X117510000Y-78260000D01*
X115370000Y-92680000D02*
X117510000Y-92680000D01*
X165985000Y-110880000D02*
X163735000Y-108630000D01*
X155725000Y-76592677D02*
X155725000Y-92500000D01*
X117510000Y-77440000D02*
X121350000Y-73600000D01*
X154032323Y-74900000D02*
X155725000Y-76592677D01*
X168160000Y-123231371D02*
X168160000Y-113055000D01*
X161998629Y-113460000D02*
X158422500Y-117036129D01*
X158610000Y-117805000D02*
X159810000Y-117805000D01*
X167400000Y-81400000D02*
X167400000Y-91560000D01*
X137732323Y-75000000D02*
X136275000Y-75000000D01*
X116456000Y-91626000D02*
X116456000Y-78494000D01*
X158210000Y-94980000D02*
X158205000Y-94980000D01*
%TO.N,BUZZER*%
X157460000Y-121230000D02*
X157460000Y-114530000D01*
X157460000Y-114530000D02*
X153710000Y-110780000D01*
X148470000Y-126430000D02*
X148260000Y-126220000D01*
X152470000Y-126220000D02*
X157460000Y-121230000D01*
X148260000Y-126220000D02*
X152470000Y-126220000D01*
%TO.N,GPIO0*%
X126460000Y-127880000D02*
X126460000Y-121730000D01*
X126460000Y-121730000D02*
X127210000Y-120980000D01*
X129060000Y-129866000D02*
X128446000Y-129866000D01*
X130760000Y-113860000D02*
X130760000Y-114790000D01*
X128446000Y-129866000D02*
X126460000Y-127880000D01*
X128900000Y-112000000D02*
X130760000Y-113860000D01*
%TO.N,ESP32_EN*%
X154792000Y-129362000D02*
X153310000Y-127880000D01*
X151680000Y-128760000D02*
X148260000Y-128760000D01*
X149015000Y-128760000D02*
X148260000Y-128760000D01*
X156369000Y-129362000D02*
X154792000Y-129362000D01*
X152560000Y-127880000D02*
X151680000Y-128760000D01*
X149710000Y-129455000D02*
X149015000Y-128760000D01*
%TO.N,Net-(D1-K)*%
X157660000Y-125492500D02*
X157660000Y-124680000D01*
X157660000Y-124680000D02*
X158860000Y-123480000D01*
%TO.N,LED*%
X149210000Y-127490000D02*
X149632500Y-127067500D01*
X156360000Y-127067500D02*
X156122500Y-126830000D01*
X148260000Y-127490000D02*
X149210000Y-127490000D01*
X149632500Y-127067500D02*
X155910000Y-127067500D01*
%TO.N,Net-(D2-K)*%
X156150000Y-123250000D02*
X156725000Y-123250000D01*
X155910000Y-125492500D02*
X155910000Y-123490000D01*
X155910000Y-123490000D02*
X156150000Y-123250000D01*
%TO.N,USB_P*%
X161965000Y-118830000D02*
X161940000Y-118805000D01*
X146210000Y-116310000D02*
X147730000Y-114790000D01*
X147730000Y-114790000D02*
X148260000Y-114790000D01*
X161940000Y-118855000D02*
X159035000Y-118855000D01*
X160940000Y-118780000D02*
X160940000Y-117880000D01*
X163360000Y-117830000D02*
X163410000Y-117780000D01*
X146210000Y-116680000D02*
X146210000Y-116310000D01*
X160990000Y-118830000D02*
X160940000Y-118780000D01*
X161965000Y-117830000D02*
X163360000Y-117830000D01*
X161965000Y-118830000D02*
X161940000Y-118855000D01*
X160940000Y-117880000D02*
X160990000Y-117830000D01*
X161965000Y-118830000D02*
X160990000Y-118830000D01*
X160990000Y-117830000D02*
X161965000Y-117830000D01*
%TO.N,USB_N*%
X163570735Y-118789265D02*
X163510000Y-118850000D01*
X162940000Y-119330000D02*
X161965000Y-119330000D01*
X162990000Y-119280000D02*
X162940000Y-119330000D01*
X149190000Y-116060000D02*
X148260000Y-116060000D01*
X161965000Y-118330000D02*
X162940000Y-118330000D01*
X162940000Y-118330000D02*
X162990000Y-118380000D01*
X162990000Y-119280000D02*
X163080000Y-119280000D01*
X162990000Y-118380000D02*
X162990000Y-119280000D01*
X150210000Y-117080000D02*
X149190000Y-116060000D01*
X159035000Y-119330000D02*
X161965000Y-119330000D01*
X163080000Y-119280000D02*
X163570735Y-118789265D01*
%TO.N,Net-(J1-CC1)*%
X160210000Y-119830000D02*
X161965000Y-119830000D01*
X159760000Y-120280000D02*
X160210000Y-119830000D01*
%TO.N,VCC_5Vin*%
X160445000Y-121625000D02*
X161040000Y-121030000D01*
X164910000Y-118150000D02*
X162890000Y-116130000D01*
X162740000Y-121030000D02*
X164910000Y-118860000D01*
X162890000Y-116130000D02*
X161965000Y-116130000D01*
X160445000Y-126080000D02*
X160445000Y-121625000D01*
X161040000Y-121030000D02*
X161965000Y-121030000D01*
X164910000Y-118860000D02*
X164910000Y-118150000D01*
X161965000Y-121030000D02*
X162740000Y-121030000D01*
%TO.N,Net-(J1-CC2)*%
X160610000Y-116280000D02*
X161160000Y-116830000D01*
X161160000Y-116830000D02*
X161965000Y-116830000D01*
%TO.N,TEAMBTN*%
X149210000Y-123680000D02*
X149300000Y-123770000D01*
X152940000Y-121865000D02*
X152940000Y-119255000D01*
X149300000Y-123770000D02*
X151035000Y-123770000D01*
X151035000Y-123770000D02*
X152940000Y-121865000D01*
X148260000Y-123680000D02*
X149210000Y-123680000D01*
%TO.N,LAUNCHPULL*%
X148260000Y-124950000D02*
X151490000Y-124950000D01*
X151490000Y-124950000D02*
X155710000Y-120730000D01*
X155710000Y-120730000D02*
X155710000Y-119255000D01*
%TO.N,Net-(JP1-B)*%
X128125000Y-90140000D02*
X130210000Y-90140000D01*
X125765000Y-92500000D02*
X128125000Y-90140000D01*
%TO.N,Net-(JP2-B)*%
X128125000Y-87600000D02*
X130210000Y-87600000D01*
X125765000Y-89960000D02*
X128125000Y-87600000D01*
%TO.N,Net-(JP3-B)*%
X146535000Y-90140000D02*
X143125000Y-90140000D01*
X143125000Y-90140000D02*
X141265000Y-92000000D01*
%TO.N,Net-(JP4-B)*%
X143125000Y-87600000D02*
X141265000Y-89460000D01*
X146535000Y-87600000D02*
X143125000Y-87600000D01*
%TO.N,XSHUT1*%
X144310000Y-117330000D02*
X148260000Y-117330000D01*
X130500000Y-105300000D02*
X129340000Y-104140000D01*
X144210000Y-117230000D02*
X144310000Y-117330000D01*
X129340000Y-104140000D02*
X127000000Y-104140000D01*
%TO.N,XSHUT2*%
X144210000Y-115230000D02*
X144210000Y-113795000D01*
X130080000Y-106680000D02*
X127000000Y-106680000D01*
X144210000Y-113795000D02*
X143955000Y-113540000D01*
X132500000Y-109100000D02*
X130080000Y-106680000D01*
%TO.N,XSHUT3*%
X130620000Y-109220000D02*
X127000000Y-109220000D01*
X139200000Y-117000000D02*
X141400000Y-117000000D01*
X141400000Y-117000000D02*
X142685000Y-115715000D01*
X132000000Y-110600000D02*
X130620000Y-109220000D01*
X142685000Y-115715000D02*
X142685000Y-113540000D01*
%TO.N,RX0*%
X128600000Y-125400000D02*
X128978529Y-125400000D01*
X128978529Y-125400000D02*
X129798529Y-126220000D01*
X129798529Y-126220000D02*
X130760000Y-126220000D01*
%TO.N,TX0*%
X130220000Y-127490000D02*
X129210000Y-126480000D01*
X130760000Y-127490000D02*
X130220000Y-127490000D01*
%TO.N,TX1*%
X136800000Y-120230000D02*
X139860000Y-120230000D01*
X140220000Y-119870000D02*
X148260000Y-119870000D01*
X139860000Y-120230000D02*
X140220000Y-119870000D01*
%TO.N,RX1*%
X143800000Y-118600000D02*
X148260000Y-118600000D01*
X135800000Y-119200000D02*
X143200000Y-119200000D01*
X143200000Y-119200000D02*
X143800000Y-118600000D01*
%TO.N,DIR1*%
X129156000Y-75954000D02*
X129156000Y-77876582D01*
X129156000Y-77876582D02*
X129773418Y-78494000D01*
X137605000Y-112590000D02*
X137605000Y-113540000D01*
X130210000Y-74900000D02*
X129156000Y-75954000D01*
X131910000Y-80180000D02*
X131910000Y-106895000D01*
X131910000Y-106895000D02*
X137605000Y-112590000D01*
X130224000Y-78494000D02*
X131910000Y-80180000D01*
X129773418Y-78494000D02*
X130224000Y-78494000D01*
%TO.N,STEP1*%
X132360000Y-79590000D02*
X132360000Y-106495000D01*
X130210000Y-77440000D02*
X132360000Y-79590000D01*
X132360000Y-106495000D02*
X138875000Y-113010000D01*
X138875000Y-113010000D02*
X138875000Y-113540000D01*
%TO.N,STEP2*%
X140145000Y-113010000D02*
X140145000Y-113540000D01*
X146400000Y-110140000D02*
X144050000Y-112490000D01*
X146535000Y-77440000D02*
X140000000Y-83975000D01*
X140665000Y-112490000D02*
X140145000Y-113010000D01*
X140000000Y-92800000D02*
X146400000Y-99200000D01*
X140000000Y-83975000D02*
X140000000Y-92800000D01*
X144050000Y-112490000D02*
X140665000Y-112490000D01*
X146400000Y-99200000D02*
X146400000Y-110140000D01*
%TO.N,DIR2*%
X151000000Y-115730000D02*
X151000000Y-119350000D01*
X149210000Y-121140000D02*
X148260000Y-121140000D01*
X147589000Y-112319000D02*
X151000000Y-115730000D01*
X147589000Y-75954000D02*
X147589000Y-112319000D01*
X151000000Y-119350000D02*
X149210000Y-121140000D01*
X146535000Y-74900000D02*
X147589000Y-75954000D01*
%TO.N,DIR3*%
X155921522Y-99130000D02*
X159230000Y-99130000D01*
X159230000Y-96570000D02*
X160800000Y-95000000D01*
X162860000Y-75750000D02*
X162860000Y-74900000D01*
X159230000Y-99130000D02*
X159230000Y-96570000D01*
X148260000Y-122410000D02*
X148790000Y-122410000D01*
X151790000Y-119410000D02*
X151790000Y-103261522D01*
X151790000Y-103261522D02*
X155921522Y-99130000D01*
X160800000Y-76960000D02*
X162860000Y-74900000D01*
X160800000Y-95000000D02*
X160800000Y-76960000D01*
X148790000Y-122410000D02*
X151790000Y-119410000D01*
%TO.N,STEP3*%
X141415000Y-114775000D02*
X141415000Y-113540000D01*
X141210000Y-114980000D02*
X141415000Y-114775000D01*
X141210000Y-115980000D02*
X141210000Y-114980000D01*
%TO.N,GPIO21*%
X136335000Y-112335000D02*
X136000000Y-112000000D01*
X136000000Y-112000000D02*
X136125000Y-112125000D01*
X136335000Y-113540000D02*
X136335000Y-112335000D01*
%TO.N,GPIO36*%
X138350000Y-108750000D02*
X138350000Y-106600000D01*
X132270000Y-117330000D02*
X134600000Y-115000000D01*
X140800000Y-111200000D02*
X138350000Y-108750000D01*
X138350000Y-106600000D02*
X137160000Y-105410000D01*
X134600000Y-115000000D02*
X136600000Y-115000000D01*
X130760000Y-117330000D02*
X132270000Y-117330000D01*
%TO.N,GPIO47*%
X135065000Y-110615686D02*
X135065000Y-113540000D01*
X131250000Y-102500000D02*
X131250000Y-106800686D01*
X131250000Y-106800686D02*
X135065000Y-110615686D01*
%TO.N,GPIO48*%
X133795000Y-113540000D02*
X133795000Y-111955000D01*
X133795000Y-111955000D02*
X134250000Y-111500000D01*
%TO.N,GPIO37*%
X137450000Y-115800000D02*
X134794314Y-115800000D01*
X134794314Y-115800000D02*
X131994314Y-118600000D01*
X131994314Y-118600000D02*
X130760000Y-118600000D01*
X138250000Y-115000000D02*
X137450000Y-115800000D01*
%TO.N,GPIO35*%
X130760000Y-116060000D02*
X129560000Y-116060000D01*
X129560000Y-116060000D02*
X129500000Y-116000000D01*
%TO.N,GPIO38*%
X142991471Y-117600000D02*
X145341471Y-115250000D01*
X133560000Y-117600000D02*
X142991471Y-117600000D01*
X145341471Y-115250000D02*
X145750000Y-115250000D01*
X130760000Y-119870000D02*
X131290000Y-119870000D01*
X131290000Y-119870000D02*
X133560000Y-117600000D01*
%TO.N,GND*%
X158137186Y-126230000D02*
X159360000Y-125007186D01*
X152560000Y-132080000D02*
X151060000Y-132080000D01*
X158022500Y-116792500D02*
X158022500Y-118030000D01*
X119380000Y-116840000D02*
X115830000Y-120390000D01*
X162880000Y-122900000D02*
X162880000Y-122745000D01*
X152410000Y-104480000D02*
X153710000Y-103180000D01*
X158000000Y-121540000D02*
X159260000Y-120280000D01*
X130210000Y-95900000D02*
X130210000Y-92680000D01*
X113000000Y-79410000D02*
X117510000Y-74900000D01*
X159772500Y-118330000D02*
X160347500Y-118330000D01*
X155745685Y-103180000D02*
X159762842Y-99162842D01*
X129980000Y-132080000D02*
X130760000Y-131300000D01*
X163914000Y-91626000D02*
X162860000Y-92680000D01*
X113000000Y-91440000D02*
X113000000Y-81280000D01*
X150019000Y-132130000D02*
X151010000Y-132130000D01*
X157950000Y-123250000D02*
X158000000Y-123200000D01*
X119380000Y-109220000D02*
X119380000Y-104140000D01*
X139610000Y-124280000D02*
X132590000Y-131300000D01*
X164335000Y-110880000D02*
X163935000Y-110880000D01*
X113000000Y-81280000D02*
X113000000Y-79410000D01*
X152940000Y-116715000D02*
X155710000Y-116715000D01*
X129453000Y-129366000D02*
X129710000Y-129623000D01*
X152940000Y-116715000D02*
X152410000Y-116185000D01*
X119380000Y-114300000D02*
X117200000Y-112120000D01*
X160694315Y-115330000D02*
X161965000Y-115330000D01*
X161400000Y-97525684D02*
X161400000Y-94140000D01*
X124600000Y-123800000D02*
X124600000Y-130220000D01*
X153710000Y-103180000D02*
X161160000Y-103180000D01*
X162280000Y-115015000D02*
X161965000Y-115330000D01*
X160347500Y-118330000D02*
X160422500Y-118255000D01*
X126710000Y-99400000D02*
X130210000Y-95900000D01*
X152560000Y-132080000D02*
X155010000Y-132080000D01*
X159360000Y-125007186D02*
X159360000Y-123480000D01*
X141710000Y-125404264D02*
X147605736Y-131300000D01*
X150200000Y-73600000D02*
X160983787Y-73600000D01*
X158022500Y-118230000D02*
X158122500Y-118330000D01*
X162010000Y-104030000D02*
X164185000Y-101855000D01*
X165310000Y-116635406D02*
X163689594Y-115015000D01*
X127578410Y-132080000D02*
X126460000Y-132080000D01*
X141710000Y-124980000D02*
X139610000Y-122880000D01*
X156369000Y-129862000D02*
X156762000Y-129862000D01*
X158947500Y-120280000D02*
X158022500Y-119355000D01*
X161965000Y-115175000D02*
X162880000Y-114260000D01*
X130760000Y-131300000D02*
X148260000Y-131300000D01*
X150160000Y-74900000D02*
X150160000Y-73640000D01*
X140310000Y-122180000D02*
X141710000Y-122180000D01*
X142410000Y-124280000D02*
X140310000Y-122180000D01*
X155010000Y-132080000D02*
X155060000Y-132130000D01*
X132590000Y-131300000D02*
X130760000Y-131300000D01*
X158022500Y-118030000D02*
X158022500Y-118230000D01*
X160983787Y-73600000D02*
X161003787Y-73580000D01*
X129060000Y-129366000D02*
X129292410Y-129366000D01*
X158122500Y-118330000D02*
X159772500Y-118330000D01*
X164185000Y-101680000D02*
X162705000Y-100200000D01*
X167060000Y-114260000D02*
X167060000Y-122900000D01*
X161003787Y-73580000D02*
X163080000Y-73580000D01*
X169610000Y-123830000D02*
X169610000Y-104230000D01*
X129710000Y-130628000D02*
X130382000Y-131300000D01*
X151035000Y-132105000D02*
X151010000Y-132130000D01*
X160332323Y-73600000D02*
X163050582Y-73600000D01*
X158022500Y-119355000D02*
X158022500Y-118030000D01*
X160422500Y-116905000D02*
X159160000Y-116905000D01*
X151035000Y-131890000D02*
X151035000Y-132105000D01*
X121600000Y-128000000D02*
X125680000Y-132080000D01*
X161965000Y-115330000D02*
X161965000Y-115175000D01*
X158000000Y-123200000D02*
X158000000Y-121540000D01*
X163689594Y-115015000D02*
X162280000Y-115015000D01*
X166285000Y-100905000D02*
X164960000Y-100905000D01*
X129510000Y-129583590D02*
X129510000Y-130148410D01*
X166123000Y-112467000D02*
X166123000Y-112699410D01*
X129060000Y-129366000D02*
X129453000Y-129366000D01*
X160800000Y-100200000D02*
X159762842Y-99162842D01*
X129710000Y-129623000D02*
X129710000Y-130628000D01*
X160710000Y-105330000D02*
X162010000Y-104030000D01*
X159927158Y-116097158D02*
X160694315Y-115330000D01*
X141710000Y-124980000D02*
X141710000Y-125404264D01*
X157282814Y-126230000D02*
X158137186Y-126230000D01*
X119553654Y-128000000D02*
X121600000Y-128000000D01*
X119380000Y-105053654D02*
X125033654Y-99400000D01*
X159260000Y-123147590D02*
X159260000Y-120280000D01*
X155710000Y-116715000D02*
X152410000Y-113415000D01*
X141010000Y-123580000D02*
X140310000Y-123580000D01*
X115830000Y-124276346D02*
X119553654Y-128000000D01*
X151010000Y-132130000D02*
X155060000Y-132130000D01*
X155060000Y-132130000D02*
X161310000Y-132130000D01*
X165310000Y-120524594D02*
X165310000Y-116635406D01*
X151060000Y-132080000D02*
X151010000Y-132130000D01*
X162305406Y-110880000D02*
X160710000Y-109284594D01*
X156762000Y-129862000D02*
X156885000Y-129739000D01*
X164185000Y-101855000D02*
X164185000Y-101680000D01*
X119380000Y-114300000D02*
X119380000Y-116840000D01*
X159260000Y-120280000D02*
X158947500Y-120280000D01*
X117200000Y-112120000D02*
X117200000Y-112000000D01*
X150019000Y-131890000D02*
X150019000Y-132130000D01*
X139610000Y-124280000D02*
X141710000Y-122180000D01*
X156885000Y-129739000D02*
X156885000Y-126627814D01*
X156885000Y-126627814D02*
X157282814Y-126230000D01*
X140310000Y-124980000D02*
X142410000Y-122880000D01*
X162880000Y-114260000D02*
X167060000Y-114260000D01*
X159360000Y-123247590D02*
X159260000Y-123147590D01*
X160110000Y-116280000D02*
X159927158Y-116097158D01*
X166123000Y-112699410D02*
X163917910Y-114904500D01*
X162705000Y-100200000D02*
X160800000Y-100200000D01*
X153710000Y-103180000D02*
X155745685Y-103180000D01*
X163914000Y-74463418D02*
X163914000Y-91626000D01*
X139610000Y-122880000D02*
X140310000Y-122180000D01*
X160710000Y-109284594D02*
X160710000Y-105330000D01*
X163935000Y-110880000D02*
X158022500Y-116792500D01*
X152410000Y-111480000D02*
X152410000Y-111000000D01*
X152410000Y-116185000D02*
X152410000Y-111000000D01*
X152410000Y-113415000D02*
X152410000Y-111480000D01*
X161310000Y-132130000D02*
X169610000Y-123830000D01*
X159762842Y-99162842D02*
X161400000Y-97525684D01*
X115830000Y-120390000D02*
X115830000Y-124276346D01*
X147605736Y-131300000D02*
X148260000Y-131300000D01*
X159032323Y-74900000D02*
X160332323Y-73600000D01*
X152410000Y-111000000D02*
X152410000Y-104480000D01*
X169610000Y-104230000D02*
X166285000Y-100905000D01*
X164960000Y-100905000D02*
X164185000Y-101680000D01*
X129510000Y-130148410D02*
X127578410Y-132080000D01*
X162390500Y-114904500D02*
X161965000Y-115330000D01*
X162880000Y-122745000D02*
X161965000Y-121830000D01*
X159360000Y-123480000D02*
X159360000Y-123247590D01*
X160422500Y-118255000D02*
X160422500Y-116905000D01*
X149090000Y-132130000D02*
X150019000Y-132130000D01*
X159010000Y-118330000D02*
X159772500Y-118330000D01*
X140310000Y-123580000D02*
X139610000Y-124280000D01*
X126460000Y-132080000D02*
X129980000Y-132080000D01*
X167060000Y-122900000D02*
X162880000Y-122900000D01*
X161160000Y-103180000D02*
X162010000Y-104030000D01*
X125680000Y-132080000D02*
X126460000Y-132080000D01*
X148260000Y-131300000D02*
X149090000Y-132130000D01*
X124600000Y-130220000D02*
X126460000Y-132080000D01*
X163917910Y-114904500D02*
X162390500Y-114904500D01*
X163050582Y-73600000D02*
X163914000Y-74463418D01*
X163914000Y-74414000D02*
X163914000Y-91626000D01*
X164335000Y-110880000D02*
X162305406Y-110880000D01*
X163080000Y-73580000D02*
X163914000Y-74414000D01*
X163689594Y-122145000D02*
X165310000Y-120524594D01*
X161965000Y-121830000D02*
X162280000Y-122145000D01*
X159160000Y-116864315D02*
X159927158Y-116097158D01*
X157225000Y-123250000D02*
X157950000Y-123250000D01*
X162280000Y-122145000D02*
X163689594Y-122145000D01*
X129292410Y-129366000D02*
X129510000Y-129583590D01*
X161400000Y-94140000D02*
X162860000Y-92680000D01*
X124600000Y-123800000D02*
X124600000Y-121260000D01*
X159160000Y-116905000D02*
X159160000Y-116864315D01*
X119380000Y-109220000D02*
X119380000Y-105053654D01*
X130382000Y-131300000D02*
X130760000Y-131300000D01*
X125033654Y-99400000D02*
X126710000Y-99400000D01*
X150160000Y-73640000D02*
X150200000Y-73600000D01*
%TO.N,MOTORA4*%
X118810000Y-97380000D02*
X118810000Y-88900000D01*
X117960000Y-98230000D02*
X118810000Y-97380000D01*
X118810000Y-88900000D02*
X117510000Y-87600000D01*
%TO.N,MOTORA1*%
X120710000Y-93360000D02*
X120710000Y-83180000D01*
X120710000Y-83180000D02*
X117510000Y-79980000D01*
X125580000Y-98230000D02*
X120710000Y-93360000D01*
%TO.N,MOTORA3*%
X119460000Y-87010000D02*
X117510000Y-85060000D01*
X120500000Y-98230000D02*
X119460000Y-97190000D01*
X119460000Y-97190000D02*
X119460000Y-87010000D01*
%TO.N,MOTORA2*%
X123040000Y-98230000D02*
X120210000Y-95400000D01*
X120210000Y-85220000D02*
X117510000Y-82520000D01*
X120210000Y-95400000D02*
X120210000Y-85220000D01*
%TO.N,MOTORB4*%
X134940000Y-88705000D02*
X133835000Y-87600000D01*
X134090000Y-97980000D02*
X134940000Y-97130000D01*
X134940000Y-97130000D02*
X134940000Y-88705000D01*
%TO.N,MOTORB1*%
X136460000Y-82605000D02*
X133835000Y-79980000D01*
X141710000Y-97980000D02*
X140210000Y-96480000D01*
X140210000Y-96480000D02*
X138460000Y-96480000D01*
X138460000Y-96480000D02*
X136460000Y-94480000D01*
X136460000Y-94480000D02*
X136460000Y-82605000D01*
%TO.N,MOTORB2*%
X139170000Y-97980000D02*
X135960000Y-94770000D01*
X135960000Y-84645000D02*
X133835000Y-82520000D01*
X135960000Y-94770000D02*
X135960000Y-84645000D01*
%TO.N,MOTORB3*%
X135460000Y-86685000D02*
X133835000Y-85060000D01*
X135460000Y-96810000D02*
X135460000Y-86685000D01*
X136630000Y-97980000D02*
X135460000Y-96810000D01*
%TO.N,MOTORC1*%
X153710000Y-83530000D02*
X150160000Y-79980000D01*
X158080000Y-97980000D02*
X153710000Y-93610000D01*
X153710000Y-93610000D02*
X153710000Y-83530000D01*
%TO.N,MOTORC4*%
X151310000Y-88750000D02*
X150160000Y-87600000D01*
X151310000Y-97130000D02*
X151310000Y-88750000D01*
X150460000Y-97980000D02*
X151310000Y-97130000D01*
%TO.N,MOTORC3*%
X152210000Y-87110000D02*
X150160000Y-85060000D01*
X153000000Y-97980000D02*
X153000000Y-97520000D01*
X153000000Y-97520000D02*
X152210000Y-96730000D01*
X152210000Y-96730000D02*
X152210000Y-87110000D01*
%TO.N,MOTORC2*%
X155540000Y-97980000D02*
X152960000Y-95400000D01*
X152960000Y-85320000D02*
X150160000Y-82520000D01*
X152960000Y-95400000D02*
X152960000Y-85320000D01*
%TD*%
M02*
