%TF.GenerationSoftware,KiCad,Pcbnew,8.0.3*%
%TF.CreationDate,2024-09-17T15:24:25+02:00*%
%TF.ProjectId,PCB,5043422e-6b69-4636-9164-5f7063625858,rev?*%
%TF.SameCoordinates,Original*%
%TF.FileFunction,Soldermask,Bot*%
%TF.FilePolarity,Negative*%
%FSLAX46Y46*%
G04 Gerber Fmt 4.6, Leading zero omitted, Abs format (unit mm)*
G04 Created by KiCad (PCBNEW 8.0.3) date 2024-09-17 15:24:25*
%MOMM*%
%LPD*%
G01*
G04 APERTURE LIST*
G04 Aperture macros list*
%AMRoundRect*
0 Rectangle with rounded corners*
0 $1 Rounding radius*
0 $2 $3 $4 $5 $6 $7 $8 $9 X,Y pos of 4 corners*
0 Add a 4 corners polygon primitive as box body*
4,1,4,$2,$3,$4,$5,$6,$7,$8,$9,$2,$3,0*
0 Add four circle primitives for the rounded corners*
1,1,$1+$1,$2,$3*
1,1,$1+$1,$4,$5*
1,1,$1+$1,$6,$7*
1,1,$1+$1,$8,$9*
0 Add four rect primitives between the rounded corners*
20,1,$1+$1,$2,$3,$4,$5,0*
20,1,$1+$1,$4,$5,$6,$7,0*
20,1,$1+$1,$6,$7,$8,$9,0*
20,1,$1+$1,$8,$9,$2,$3,0*%
G04 Aperture macros list end*
%ADD10R,2.000000X2.000000*%
%ADD11C,2.000000*%
%ADD12R,1.700000X1.700000*%
%ADD13O,1.700000X1.700000*%
%ADD14RoundRect,0.102000X-0.754000X-0.754000X0.754000X-0.754000X0.754000X0.754000X-0.754000X0.754000X0*%
%ADD15C,1.712000*%
%ADD16C,3.200000*%
%ADD17C,0.650000*%
%ADD18O,2.100000X1.000000*%
%ADD19O,1.600000X1.000000*%
G04 APERTURE END LIST*
D10*
%TO.C,BZ1*%
X153710000Y-110780000D03*
D11*
X153710000Y-103180000D03*
%TD*%
D12*
%TO.C,UART1*%
X124600000Y-121260000D03*
D13*
X122060000Y-121260000D03*
X119520000Y-121260000D03*
X116980000Y-121260000D03*
%TD*%
D12*
%TO.C,JP1*%
X123225000Y-92500000D03*
D13*
X125765000Y-92500000D03*
%TD*%
D12*
%TO.C,J3*%
X158080000Y-97980000D03*
D13*
X155540000Y-97980000D03*
X153000000Y-97980000D03*
X150460000Y-97980000D03*
%TD*%
D12*
%TO.C,J4*%
X137160000Y-105410000D03*
D13*
X139700000Y-105410000D03*
X142240000Y-105410000D03*
X144780000Y-105410000D03*
%TD*%
D12*
%TO.C,JP5*%
X155725000Y-92500000D03*
D13*
X158265000Y-92500000D03*
%TD*%
D14*
%TO.C,U5*%
X150160000Y-74900000D03*
D15*
X150160000Y-77440000D03*
X150160000Y-79980000D03*
X150160000Y-82520000D03*
X150160000Y-85060000D03*
X150160000Y-87600000D03*
X150160000Y-90140000D03*
X150160000Y-92680000D03*
X162860000Y-74900000D03*
X162860000Y-77440000D03*
X162860000Y-79980000D03*
X162860000Y-82520000D03*
X162860000Y-85060000D03*
X162860000Y-87600000D03*
X162860000Y-90140000D03*
X162860000Y-92680000D03*
%TD*%
D10*
%TO.C,C6*%
X137732323Y-75000000D03*
D11*
X142732323Y-75000000D03*
%TD*%
D12*
%TO.C,J6*%
X162985000Y-126080000D03*
D13*
X160445000Y-126080000D03*
%TD*%
D12*
%TO.C,TOF2*%
X127000000Y-106680000D03*
D13*
X124460000Y-106680000D03*
X121920000Y-106680000D03*
X119380000Y-106680000D03*
X116840000Y-106680000D03*
%TD*%
D12*
%TO.C,JP3*%
X138725000Y-92000000D03*
D13*
X141265000Y-92000000D03*
%TD*%
D12*
%TO.C,J12*%
X162860000Y-97200000D03*
D13*
X165400000Y-97200000D03*
X167940000Y-97200000D03*
%TD*%
D10*
%TO.C,C3*%
X121382323Y-75000000D03*
D11*
X126382323Y-75000000D03*
%TD*%
D12*
%TO.C,J8*%
X125580000Y-98230000D03*
D13*
X123040000Y-98230000D03*
X120500000Y-98230000D03*
X117960000Y-98230000D03*
%TD*%
D12*
%TO.C,J10*%
X167400000Y-81400000D03*
D13*
X167400000Y-83940000D03*
X167400000Y-86480000D03*
X167400000Y-89020000D03*
X167400000Y-91560000D03*
%TD*%
D12*
%TO.C,TOF1*%
X127000000Y-104140000D03*
D13*
X124460000Y-104140000D03*
X121920000Y-104140000D03*
X119380000Y-104140000D03*
X116840000Y-104140000D03*
%TD*%
D16*
%TO.C,H4*%
X167210000Y-129980000D03*
%TD*%
D12*
%TO.C,J11*%
X113000000Y-81280000D03*
D13*
X113000000Y-83820000D03*
X113000000Y-86360000D03*
X113000000Y-88900000D03*
X113000000Y-91440000D03*
%TD*%
D12*
%TO.C,TOF3*%
X127000000Y-109220000D03*
D13*
X124460000Y-109220000D03*
X121920000Y-109220000D03*
X119380000Y-109220000D03*
X116840000Y-109220000D03*
%TD*%
D16*
%TO.C,H2*%
X167210000Y-75980000D03*
%TD*%
D12*
%TO.C,SCREEN*%
X127000000Y-114300000D03*
D13*
X124460000Y-114300000D03*
X121920000Y-114300000D03*
X119380000Y-114300000D03*
%TD*%
D14*
%TO.C,U2*%
X133835000Y-74900000D03*
D15*
X133835000Y-77440000D03*
X133835000Y-79980000D03*
X133835000Y-82520000D03*
X133835000Y-85060000D03*
X133835000Y-87600000D03*
X133835000Y-90140000D03*
X133835000Y-92680000D03*
X146535000Y-74900000D03*
X146535000Y-77440000D03*
X146535000Y-79980000D03*
X146535000Y-82520000D03*
X146535000Y-85060000D03*
X146535000Y-87600000D03*
X146535000Y-90140000D03*
X146535000Y-92680000D03*
%TD*%
D12*
%TO.C,JP4*%
X138725000Y-89460000D03*
D13*
X141265000Y-89460000D03*
%TD*%
D16*
%TO.C,H3*%
X113210000Y-129980000D03*
%TD*%
D17*
%TO.C,J1*%
X163410000Y-121470000D03*
X163410000Y-115690000D03*
D18*
X162880000Y-122900000D03*
D19*
X167060000Y-122900000D03*
D18*
X162880000Y-114260000D03*
D19*
X167060000Y-114260000D03*
%TD*%
D10*
%TO.C,C8*%
X154032323Y-74900000D03*
D11*
X159032323Y-74900000D03*
%TD*%
D12*
%TO.C,UART0*%
X124600000Y-123800000D03*
D13*
X122060000Y-123800000D03*
X119520000Y-123800000D03*
X116980000Y-123800000D03*
%TD*%
D12*
%TO.C,J9*%
X137160000Y-107950000D03*
D13*
X139700000Y-107950000D03*
X142240000Y-107950000D03*
%TD*%
D12*
%TO.C,JP6*%
X155725000Y-89960000D03*
D13*
X158265000Y-89960000D03*
%TD*%
D12*
%TO.C,ADD*%
X127000000Y-116840000D03*
D13*
X124460000Y-116840000D03*
X121920000Y-116840000D03*
X119380000Y-116840000D03*
%TD*%
D12*
%TO.C,JP2*%
X123225000Y-89960000D03*
D13*
X125765000Y-89960000D03*
%TD*%
D14*
%TO.C,U1*%
X117510000Y-74900000D03*
D15*
X117510000Y-77440000D03*
X117510000Y-79980000D03*
X117510000Y-82520000D03*
X117510000Y-85060000D03*
X117510000Y-87600000D03*
X117510000Y-90140000D03*
X117510000Y-92680000D03*
X130210000Y-74900000D03*
X130210000Y-77440000D03*
X130210000Y-79980000D03*
X130210000Y-82520000D03*
X130210000Y-85060000D03*
X130210000Y-87600000D03*
X130210000Y-90140000D03*
X130210000Y-92680000D03*
%TD*%
D12*
%TO.C,J2*%
X141710000Y-97980000D03*
D13*
X139170000Y-97980000D03*
X136630000Y-97980000D03*
X134090000Y-97980000D03*
%TD*%
D16*
%TO.C,H1*%
X113210000Y-75980000D03*
%TD*%
D12*
%TO.C,J5*%
X152940000Y-119255000D03*
D13*
X152940000Y-116715000D03*
%TD*%
D12*
%TO.C,J7*%
X155710000Y-119255000D03*
D13*
X155710000Y-116715000D03*
%TD*%
M02*
