%TF.GenerationSoftware,KiCad,Pcbnew,8.0.3*%
%TF.CreationDate,2024-09-17T15:24:22+02:00*%
%TF.ProjectId,PCB,5043422e-6b69-4636-9164-5f7063625858,rev?*%
%TF.SameCoordinates,Original*%
%TF.FileFunction,Drillmap*%
%TF.FilePolarity,Positive*%
%FSLAX45Y45*%
G04 Gerber Fmt 4.5, Leading zero omitted, Abs format (unit mm)*
G04 Created by KiCad (PCBNEW 8.0.3) date 2024-09-17 15:24:22*
%MOMM*%
%LPD*%
G01*
G04 APERTURE LIST*
%ADD10C,0.050000*%
%ADD11C,0.200000*%
%ADD12C,0.100000*%
%ADD13C,0.320000*%
G04 APERTURE END LIST*
D10*
X16721000Y-13298000D02*
X11321000Y-13298000D01*
X16721000Y-7298000D02*
G75*
G02*
X17021000Y-7598000I0J-300000D01*
G01*
X11321000Y-7298000D02*
X16721000Y-7298000D01*
X11021000Y-7598000D02*
G75*
G02*
X11321000Y-7298000I300000J0D01*
G01*
X11321000Y-13298000D02*
G75*
G02*
X11021000Y-12998000I0J300000D01*
G01*
X17021000Y-7598000D02*
X17021000Y-12998000D01*
X17021000Y-12998000D02*
G75*
G02*
X16721000Y-13298000I-300000J0D01*
G01*
X11021000Y-12998000D02*
X11021000Y-7598000D01*
D11*
D12*
X16308500Y-11536500D02*
X16373500Y-11601500D01*
X16373500Y-11536500D02*
X16308500Y-11601500D01*
X16308500Y-12114500D02*
X16373500Y-12179500D01*
X16373500Y-12114500D02*
X16308500Y-12179500D01*
D13*
X11481000Y-7598000D02*
G75*
G02*
X11161000Y-7598000I-160000J0D01*
G01*
X11161000Y-7598000D02*
G75*
G02*
X11481000Y-7598000I160000J0D01*
G01*
X11481000Y-12998000D02*
G75*
G02*
X11161000Y-12998000I-160000J0D01*
G01*
X11161000Y-12998000D02*
G75*
G02*
X11481000Y-12998000I160000J0D01*
G01*
X16881000Y-7598000D02*
G75*
G02*
X16561000Y-7598000I-160000J0D01*
G01*
X16561000Y-7598000D02*
G75*
G02*
X16881000Y-7598000I160000J0D01*
G01*
X16881000Y-12998000D02*
G75*
G02*
X16561000Y-12998000I-160000J0D01*
G01*
X16561000Y-12998000D02*
G75*
G02*
X16881000Y-12998000I160000J0D01*
G01*
D11*
X11279277Y-13611984D02*
X11279277Y-13411984D01*
X11279277Y-13411984D02*
X11326896Y-13411984D01*
X11326896Y-13411984D02*
X11355467Y-13421508D01*
X11355467Y-13421508D02*
X11374515Y-13440555D01*
X11374515Y-13440555D02*
X11384039Y-13459603D01*
X11384039Y-13459603D02*
X11393562Y-13497698D01*
X11393562Y-13497698D02*
X11393562Y-13526269D01*
X11393562Y-13526269D02*
X11384039Y-13564365D01*
X11384039Y-13564365D02*
X11374515Y-13583412D01*
X11374515Y-13583412D02*
X11355467Y-13602460D01*
X11355467Y-13602460D02*
X11326896Y-13611984D01*
X11326896Y-13611984D02*
X11279277Y-13611984D01*
X11479277Y-13611984D02*
X11479277Y-13478650D01*
X11479277Y-13516746D02*
X11488801Y-13497698D01*
X11488801Y-13497698D02*
X11498324Y-13488174D01*
X11498324Y-13488174D02*
X11517372Y-13478650D01*
X11517372Y-13478650D02*
X11536420Y-13478650D01*
X11603086Y-13611984D02*
X11603086Y-13478650D01*
X11603086Y-13411984D02*
X11593562Y-13421508D01*
X11593562Y-13421508D02*
X11603086Y-13431031D01*
X11603086Y-13431031D02*
X11612610Y-13421508D01*
X11612610Y-13421508D02*
X11603086Y-13411984D01*
X11603086Y-13411984D02*
X11603086Y-13431031D01*
X11726896Y-13611984D02*
X11707848Y-13602460D01*
X11707848Y-13602460D02*
X11698324Y-13583412D01*
X11698324Y-13583412D02*
X11698324Y-13411984D01*
X11831658Y-13611984D02*
X11812610Y-13602460D01*
X11812610Y-13602460D02*
X11803086Y-13583412D01*
X11803086Y-13583412D02*
X11803086Y-13411984D01*
X12060229Y-13611984D02*
X12060229Y-13411984D01*
X12060229Y-13411984D02*
X12126896Y-13554841D01*
X12126896Y-13554841D02*
X12193562Y-13411984D01*
X12193562Y-13411984D02*
X12193562Y-13611984D01*
X12374515Y-13611984D02*
X12374515Y-13507222D01*
X12374515Y-13507222D02*
X12364991Y-13488174D01*
X12364991Y-13488174D02*
X12345943Y-13478650D01*
X12345943Y-13478650D02*
X12307848Y-13478650D01*
X12307848Y-13478650D02*
X12288801Y-13488174D01*
X12374515Y-13602460D02*
X12355467Y-13611984D01*
X12355467Y-13611984D02*
X12307848Y-13611984D01*
X12307848Y-13611984D02*
X12288801Y-13602460D01*
X12288801Y-13602460D02*
X12279277Y-13583412D01*
X12279277Y-13583412D02*
X12279277Y-13564365D01*
X12279277Y-13564365D02*
X12288801Y-13545317D01*
X12288801Y-13545317D02*
X12307848Y-13535793D01*
X12307848Y-13535793D02*
X12355467Y-13535793D01*
X12355467Y-13535793D02*
X12374515Y-13526269D01*
X12469753Y-13478650D02*
X12469753Y-13678650D01*
X12469753Y-13488174D02*
X12488801Y-13478650D01*
X12488801Y-13478650D02*
X12526896Y-13478650D01*
X12526896Y-13478650D02*
X12545943Y-13488174D01*
X12545943Y-13488174D02*
X12555467Y-13497698D01*
X12555467Y-13497698D02*
X12564991Y-13516746D01*
X12564991Y-13516746D02*
X12564991Y-13573888D01*
X12564991Y-13573888D02*
X12555467Y-13592936D01*
X12555467Y-13592936D02*
X12545943Y-13602460D01*
X12545943Y-13602460D02*
X12526896Y-13611984D01*
X12526896Y-13611984D02*
X12488801Y-13611984D01*
X12488801Y-13611984D02*
X12469753Y-13602460D01*
X12650705Y-13592936D02*
X12660229Y-13602460D01*
X12660229Y-13602460D02*
X12650705Y-13611984D01*
X12650705Y-13611984D02*
X12641182Y-13602460D01*
X12641182Y-13602460D02*
X12650705Y-13592936D01*
X12650705Y-13592936D02*
X12650705Y-13611984D01*
X12650705Y-13488174D02*
X12660229Y-13497698D01*
X12660229Y-13497698D02*
X12650705Y-13507222D01*
X12650705Y-13507222D02*
X12641182Y-13497698D01*
X12641182Y-13497698D02*
X12650705Y-13488174D01*
X12650705Y-13488174D02*
X12650705Y-13507222D01*
D12*
X10953500Y-13908000D02*
X11018500Y-13973000D01*
X11018500Y-13908000D02*
X10953500Y-13973000D01*
D11*
X11317372Y-13831984D02*
X11336420Y-13831984D01*
X11336420Y-13831984D02*
X11355467Y-13841508D01*
X11355467Y-13841508D02*
X11364991Y-13851031D01*
X11364991Y-13851031D02*
X11374515Y-13870079D01*
X11374515Y-13870079D02*
X11384039Y-13908174D01*
X11384039Y-13908174D02*
X11384039Y-13955793D01*
X11384039Y-13955793D02*
X11374515Y-13993888D01*
X11374515Y-13993888D02*
X11364991Y-14012936D01*
X11364991Y-14012936D02*
X11355467Y-14022460D01*
X11355467Y-14022460D02*
X11336420Y-14031984D01*
X11336420Y-14031984D02*
X11317372Y-14031984D01*
X11317372Y-14031984D02*
X11298324Y-14022460D01*
X11298324Y-14022460D02*
X11288801Y-14012936D01*
X11288801Y-14012936D02*
X11279277Y-13993888D01*
X11279277Y-13993888D02*
X11269753Y-13955793D01*
X11269753Y-13955793D02*
X11269753Y-13908174D01*
X11269753Y-13908174D02*
X11279277Y-13870079D01*
X11279277Y-13870079D02*
X11288801Y-13851031D01*
X11288801Y-13851031D02*
X11298324Y-13841508D01*
X11298324Y-13841508D02*
X11317372Y-13831984D01*
X11469753Y-14012936D02*
X11479277Y-14022460D01*
X11479277Y-14022460D02*
X11469753Y-14031984D01*
X11469753Y-14031984D02*
X11460229Y-14022460D01*
X11460229Y-14022460D02*
X11469753Y-14012936D01*
X11469753Y-14012936D02*
X11469753Y-14031984D01*
X11650705Y-13831984D02*
X11612610Y-13831984D01*
X11612610Y-13831984D02*
X11593562Y-13841508D01*
X11593562Y-13841508D02*
X11584039Y-13851031D01*
X11584039Y-13851031D02*
X11564991Y-13879603D01*
X11564991Y-13879603D02*
X11555467Y-13917698D01*
X11555467Y-13917698D02*
X11555467Y-13993888D01*
X11555467Y-13993888D02*
X11564991Y-14012936D01*
X11564991Y-14012936D02*
X11574515Y-14022460D01*
X11574515Y-14022460D02*
X11593562Y-14031984D01*
X11593562Y-14031984D02*
X11631658Y-14031984D01*
X11631658Y-14031984D02*
X11650705Y-14022460D01*
X11650705Y-14022460D02*
X11660229Y-14012936D01*
X11660229Y-14012936D02*
X11669753Y-13993888D01*
X11669753Y-13993888D02*
X11669753Y-13946269D01*
X11669753Y-13946269D02*
X11660229Y-13927222D01*
X11660229Y-13927222D02*
X11650705Y-13917698D01*
X11650705Y-13917698D02*
X11631658Y-13908174D01*
X11631658Y-13908174D02*
X11593562Y-13908174D01*
X11593562Y-13908174D02*
X11574515Y-13917698D01*
X11574515Y-13917698D02*
X11564991Y-13927222D01*
X11564991Y-13927222D02*
X11555467Y-13946269D01*
X11850705Y-13831984D02*
X11755467Y-13831984D01*
X11755467Y-13831984D02*
X11745943Y-13927222D01*
X11745943Y-13927222D02*
X11755467Y-13917698D01*
X11755467Y-13917698D02*
X11774515Y-13908174D01*
X11774515Y-13908174D02*
X11822134Y-13908174D01*
X11822134Y-13908174D02*
X11841182Y-13917698D01*
X11841182Y-13917698D02*
X11850705Y-13927222D01*
X11850705Y-13927222D02*
X11860229Y-13946269D01*
X11860229Y-13946269D02*
X11860229Y-13993888D01*
X11860229Y-13993888D02*
X11850705Y-14012936D01*
X11850705Y-14012936D02*
X11841182Y-14022460D01*
X11841182Y-14022460D02*
X11822134Y-14031984D01*
X11822134Y-14031984D02*
X11774515Y-14031984D01*
X11774515Y-14031984D02*
X11755467Y-14022460D01*
X11755467Y-14022460D02*
X11745943Y-14012936D01*
X11984039Y-13831984D02*
X12003086Y-13831984D01*
X12003086Y-13831984D02*
X12022134Y-13841508D01*
X12022134Y-13841508D02*
X12031658Y-13851031D01*
X12031658Y-13851031D02*
X12041182Y-13870079D01*
X12041182Y-13870079D02*
X12050705Y-13908174D01*
X12050705Y-13908174D02*
X12050705Y-13955793D01*
X12050705Y-13955793D02*
X12041182Y-13993888D01*
X12041182Y-13993888D02*
X12031658Y-14012936D01*
X12031658Y-14012936D02*
X12022134Y-14022460D01*
X12022134Y-14022460D02*
X12003086Y-14031984D01*
X12003086Y-14031984D02*
X11984039Y-14031984D01*
X11984039Y-14031984D02*
X11964991Y-14022460D01*
X11964991Y-14022460D02*
X11955467Y-14012936D01*
X11955467Y-14012936D02*
X11945943Y-13993888D01*
X11945943Y-13993888D02*
X11936420Y-13955793D01*
X11936420Y-13955793D02*
X11936420Y-13908174D01*
X11936420Y-13908174D02*
X11945943Y-13870079D01*
X11945943Y-13870079D02*
X11955467Y-13851031D01*
X11955467Y-13851031D02*
X11964991Y-13841508D01*
X11964991Y-13841508D02*
X11984039Y-13831984D01*
X12136420Y-14031984D02*
X12136420Y-13898650D01*
X12136420Y-13917698D02*
X12145943Y-13908174D01*
X12145943Y-13908174D02*
X12164991Y-13898650D01*
X12164991Y-13898650D02*
X12193563Y-13898650D01*
X12193563Y-13898650D02*
X12212610Y-13908174D01*
X12212610Y-13908174D02*
X12222134Y-13927222D01*
X12222134Y-13927222D02*
X12222134Y-14031984D01*
X12222134Y-13927222D02*
X12231658Y-13908174D01*
X12231658Y-13908174D02*
X12250705Y-13898650D01*
X12250705Y-13898650D02*
X12279277Y-13898650D01*
X12279277Y-13898650D02*
X12298324Y-13908174D01*
X12298324Y-13908174D02*
X12307848Y-13927222D01*
X12307848Y-13927222D02*
X12307848Y-14031984D01*
X12403086Y-14031984D02*
X12403086Y-13898650D01*
X12403086Y-13917698D02*
X12412610Y-13908174D01*
X12412610Y-13908174D02*
X12431658Y-13898650D01*
X12431658Y-13898650D02*
X12460229Y-13898650D01*
X12460229Y-13898650D02*
X12479277Y-13908174D01*
X12479277Y-13908174D02*
X12488801Y-13927222D01*
X12488801Y-13927222D02*
X12488801Y-14031984D01*
X12488801Y-13927222D02*
X12498324Y-13908174D01*
X12498324Y-13908174D02*
X12517372Y-13898650D01*
X12517372Y-13898650D02*
X12545943Y-13898650D01*
X12545943Y-13898650D02*
X12564991Y-13908174D01*
X12564991Y-13908174D02*
X12574515Y-13927222D01*
X12574515Y-13927222D02*
X12574515Y-14031984D01*
X12964991Y-13822460D02*
X12793563Y-14079603D01*
X13222134Y-13831984D02*
X13241182Y-13831984D01*
X13241182Y-13831984D02*
X13260229Y-13841508D01*
X13260229Y-13841508D02*
X13269753Y-13851031D01*
X13269753Y-13851031D02*
X13279277Y-13870079D01*
X13279277Y-13870079D02*
X13288801Y-13908174D01*
X13288801Y-13908174D02*
X13288801Y-13955793D01*
X13288801Y-13955793D02*
X13279277Y-13993888D01*
X13279277Y-13993888D02*
X13269753Y-14012936D01*
X13269753Y-14012936D02*
X13260229Y-14022460D01*
X13260229Y-14022460D02*
X13241182Y-14031984D01*
X13241182Y-14031984D02*
X13222134Y-14031984D01*
X13222134Y-14031984D02*
X13203086Y-14022460D01*
X13203086Y-14022460D02*
X13193563Y-14012936D01*
X13193563Y-14012936D02*
X13184039Y-13993888D01*
X13184039Y-13993888D02*
X13174515Y-13955793D01*
X13174515Y-13955793D02*
X13174515Y-13908174D01*
X13174515Y-13908174D02*
X13184039Y-13870079D01*
X13184039Y-13870079D02*
X13193563Y-13851031D01*
X13193563Y-13851031D02*
X13203086Y-13841508D01*
X13203086Y-13841508D02*
X13222134Y-13831984D01*
X13374515Y-14012936D02*
X13384039Y-14022460D01*
X13384039Y-14022460D02*
X13374515Y-14031984D01*
X13374515Y-14031984D02*
X13364991Y-14022460D01*
X13364991Y-14022460D02*
X13374515Y-14012936D01*
X13374515Y-14012936D02*
X13374515Y-14031984D01*
X13507848Y-13831984D02*
X13526896Y-13831984D01*
X13526896Y-13831984D02*
X13545944Y-13841508D01*
X13545944Y-13841508D02*
X13555467Y-13851031D01*
X13555467Y-13851031D02*
X13564991Y-13870079D01*
X13564991Y-13870079D02*
X13574515Y-13908174D01*
X13574515Y-13908174D02*
X13574515Y-13955793D01*
X13574515Y-13955793D02*
X13564991Y-13993888D01*
X13564991Y-13993888D02*
X13555467Y-14012936D01*
X13555467Y-14012936D02*
X13545944Y-14022460D01*
X13545944Y-14022460D02*
X13526896Y-14031984D01*
X13526896Y-14031984D02*
X13507848Y-14031984D01*
X13507848Y-14031984D02*
X13488801Y-14022460D01*
X13488801Y-14022460D02*
X13479277Y-14012936D01*
X13479277Y-14012936D02*
X13469753Y-13993888D01*
X13469753Y-13993888D02*
X13460229Y-13955793D01*
X13460229Y-13955793D02*
X13460229Y-13908174D01*
X13460229Y-13908174D02*
X13469753Y-13870079D01*
X13469753Y-13870079D02*
X13479277Y-13851031D01*
X13479277Y-13851031D02*
X13488801Y-13841508D01*
X13488801Y-13841508D02*
X13507848Y-13831984D01*
X13650706Y-13851031D02*
X13660229Y-13841508D01*
X13660229Y-13841508D02*
X13679277Y-13831984D01*
X13679277Y-13831984D02*
X13726896Y-13831984D01*
X13726896Y-13831984D02*
X13745944Y-13841508D01*
X13745944Y-13841508D02*
X13755467Y-13851031D01*
X13755467Y-13851031D02*
X13764991Y-13870079D01*
X13764991Y-13870079D02*
X13764991Y-13889127D01*
X13764991Y-13889127D02*
X13755467Y-13917698D01*
X13755467Y-13917698D02*
X13641182Y-14031984D01*
X13641182Y-14031984D02*
X13764991Y-14031984D01*
X13945944Y-13831984D02*
X13850706Y-13831984D01*
X13850706Y-13831984D02*
X13841182Y-13927222D01*
X13841182Y-13927222D02*
X13850706Y-13917698D01*
X13850706Y-13917698D02*
X13869753Y-13908174D01*
X13869753Y-13908174D02*
X13917372Y-13908174D01*
X13917372Y-13908174D02*
X13936420Y-13917698D01*
X13936420Y-13917698D02*
X13945944Y-13927222D01*
X13945944Y-13927222D02*
X13955467Y-13946269D01*
X13955467Y-13946269D02*
X13955467Y-13993888D01*
X13955467Y-13993888D02*
X13945944Y-14012936D01*
X13945944Y-14012936D02*
X13936420Y-14022460D01*
X13936420Y-14022460D02*
X13917372Y-14031984D01*
X13917372Y-14031984D02*
X13869753Y-14031984D01*
X13869753Y-14031984D02*
X13850706Y-14022460D01*
X13850706Y-14022460D02*
X13841182Y-14012936D01*
X14126896Y-13831984D02*
X14088801Y-13831984D01*
X14088801Y-13831984D02*
X14069753Y-13841508D01*
X14069753Y-13841508D02*
X14060229Y-13851031D01*
X14060229Y-13851031D02*
X14041182Y-13879603D01*
X14041182Y-13879603D02*
X14031658Y-13917698D01*
X14031658Y-13917698D02*
X14031658Y-13993888D01*
X14031658Y-13993888D02*
X14041182Y-14012936D01*
X14041182Y-14012936D02*
X14050706Y-14022460D01*
X14050706Y-14022460D02*
X14069753Y-14031984D01*
X14069753Y-14031984D02*
X14107848Y-14031984D01*
X14107848Y-14031984D02*
X14126896Y-14022460D01*
X14126896Y-14022460D02*
X14136420Y-14012936D01*
X14136420Y-14012936D02*
X14145944Y-13993888D01*
X14145944Y-13993888D02*
X14145944Y-13946269D01*
X14145944Y-13946269D02*
X14136420Y-13927222D01*
X14136420Y-13927222D02*
X14126896Y-13917698D01*
X14126896Y-13917698D02*
X14107848Y-13908174D01*
X14107848Y-13908174D02*
X14069753Y-13908174D01*
X14069753Y-13908174D02*
X14050706Y-13917698D01*
X14050706Y-13917698D02*
X14041182Y-13927222D01*
X14041182Y-13927222D02*
X14031658Y-13946269D01*
X14222134Y-13831984D02*
X14222134Y-13870079D01*
X14298325Y-13831984D02*
X14298325Y-13870079D01*
X14593563Y-14108174D02*
X14584039Y-14098650D01*
X14584039Y-14098650D02*
X14564991Y-14070079D01*
X14564991Y-14070079D02*
X14555468Y-14051031D01*
X14555468Y-14051031D02*
X14545944Y-14022460D01*
X14545944Y-14022460D02*
X14536420Y-13974841D01*
X14536420Y-13974841D02*
X14536420Y-13936746D01*
X14536420Y-13936746D02*
X14545944Y-13889127D01*
X14545944Y-13889127D02*
X14555468Y-13860555D01*
X14555468Y-13860555D02*
X14564991Y-13841508D01*
X14564991Y-13841508D02*
X14584039Y-13812936D01*
X14584039Y-13812936D02*
X14593563Y-13803412D01*
X14660229Y-13851031D02*
X14669753Y-13841508D01*
X14669753Y-13841508D02*
X14688801Y-13831984D01*
X14688801Y-13831984D02*
X14736420Y-13831984D01*
X14736420Y-13831984D02*
X14755468Y-13841508D01*
X14755468Y-13841508D02*
X14764991Y-13851031D01*
X14764991Y-13851031D02*
X14774515Y-13870079D01*
X14774515Y-13870079D02*
X14774515Y-13889127D01*
X14774515Y-13889127D02*
X14764991Y-13917698D01*
X14764991Y-13917698D02*
X14650706Y-14031984D01*
X14650706Y-14031984D02*
X14774515Y-14031984D01*
X15012610Y-14031984D02*
X15012610Y-13831984D01*
X15098325Y-14031984D02*
X15098325Y-13927222D01*
X15098325Y-13927222D02*
X15088801Y-13908174D01*
X15088801Y-13908174D02*
X15069753Y-13898650D01*
X15069753Y-13898650D02*
X15041182Y-13898650D01*
X15041182Y-13898650D02*
X15022134Y-13908174D01*
X15022134Y-13908174D02*
X15012610Y-13917698D01*
X15222134Y-14031984D02*
X15203087Y-14022460D01*
X15203087Y-14022460D02*
X15193563Y-14012936D01*
X15193563Y-14012936D02*
X15184039Y-13993888D01*
X15184039Y-13993888D02*
X15184039Y-13936746D01*
X15184039Y-13936746D02*
X15193563Y-13917698D01*
X15193563Y-13917698D02*
X15203087Y-13908174D01*
X15203087Y-13908174D02*
X15222134Y-13898650D01*
X15222134Y-13898650D02*
X15250706Y-13898650D01*
X15250706Y-13898650D02*
X15269753Y-13908174D01*
X15269753Y-13908174D02*
X15279277Y-13917698D01*
X15279277Y-13917698D02*
X15288801Y-13936746D01*
X15288801Y-13936746D02*
X15288801Y-13993888D01*
X15288801Y-13993888D02*
X15279277Y-14012936D01*
X15279277Y-14012936D02*
X15269753Y-14022460D01*
X15269753Y-14022460D02*
X15250706Y-14031984D01*
X15250706Y-14031984D02*
X15222134Y-14031984D01*
X15403087Y-14031984D02*
X15384039Y-14022460D01*
X15384039Y-14022460D02*
X15374515Y-14003412D01*
X15374515Y-14003412D02*
X15374515Y-13831984D01*
X15555468Y-14022460D02*
X15536420Y-14031984D01*
X15536420Y-14031984D02*
X15498325Y-14031984D01*
X15498325Y-14031984D02*
X15479277Y-14022460D01*
X15479277Y-14022460D02*
X15469753Y-14003412D01*
X15469753Y-14003412D02*
X15469753Y-13927222D01*
X15469753Y-13927222D02*
X15479277Y-13908174D01*
X15479277Y-13908174D02*
X15498325Y-13898650D01*
X15498325Y-13898650D02*
X15536420Y-13898650D01*
X15536420Y-13898650D02*
X15555468Y-13908174D01*
X15555468Y-13908174D02*
X15564991Y-13927222D01*
X15564991Y-13927222D02*
X15564991Y-13946269D01*
X15564991Y-13946269D02*
X15469753Y-13965317D01*
X15641182Y-14022460D02*
X15660230Y-14031984D01*
X15660230Y-14031984D02*
X15698325Y-14031984D01*
X15698325Y-14031984D02*
X15717372Y-14022460D01*
X15717372Y-14022460D02*
X15726896Y-14003412D01*
X15726896Y-14003412D02*
X15726896Y-13993888D01*
X15726896Y-13993888D02*
X15717372Y-13974841D01*
X15717372Y-13974841D02*
X15698325Y-13965317D01*
X15698325Y-13965317D02*
X15669753Y-13965317D01*
X15669753Y-13965317D02*
X15650706Y-13955793D01*
X15650706Y-13955793D02*
X15641182Y-13936746D01*
X15641182Y-13936746D02*
X15641182Y-13927222D01*
X15641182Y-13927222D02*
X15650706Y-13908174D01*
X15650706Y-13908174D02*
X15669753Y-13898650D01*
X15669753Y-13898650D02*
X15698325Y-13898650D01*
X15698325Y-13898650D02*
X15717372Y-13908174D01*
X15793563Y-14108174D02*
X15803087Y-14098650D01*
X15803087Y-14098650D02*
X15822134Y-14070079D01*
X15822134Y-14070079D02*
X15831658Y-14051031D01*
X15831658Y-14051031D02*
X15841182Y-14022460D01*
X15841182Y-14022460D02*
X15850706Y-13974841D01*
X15850706Y-13974841D02*
X15850706Y-13936746D01*
X15850706Y-13936746D02*
X15841182Y-13889127D01*
X15841182Y-13889127D02*
X15831658Y-13860555D01*
X15831658Y-13860555D02*
X15822134Y-13841508D01*
X15822134Y-13841508D02*
X15803087Y-13812936D01*
X15803087Y-13812936D02*
X15793563Y-13803412D01*
X16155468Y-14108174D02*
X16145944Y-14098650D01*
X16145944Y-14098650D02*
X16126896Y-14070079D01*
X16126896Y-14070079D02*
X16117372Y-14051031D01*
X16117372Y-14051031D02*
X16107849Y-14022460D01*
X16107849Y-14022460D02*
X16098325Y-13974841D01*
X16098325Y-13974841D02*
X16098325Y-13936746D01*
X16098325Y-13936746D02*
X16107849Y-13889127D01*
X16107849Y-13889127D02*
X16117372Y-13860555D01*
X16117372Y-13860555D02*
X16126896Y-13841508D01*
X16126896Y-13841508D02*
X16145944Y-13812936D01*
X16145944Y-13812936D02*
X16155468Y-13803412D01*
X16231658Y-13898650D02*
X16231658Y-14031984D01*
X16231658Y-13917698D02*
X16241182Y-13908174D01*
X16241182Y-13908174D02*
X16260230Y-13898650D01*
X16260230Y-13898650D02*
X16288801Y-13898650D01*
X16288801Y-13898650D02*
X16307849Y-13908174D01*
X16307849Y-13908174D02*
X16317372Y-13927222D01*
X16317372Y-13927222D02*
X16317372Y-14031984D01*
X16441182Y-14031984D02*
X16422134Y-14022460D01*
X16422134Y-14022460D02*
X16412611Y-14012936D01*
X16412611Y-14012936D02*
X16403087Y-13993888D01*
X16403087Y-13993888D02*
X16403087Y-13936746D01*
X16403087Y-13936746D02*
X16412611Y-13917698D01*
X16412611Y-13917698D02*
X16422134Y-13908174D01*
X16422134Y-13908174D02*
X16441182Y-13898650D01*
X16441182Y-13898650D02*
X16469753Y-13898650D01*
X16469753Y-13898650D02*
X16488801Y-13908174D01*
X16488801Y-13908174D02*
X16498325Y-13917698D01*
X16498325Y-13917698D02*
X16507849Y-13936746D01*
X16507849Y-13936746D02*
X16507849Y-13993888D01*
X16507849Y-13993888D02*
X16498325Y-14012936D01*
X16498325Y-14012936D02*
X16488801Y-14022460D01*
X16488801Y-14022460D02*
X16469753Y-14031984D01*
X16469753Y-14031984D02*
X16441182Y-14031984D01*
X16564992Y-13898650D02*
X16641182Y-13898650D01*
X16593563Y-13831984D02*
X16593563Y-14003412D01*
X16593563Y-14003412D02*
X16603087Y-14022460D01*
X16603087Y-14022460D02*
X16622134Y-14031984D01*
X16622134Y-14031984D02*
X16641182Y-14031984D01*
X16860230Y-13898650D02*
X16860230Y-14098650D01*
X16860230Y-13908174D02*
X16879277Y-13898650D01*
X16879277Y-13898650D02*
X16917373Y-13898650D01*
X16917373Y-13898650D02*
X16936420Y-13908174D01*
X16936420Y-13908174D02*
X16945944Y-13917698D01*
X16945944Y-13917698D02*
X16955468Y-13936746D01*
X16955468Y-13936746D02*
X16955468Y-13993888D01*
X16955468Y-13993888D02*
X16945944Y-14012936D01*
X16945944Y-14012936D02*
X16936420Y-14022460D01*
X16936420Y-14022460D02*
X16917373Y-14031984D01*
X16917373Y-14031984D02*
X16879277Y-14031984D01*
X16879277Y-14031984D02*
X16860230Y-14022460D01*
X17069754Y-14031984D02*
X17050706Y-14022460D01*
X17050706Y-14022460D02*
X17041182Y-14003412D01*
X17041182Y-14003412D02*
X17041182Y-13831984D01*
X17231658Y-14031984D02*
X17231658Y-13927222D01*
X17231658Y-13927222D02*
X17222135Y-13908174D01*
X17222135Y-13908174D02*
X17203087Y-13898650D01*
X17203087Y-13898650D02*
X17164992Y-13898650D01*
X17164992Y-13898650D02*
X17145944Y-13908174D01*
X17231658Y-14022460D02*
X17212611Y-14031984D01*
X17212611Y-14031984D02*
X17164992Y-14031984D01*
X17164992Y-14031984D02*
X17145944Y-14022460D01*
X17145944Y-14022460D02*
X17136420Y-14003412D01*
X17136420Y-14003412D02*
X17136420Y-13984365D01*
X17136420Y-13984365D02*
X17145944Y-13965317D01*
X17145944Y-13965317D02*
X17164992Y-13955793D01*
X17164992Y-13955793D02*
X17212611Y-13955793D01*
X17212611Y-13955793D02*
X17231658Y-13946269D01*
X17298325Y-13898650D02*
X17374515Y-13898650D01*
X17326896Y-13831984D02*
X17326896Y-14003412D01*
X17326896Y-14003412D02*
X17336420Y-14022460D01*
X17336420Y-14022460D02*
X17355468Y-14031984D01*
X17355468Y-14031984D02*
X17374515Y-14031984D01*
X17517373Y-14022460D02*
X17498325Y-14031984D01*
X17498325Y-14031984D02*
X17460230Y-14031984D01*
X17460230Y-14031984D02*
X17441182Y-14022460D01*
X17441182Y-14022460D02*
X17431658Y-14003412D01*
X17431658Y-14003412D02*
X17431658Y-13927222D01*
X17431658Y-13927222D02*
X17441182Y-13908174D01*
X17441182Y-13908174D02*
X17460230Y-13898650D01*
X17460230Y-13898650D02*
X17498325Y-13898650D01*
X17498325Y-13898650D02*
X17517373Y-13908174D01*
X17517373Y-13908174D02*
X17526896Y-13927222D01*
X17526896Y-13927222D02*
X17526896Y-13946269D01*
X17526896Y-13946269D02*
X17431658Y-13965317D01*
X17698325Y-14031984D02*
X17698325Y-13831984D01*
X17698325Y-14022460D02*
X17679277Y-14031984D01*
X17679277Y-14031984D02*
X17641182Y-14031984D01*
X17641182Y-14031984D02*
X17622135Y-14022460D01*
X17622135Y-14022460D02*
X17612611Y-14012936D01*
X17612611Y-14012936D02*
X17603087Y-13993888D01*
X17603087Y-13993888D02*
X17603087Y-13936746D01*
X17603087Y-13936746D02*
X17612611Y-13917698D01*
X17612611Y-13917698D02*
X17622135Y-13908174D01*
X17622135Y-13908174D02*
X17641182Y-13898650D01*
X17641182Y-13898650D02*
X17679277Y-13898650D01*
X17679277Y-13898650D02*
X17698325Y-13908174D01*
X17774516Y-14108174D02*
X17784039Y-14098650D01*
X17784039Y-14098650D02*
X17803087Y-14070079D01*
X17803087Y-14070079D02*
X17812611Y-14051031D01*
X17812611Y-14051031D02*
X17822135Y-14022460D01*
X17822135Y-14022460D02*
X17831658Y-13974841D01*
X17831658Y-13974841D02*
X17831658Y-13936746D01*
X17831658Y-13936746D02*
X17822135Y-13889127D01*
X17822135Y-13889127D02*
X17812611Y-13860555D01*
X17812611Y-13860555D02*
X17803087Y-13841508D01*
X17803087Y-13841508D02*
X17784039Y-13812936D01*
X17784039Y-13812936D02*
X17774516Y-13803412D01*
X11018500Y-14204500D02*
G75*
G02*
X10818500Y-14204500I-100000J0D01*
G01*
X10818500Y-14204500D02*
G75*
G02*
X11018500Y-14204500I100000J0D01*
G01*
X11260229Y-14095984D02*
X11384039Y-14095984D01*
X11384039Y-14095984D02*
X11317372Y-14172174D01*
X11317372Y-14172174D02*
X11345943Y-14172174D01*
X11345943Y-14172174D02*
X11364991Y-14181698D01*
X11364991Y-14181698D02*
X11374515Y-14191222D01*
X11374515Y-14191222D02*
X11384039Y-14210269D01*
X11384039Y-14210269D02*
X11384039Y-14257888D01*
X11384039Y-14257888D02*
X11374515Y-14276936D01*
X11374515Y-14276936D02*
X11364991Y-14286460D01*
X11364991Y-14286460D02*
X11345943Y-14295984D01*
X11345943Y-14295984D02*
X11288801Y-14295984D01*
X11288801Y-14295984D02*
X11269753Y-14286460D01*
X11269753Y-14286460D02*
X11260229Y-14276936D01*
X11469753Y-14276936D02*
X11479277Y-14286460D01*
X11479277Y-14286460D02*
X11469753Y-14295984D01*
X11469753Y-14295984D02*
X11460229Y-14286460D01*
X11460229Y-14286460D02*
X11469753Y-14276936D01*
X11469753Y-14276936D02*
X11469753Y-14295984D01*
X11555467Y-14115031D02*
X11564991Y-14105508D01*
X11564991Y-14105508D02*
X11584039Y-14095984D01*
X11584039Y-14095984D02*
X11631658Y-14095984D01*
X11631658Y-14095984D02*
X11650705Y-14105508D01*
X11650705Y-14105508D02*
X11660229Y-14115031D01*
X11660229Y-14115031D02*
X11669753Y-14134079D01*
X11669753Y-14134079D02*
X11669753Y-14153127D01*
X11669753Y-14153127D02*
X11660229Y-14181698D01*
X11660229Y-14181698D02*
X11545943Y-14295984D01*
X11545943Y-14295984D02*
X11669753Y-14295984D01*
X11793562Y-14095984D02*
X11812610Y-14095984D01*
X11812610Y-14095984D02*
X11831658Y-14105508D01*
X11831658Y-14105508D02*
X11841182Y-14115031D01*
X11841182Y-14115031D02*
X11850705Y-14134079D01*
X11850705Y-14134079D02*
X11860229Y-14172174D01*
X11860229Y-14172174D02*
X11860229Y-14219793D01*
X11860229Y-14219793D02*
X11850705Y-14257888D01*
X11850705Y-14257888D02*
X11841182Y-14276936D01*
X11841182Y-14276936D02*
X11831658Y-14286460D01*
X11831658Y-14286460D02*
X11812610Y-14295984D01*
X11812610Y-14295984D02*
X11793562Y-14295984D01*
X11793562Y-14295984D02*
X11774515Y-14286460D01*
X11774515Y-14286460D02*
X11764991Y-14276936D01*
X11764991Y-14276936D02*
X11755467Y-14257888D01*
X11755467Y-14257888D02*
X11745943Y-14219793D01*
X11745943Y-14219793D02*
X11745943Y-14172174D01*
X11745943Y-14172174D02*
X11755467Y-14134079D01*
X11755467Y-14134079D02*
X11764991Y-14115031D01*
X11764991Y-14115031D02*
X11774515Y-14105508D01*
X11774515Y-14105508D02*
X11793562Y-14095984D01*
X11984039Y-14095984D02*
X12003086Y-14095984D01*
X12003086Y-14095984D02*
X12022134Y-14105508D01*
X12022134Y-14105508D02*
X12031658Y-14115031D01*
X12031658Y-14115031D02*
X12041182Y-14134079D01*
X12041182Y-14134079D02*
X12050705Y-14172174D01*
X12050705Y-14172174D02*
X12050705Y-14219793D01*
X12050705Y-14219793D02*
X12041182Y-14257888D01*
X12041182Y-14257888D02*
X12031658Y-14276936D01*
X12031658Y-14276936D02*
X12022134Y-14286460D01*
X12022134Y-14286460D02*
X12003086Y-14295984D01*
X12003086Y-14295984D02*
X11984039Y-14295984D01*
X11984039Y-14295984D02*
X11964991Y-14286460D01*
X11964991Y-14286460D02*
X11955467Y-14276936D01*
X11955467Y-14276936D02*
X11945943Y-14257888D01*
X11945943Y-14257888D02*
X11936420Y-14219793D01*
X11936420Y-14219793D02*
X11936420Y-14172174D01*
X11936420Y-14172174D02*
X11945943Y-14134079D01*
X11945943Y-14134079D02*
X11955467Y-14115031D01*
X11955467Y-14115031D02*
X11964991Y-14105508D01*
X11964991Y-14105508D02*
X11984039Y-14095984D01*
X12136420Y-14295984D02*
X12136420Y-14162650D01*
X12136420Y-14181698D02*
X12145943Y-14172174D01*
X12145943Y-14172174D02*
X12164991Y-14162650D01*
X12164991Y-14162650D02*
X12193563Y-14162650D01*
X12193563Y-14162650D02*
X12212610Y-14172174D01*
X12212610Y-14172174D02*
X12222134Y-14191222D01*
X12222134Y-14191222D02*
X12222134Y-14295984D01*
X12222134Y-14191222D02*
X12231658Y-14172174D01*
X12231658Y-14172174D02*
X12250705Y-14162650D01*
X12250705Y-14162650D02*
X12279277Y-14162650D01*
X12279277Y-14162650D02*
X12298324Y-14172174D01*
X12298324Y-14172174D02*
X12307848Y-14191222D01*
X12307848Y-14191222D02*
X12307848Y-14295984D01*
X12403086Y-14295984D02*
X12403086Y-14162650D01*
X12403086Y-14181698D02*
X12412610Y-14172174D01*
X12412610Y-14172174D02*
X12431658Y-14162650D01*
X12431658Y-14162650D02*
X12460229Y-14162650D01*
X12460229Y-14162650D02*
X12479277Y-14172174D01*
X12479277Y-14172174D02*
X12488801Y-14191222D01*
X12488801Y-14191222D02*
X12488801Y-14295984D01*
X12488801Y-14191222D02*
X12498324Y-14172174D01*
X12498324Y-14172174D02*
X12517372Y-14162650D01*
X12517372Y-14162650D02*
X12545943Y-14162650D01*
X12545943Y-14162650D02*
X12564991Y-14172174D01*
X12564991Y-14172174D02*
X12574515Y-14191222D01*
X12574515Y-14191222D02*
X12574515Y-14295984D01*
X12964991Y-14086460D02*
X12793563Y-14343603D01*
X13222134Y-14095984D02*
X13241182Y-14095984D01*
X13241182Y-14095984D02*
X13260229Y-14105508D01*
X13260229Y-14105508D02*
X13269753Y-14115031D01*
X13269753Y-14115031D02*
X13279277Y-14134079D01*
X13279277Y-14134079D02*
X13288801Y-14172174D01*
X13288801Y-14172174D02*
X13288801Y-14219793D01*
X13288801Y-14219793D02*
X13279277Y-14257888D01*
X13279277Y-14257888D02*
X13269753Y-14276936D01*
X13269753Y-14276936D02*
X13260229Y-14286460D01*
X13260229Y-14286460D02*
X13241182Y-14295984D01*
X13241182Y-14295984D02*
X13222134Y-14295984D01*
X13222134Y-14295984D02*
X13203086Y-14286460D01*
X13203086Y-14286460D02*
X13193563Y-14276936D01*
X13193563Y-14276936D02*
X13184039Y-14257888D01*
X13184039Y-14257888D02*
X13174515Y-14219793D01*
X13174515Y-14219793D02*
X13174515Y-14172174D01*
X13174515Y-14172174D02*
X13184039Y-14134079D01*
X13184039Y-14134079D02*
X13193563Y-14115031D01*
X13193563Y-14115031D02*
X13203086Y-14105508D01*
X13203086Y-14105508D02*
X13222134Y-14095984D01*
X13374515Y-14276936D02*
X13384039Y-14286460D01*
X13384039Y-14286460D02*
X13374515Y-14295984D01*
X13374515Y-14295984D02*
X13364991Y-14286460D01*
X13364991Y-14286460D02*
X13374515Y-14276936D01*
X13374515Y-14276936D02*
X13374515Y-14295984D01*
X13574515Y-14295984D02*
X13460229Y-14295984D01*
X13517372Y-14295984D02*
X13517372Y-14095984D01*
X13517372Y-14095984D02*
X13498325Y-14124555D01*
X13498325Y-14124555D02*
X13479277Y-14143603D01*
X13479277Y-14143603D02*
X13460229Y-14153127D01*
X13650706Y-14115031D02*
X13660229Y-14105508D01*
X13660229Y-14105508D02*
X13679277Y-14095984D01*
X13679277Y-14095984D02*
X13726896Y-14095984D01*
X13726896Y-14095984D02*
X13745944Y-14105508D01*
X13745944Y-14105508D02*
X13755467Y-14115031D01*
X13755467Y-14115031D02*
X13764991Y-14134079D01*
X13764991Y-14134079D02*
X13764991Y-14153127D01*
X13764991Y-14153127D02*
X13755467Y-14181698D01*
X13755467Y-14181698D02*
X13641182Y-14295984D01*
X13641182Y-14295984D02*
X13764991Y-14295984D01*
X13936420Y-14095984D02*
X13898325Y-14095984D01*
X13898325Y-14095984D02*
X13879277Y-14105508D01*
X13879277Y-14105508D02*
X13869753Y-14115031D01*
X13869753Y-14115031D02*
X13850706Y-14143603D01*
X13850706Y-14143603D02*
X13841182Y-14181698D01*
X13841182Y-14181698D02*
X13841182Y-14257888D01*
X13841182Y-14257888D02*
X13850706Y-14276936D01*
X13850706Y-14276936D02*
X13860229Y-14286460D01*
X13860229Y-14286460D02*
X13879277Y-14295984D01*
X13879277Y-14295984D02*
X13917372Y-14295984D01*
X13917372Y-14295984D02*
X13936420Y-14286460D01*
X13936420Y-14286460D02*
X13945944Y-14276936D01*
X13945944Y-14276936D02*
X13955467Y-14257888D01*
X13955467Y-14257888D02*
X13955467Y-14210269D01*
X13955467Y-14210269D02*
X13945944Y-14191222D01*
X13945944Y-14191222D02*
X13936420Y-14181698D01*
X13936420Y-14181698D02*
X13917372Y-14172174D01*
X13917372Y-14172174D02*
X13879277Y-14172174D01*
X13879277Y-14172174D02*
X13860229Y-14181698D01*
X13860229Y-14181698D02*
X13850706Y-14191222D01*
X13850706Y-14191222D02*
X13841182Y-14210269D01*
X14079277Y-14095984D02*
X14098325Y-14095984D01*
X14098325Y-14095984D02*
X14117372Y-14105508D01*
X14117372Y-14105508D02*
X14126896Y-14115031D01*
X14126896Y-14115031D02*
X14136420Y-14134079D01*
X14136420Y-14134079D02*
X14145944Y-14172174D01*
X14145944Y-14172174D02*
X14145944Y-14219793D01*
X14145944Y-14219793D02*
X14136420Y-14257888D01*
X14136420Y-14257888D02*
X14126896Y-14276936D01*
X14126896Y-14276936D02*
X14117372Y-14286460D01*
X14117372Y-14286460D02*
X14098325Y-14295984D01*
X14098325Y-14295984D02*
X14079277Y-14295984D01*
X14079277Y-14295984D02*
X14060229Y-14286460D01*
X14060229Y-14286460D02*
X14050706Y-14276936D01*
X14050706Y-14276936D02*
X14041182Y-14257888D01*
X14041182Y-14257888D02*
X14031658Y-14219793D01*
X14031658Y-14219793D02*
X14031658Y-14172174D01*
X14031658Y-14172174D02*
X14041182Y-14134079D01*
X14041182Y-14134079D02*
X14050706Y-14115031D01*
X14050706Y-14115031D02*
X14060229Y-14105508D01*
X14060229Y-14105508D02*
X14079277Y-14095984D01*
X14222134Y-14095984D02*
X14222134Y-14134079D01*
X14298325Y-14095984D02*
X14298325Y-14134079D01*
X14593563Y-14372174D02*
X14584039Y-14362650D01*
X14584039Y-14362650D02*
X14564991Y-14334079D01*
X14564991Y-14334079D02*
X14555468Y-14315031D01*
X14555468Y-14315031D02*
X14545944Y-14286460D01*
X14545944Y-14286460D02*
X14536420Y-14238841D01*
X14536420Y-14238841D02*
X14536420Y-14200746D01*
X14536420Y-14200746D02*
X14545944Y-14153127D01*
X14545944Y-14153127D02*
X14555468Y-14124555D01*
X14555468Y-14124555D02*
X14564991Y-14105508D01*
X14564991Y-14105508D02*
X14584039Y-14076936D01*
X14584039Y-14076936D02*
X14593563Y-14067412D01*
X14755468Y-14162650D02*
X14755468Y-14295984D01*
X14707848Y-14086460D02*
X14660229Y-14229317D01*
X14660229Y-14229317D02*
X14784039Y-14229317D01*
X15012610Y-14295984D02*
X15012610Y-14095984D01*
X15098325Y-14295984D02*
X15098325Y-14191222D01*
X15098325Y-14191222D02*
X15088801Y-14172174D01*
X15088801Y-14172174D02*
X15069753Y-14162650D01*
X15069753Y-14162650D02*
X15041182Y-14162650D01*
X15041182Y-14162650D02*
X15022134Y-14172174D01*
X15022134Y-14172174D02*
X15012610Y-14181698D01*
X15222134Y-14295984D02*
X15203087Y-14286460D01*
X15203087Y-14286460D02*
X15193563Y-14276936D01*
X15193563Y-14276936D02*
X15184039Y-14257888D01*
X15184039Y-14257888D02*
X15184039Y-14200746D01*
X15184039Y-14200746D02*
X15193563Y-14181698D01*
X15193563Y-14181698D02*
X15203087Y-14172174D01*
X15203087Y-14172174D02*
X15222134Y-14162650D01*
X15222134Y-14162650D02*
X15250706Y-14162650D01*
X15250706Y-14162650D02*
X15269753Y-14172174D01*
X15269753Y-14172174D02*
X15279277Y-14181698D01*
X15279277Y-14181698D02*
X15288801Y-14200746D01*
X15288801Y-14200746D02*
X15288801Y-14257888D01*
X15288801Y-14257888D02*
X15279277Y-14276936D01*
X15279277Y-14276936D02*
X15269753Y-14286460D01*
X15269753Y-14286460D02*
X15250706Y-14295984D01*
X15250706Y-14295984D02*
X15222134Y-14295984D01*
X15403087Y-14295984D02*
X15384039Y-14286460D01*
X15384039Y-14286460D02*
X15374515Y-14267412D01*
X15374515Y-14267412D02*
X15374515Y-14095984D01*
X15555468Y-14286460D02*
X15536420Y-14295984D01*
X15536420Y-14295984D02*
X15498325Y-14295984D01*
X15498325Y-14295984D02*
X15479277Y-14286460D01*
X15479277Y-14286460D02*
X15469753Y-14267412D01*
X15469753Y-14267412D02*
X15469753Y-14191222D01*
X15469753Y-14191222D02*
X15479277Y-14172174D01*
X15479277Y-14172174D02*
X15498325Y-14162650D01*
X15498325Y-14162650D02*
X15536420Y-14162650D01*
X15536420Y-14162650D02*
X15555468Y-14172174D01*
X15555468Y-14172174D02*
X15564991Y-14191222D01*
X15564991Y-14191222D02*
X15564991Y-14210269D01*
X15564991Y-14210269D02*
X15469753Y-14229317D01*
X15641182Y-14286460D02*
X15660230Y-14295984D01*
X15660230Y-14295984D02*
X15698325Y-14295984D01*
X15698325Y-14295984D02*
X15717372Y-14286460D01*
X15717372Y-14286460D02*
X15726896Y-14267412D01*
X15726896Y-14267412D02*
X15726896Y-14257888D01*
X15726896Y-14257888D02*
X15717372Y-14238841D01*
X15717372Y-14238841D02*
X15698325Y-14229317D01*
X15698325Y-14229317D02*
X15669753Y-14229317D01*
X15669753Y-14229317D02*
X15650706Y-14219793D01*
X15650706Y-14219793D02*
X15641182Y-14200746D01*
X15641182Y-14200746D02*
X15641182Y-14191222D01*
X15641182Y-14191222D02*
X15650706Y-14172174D01*
X15650706Y-14172174D02*
X15669753Y-14162650D01*
X15669753Y-14162650D02*
X15698325Y-14162650D01*
X15698325Y-14162650D02*
X15717372Y-14172174D01*
X15793563Y-14372174D02*
X15803087Y-14362650D01*
X15803087Y-14362650D02*
X15822134Y-14334079D01*
X15822134Y-14334079D02*
X15831658Y-14315031D01*
X15831658Y-14315031D02*
X15841182Y-14286460D01*
X15841182Y-14286460D02*
X15850706Y-14238841D01*
X15850706Y-14238841D02*
X15850706Y-14200746D01*
X15850706Y-14200746D02*
X15841182Y-14153127D01*
X15841182Y-14153127D02*
X15831658Y-14124555D01*
X15831658Y-14124555D02*
X15822134Y-14105508D01*
X15822134Y-14105508D02*
X15803087Y-14076936D01*
X15803087Y-14076936D02*
X15793563Y-14067412D01*
X16155468Y-14372174D02*
X16145944Y-14362650D01*
X16145944Y-14362650D02*
X16126896Y-14334079D01*
X16126896Y-14334079D02*
X16117372Y-14315031D01*
X16117372Y-14315031D02*
X16107849Y-14286460D01*
X16107849Y-14286460D02*
X16098325Y-14238841D01*
X16098325Y-14238841D02*
X16098325Y-14200746D01*
X16098325Y-14200746D02*
X16107849Y-14153127D01*
X16107849Y-14153127D02*
X16117372Y-14124555D01*
X16117372Y-14124555D02*
X16126896Y-14105508D01*
X16126896Y-14105508D02*
X16145944Y-14076936D01*
X16145944Y-14076936D02*
X16155468Y-14067412D01*
X16231658Y-14162650D02*
X16231658Y-14295984D01*
X16231658Y-14181698D02*
X16241182Y-14172174D01*
X16241182Y-14172174D02*
X16260230Y-14162650D01*
X16260230Y-14162650D02*
X16288801Y-14162650D01*
X16288801Y-14162650D02*
X16307849Y-14172174D01*
X16307849Y-14172174D02*
X16317372Y-14191222D01*
X16317372Y-14191222D02*
X16317372Y-14295984D01*
X16441182Y-14295984D02*
X16422134Y-14286460D01*
X16422134Y-14286460D02*
X16412611Y-14276936D01*
X16412611Y-14276936D02*
X16403087Y-14257888D01*
X16403087Y-14257888D02*
X16403087Y-14200746D01*
X16403087Y-14200746D02*
X16412611Y-14181698D01*
X16412611Y-14181698D02*
X16422134Y-14172174D01*
X16422134Y-14172174D02*
X16441182Y-14162650D01*
X16441182Y-14162650D02*
X16469753Y-14162650D01*
X16469753Y-14162650D02*
X16488801Y-14172174D01*
X16488801Y-14172174D02*
X16498325Y-14181698D01*
X16498325Y-14181698D02*
X16507849Y-14200746D01*
X16507849Y-14200746D02*
X16507849Y-14257888D01*
X16507849Y-14257888D02*
X16498325Y-14276936D01*
X16498325Y-14276936D02*
X16488801Y-14286460D01*
X16488801Y-14286460D02*
X16469753Y-14295984D01*
X16469753Y-14295984D02*
X16441182Y-14295984D01*
X16564992Y-14162650D02*
X16641182Y-14162650D01*
X16593563Y-14095984D02*
X16593563Y-14267412D01*
X16593563Y-14267412D02*
X16603087Y-14286460D01*
X16603087Y-14286460D02*
X16622134Y-14295984D01*
X16622134Y-14295984D02*
X16641182Y-14295984D01*
X16860230Y-14162650D02*
X16860230Y-14362650D01*
X16860230Y-14172174D02*
X16879277Y-14162650D01*
X16879277Y-14162650D02*
X16917373Y-14162650D01*
X16917373Y-14162650D02*
X16936420Y-14172174D01*
X16936420Y-14172174D02*
X16945944Y-14181698D01*
X16945944Y-14181698D02*
X16955468Y-14200746D01*
X16955468Y-14200746D02*
X16955468Y-14257888D01*
X16955468Y-14257888D02*
X16945944Y-14276936D01*
X16945944Y-14276936D02*
X16936420Y-14286460D01*
X16936420Y-14286460D02*
X16917373Y-14295984D01*
X16917373Y-14295984D02*
X16879277Y-14295984D01*
X16879277Y-14295984D02*
X16860230Y-14286460D01*
X17069754Y-14295984D02*
X17050706Y-14286460D01*
X17050706Y-14286460D02*
X17041182Y-14267412D01*
X17041182Y-14267412D02*
X17041182Y-14095984D01*
X17231658Y-14295984D02*
X17231658Y-14191222D01*
X17231658Y-14191222D02*
X17222135Y-14172174D01*
X17222135Y-14172174D02*
X17203087Y-14162650D01*
X17203087Y-14162650D02*
X17164992Y-14162650D01*
X17164992Y-14162650D02*
X17145944Y-14172174D01*
X17231658Y-14286460D02*
X17212611Y-14295984D01*
X17212611Y-14295984D02*
X17164992Y-14295984D01*
X17164992Y-14295984D02*
X17145944Y-14286460D01*
X17145944Y-14286460D02*
X17136420Y-14267412D01*
X17136420Y-14267412D02*
X17136420Y-14248365D01*
X17136420Y-14248365D02*
X17145944Y-14229317D01*
X17145944Y-14229317D02*
X17164992Y-14219793D01*
X17164992Y-14219793D02*
X17212611Y-14219793D01*
X17212611Y-14219793D02*
X17231658Y-14210269D01*
X17298325Y-14162650D02*
X17374515Y-14162650D01*
X17326896Y-14095984D02*
X17326896Y-14267412D01*
X17326896Y-14267412D02*
X17336420Y-14286460D01*
X17336420Y-14286460D02*
X17355468Y-14295984D01*
X17355468Y-14295984D02*
X17374515Y-14295984D01*
X17517373Y-14286460D02*
X17498325Y-14295984D01*
X17498325Y-14295984D02*
X17460230Y-14295984D01*
X17460230Y-14295984D02*
X17441182Y-14286460D01*
X17441182Y-14286460D02*
X17431658Y-14267412D01*
X17431658Y-14267412D02*
X17431658Y-14191222D01*
X17431658Y-14191222D02*
X17441182Y-14172174D01*
X17441182Y-14172174D02*
X17460230Y-14162650D01*
X17460230Y-14162650D02*
X17498325Y-14162650D01*
X17498325Y-14162650D02*
X17517373Y-14172174D01*
X17517373Y-14172174D02*
X17526896Y-14191222D01*
X17526896Y-14191222D02*
X17526896Y-14210269D01*
X17526896Y-14210269D02*
X17431658Y-14229317D01*
X17698325Y-14295984D02*
X17698325Y-14095984D01*
X17698325Y-14286460D02*
X17679277Y-14295984D01*
X17679277Y-14295984D02*
X17641182Y-14295984D01*
X17641182Y-14295984D02*
X17622135Y-14286460D01*
X17622135Y-14286460D02*
X17612611Y-14276936D01*
X17612611Y-14276936D02*
X17603087Y-14257888D01*
X17603087Y-14257888D02*
X17603087Y-14200746D01*
X17603087Y-14200746D02*
X17612611Y-14181698D01*
X17612611Y-14181698D02*
X17622135Y-14172174D01*
X17622135Y-14172174D02*
X17641182Y-14162650D01*
X17641182Y-14162650D02*
X17679277Y-14162650D01*
X17679277Y-14162650D02*
X17698325Y-14172174D01*
X17774516Y-14372174D02*
X17784039Y-14362650D01*
X17784039Y-14362650D02*
X17803087Y-14334079D01*
X17803087Y-14334079D02*
X17812611Y-14315031D01*
X17812611Y-14315031D02*
X17822135Y-14286460D01*
X17822135Y-14286460D02*
X17831658Y-14238841D01*
X17831658Y-14238841D02*
X17831658Y-14200746D01*
X17831658Y-14200746D02*
X17822135Y-14153127D01*
X17822135Y-14153127D02*
X17812611Y-14124555D01*
X17812611Y-14124555D02*
X17803087Y-14105508D01*
X17803087Y-14105508D02*
X17784039Y-14076936D01*
X17784039Y-14076936D02*
X17774516Y-14067412D01*
M02*
