%TF.GenerationSoftware,KiCad,Pcbnew,8.0.3*%
%TF.CreationDate,2024-09-17T15:24:25+02:00*%
%TF.ProjectId,PCB,5043422e-6b69-4636-9164-5f7063625858,rev?*%
%TF.SameCoordinates,Original*%
%TF.FileFunction,Paste,Top*%
%TF.FilePolarity,Positive*%
%FSLAX46Y46*%
G04 Gerber Fmt 4.6, Leading zero omitted, Abs format (unit mm)*
G04 Created by KiCad (PCBNEW 8.0.3) date 2024-09-17 15:24:25*
%MOMM*%
%LPD*%
G01*
G04 APERTURE LIST*
G04 Aperture macros list*
%AMRoundRect*
0 Rectangle with rounded corners*
0 $1 Rounding radius*
0 $2 $3 $4 $5 $6 $7 $8 $9 X,Y pos of 4 corners*
0 Add a 4 corners polygon primitive as box body*
4,1,4,$2,$3,$4,$5,$6,$7,$8,$9,$2,$3,0*
0 Add four circle primitives for the rounded corners*
1,1,$1+$1,$2,$3*
1,1,$1+$1,$4,$5*
1,1,$1+$1,$6,$7*
1,1,$1+$1,$8,$9*
0 Add four rect primitives between the rounded corners*
20,1,$1+$1,$2,$3,$4,$5,0*
20,1,$1+$1,$4,$5,$6,$7,0*
20,1,$1+$1,$6,$7,$8,$9,0*
20,1,$1+$1,$8,$9,$2,$3,0*%
G04 Aperture macros list end*
%ADD10RoundRect,0.067500X-0.067500X-0.067500X0.067500X-0.067500X0.067500X0.067500X-0.067500X0.067500X0*%
%ADD11RoundRect,0.067500X0.067500X0.067500X-0.067500X0.067500X-0.067500X-0.067500X0.067500X-0.067500X0*%
%ADD12RoundRect,0.250000X-0.400000X-0.625000X0.400000X-0.625000X0.400000X0.625000X-0.400000X0.625000X0*%
%ADD13RoundRect,0.067500X-0.067500X0.067500X-0.067500X-0.067500X0.067500X-0.067500X0.067500X0.067500X0*%
%ADD14RoundRect,0.200000X0.200000X0.275000X-0.200000X0.275000X-0.200000X-0.275000X0.200000X-0.275000X0*%
%ADD15RoundRect,0.375000X-0.625000X-0.375000X0.625000X-0.375000X0.625000X0.375000X-0.625000X0.375000X0*%
%ADD16RoundRect,0.500000X-0.500000X-1.400000X0.500000X-1.400000X0.500000X1.400000X-0.500000X1.400000X0*%
%ADD17RoundRect,0.067500X0.067500X-0.067500X0.067500X0.067500X-0.067500X0.067500X-0.067500X-0.067500X0*%
%ADD18R,0.625000X0.250000*%
%ADD19R,0.700000X0.450000*%
%ADD20R,0.575000X0.450000*%
%ADD21R,1.450000X0.600000*%
%ADD22R,1.450000X0.300000*%
%ADD23RoundRect,0.200000X0.800000X-0.200000X0.800000X0.200000X-0.800000X0.200000X-0.800000X-0.200000X0*%
%ADD24RoundRect,0.218750X-0.256250X0.218750X-0.256250X-0.218750X0.256250X-0.218750X0.256250X0.218750X0*%
%ADD25R,0.900000X0.900000*%
%ADD26R,1.500000X0.900000*%
%ADD27R,0.900000X1.500000*%
G04 APERTURE END LIST*
D10*
%TO.C,R5*%
X156700000Y-123250000D03*
X157250000Y-123250000D03*
%TD*%
D11*
%TO.C,R2*%
X160635000Y-116280000D03*
X160085000Y-116280000D03*
%TD*%
D12*
%TO.C,JP8*%
X111650000Y-96400000D03*
X114750000Y-96400000D03*
%TD*%
D13*
%TO.C,C10*%
X150019000Y-131365000D03*
X150019000Y-131915000D03*
%TD*%
%TO.C,C9*%
X151035000Y-131365000D03*
X151035000Y-131915000D03*
%TD*%
D10*
%TO.C,R4*%
X158835000Y-123480000D03*
X159385000Y-123480000D03*
%TD*%
D14*
%TO.C,C5*%
X165985000Y-110880000D03*
X164335000Y-110880000D03*
%TD*%
D13*
%TO.C,C2*%
X156369000Y-129337000D03*
X156369000Y-129887000D03*
%TD*%
D15*
%TO.C,U4*%
X162010000Y-104030000D03*
X162010000Y-106330000D03*
D16*
X168310000Y-106330000D03*
D15*
X162010000Y-108630000D03*
%TD*%
D17*
%TO.C,C1*%
X129060000Y-129891000D03*
X129060000Y-129341000D03*
%TD*%
D12*
%TO.C,JP7*%
X111650000Y-99000000D03*
X114750000Y-99000000D03*
%TD*%
D18*
%TO.C,U3*%
X159810000Y-119330000D03*
X159810000Y-118830000D03*
D19*
X159772500Y-118330000D03*
D18*
X159810000Y-117830000D03*
X159810000Y-117330000D03*
X159035000Y-117330000D03*
X159035000Y-117830000D03*
D20*
X159010000Y-118330000D03*
D18*
X159035000Y-118830000D03*
X159035000Y-119330000D03*
%TD*%
D21*
%TO.C,J1*%
X161965000Y-121830000D03*
X161965000Y-121030000D03*
D22*
X161965000Y-119830000D03*
X161965000Y-118830000D03*
X161965000Y-118330000D03*
X161965000Y-117330000D03*
D21*
X161965000Y-116130000D03*
X161965000Y-115330000D03*
X161965000Y-115330000D03*
X161965000Y-116130000D03*
D22*
X161965000Y-116830000D03*
X161965000Y-117830000D03*
X161965000Y-119330000D03*
X161965000Y-120330000D03*
D21*
X161965000Y-121030000D03*
X161965000Y-121830000D03*
%TD*%
D10*
%TO.C,C4*%
X165598000Y-112467000D03*
X166148000Y-112467000D03*
%TD*%
D23*
%TO.C,SW1*%
X126460000Y-132080000D03*
X126460000Y-127880000D03*
%TD*%
D17*
%TO.C,R1*%
X149710000Y-129980000D03*
X149710000Y-129430000D03*
%TD*%
D14*
%TO.C,C7*%
X165835000Y-101680000D03*
X164185000Y-101680000D03*
%TD*%
D24*
%TO.C,D1*%
X157660000Y-125492500D03*
X157660000Y-127067500D03*
%TD*%
D23*
%TO.C,SW2*%
X153310000Y-132080000D03*
X153310000Y-127880000D03*
%TD*%
D25*
%TO.C,U6*%
X142414394Y-122180000D03*
X142410000Y-124980000D03*
X142410000Y-123580000D03*
X141014394Y-122180000D03*
X141010000Y-124980000D03*
X141010000Y-123580000D03*
X139614394Y-122180000D03*
X139610000Y-124980000D03*
X139610000Y-123580000D03*
D26*
X148260000Y-131300000D03*
X148260000Y-130030000D03*
X148260000Y-128760000D03*
X148260000Y-127490000D03*
X148260000Y-126220000D03*
X148260000Y-124950000D03*
X148260000Y-123680000D03*
X148260000Y-122410000D03*
X148260000Y-121140000D03*
X148260000Y-119870000D03*
X148260000Y-118600000D03*
X148260000Y-117330000D03*
X148260000Y-116060000D03*
X148260000Y-114790000D03*
D27*
X146495000Y-113540000D03*
X145225000Y-113540000D03*
X143955000Y-113540000D03*
X142685000Y-113540000D03*
X141415000Y-113540000D03*
X140145000Y-113540000D03*
X138875000Y-113540000D03*
X137605000Y-113540000D03*
X136335000Y-113540000D03*
X135065000Y-113540000D03*
X133795000Y-113540000D03*
X132525000Y-113540000D03*
D26*
X130760000Y-114790000D03*
X130760000Y-116060000D03*
X130760000Y-117330000D03*
X130760000Y-118600000D03*
X130760000Y-119870000D03*
X130760000Y-121140000D03*
X130760000Y-122410000D03*
X130760000Y-123680000D03*
X130760000Y-124950000D03*
X130760000Y-126220000D03*
X130760000Y-127490000D03*
X130760000Y-128760000D03*
X130760000Y-130030000D03*
X130760000Y-131300000D03*
%TD*%
D24*
%TO.C,D2*%
X155910000Y-125492500D03*
X155910000Y-127067500D03*
%TD*%
D11*
%TO.C,R3*%
X159785000Y-120280000D03*
X159235000Y-120280000D03*
%TD*%
M02*
