%TF.GenerationSoftware,KiCad,Pcbnew,8.0.3*%
%TF.CreationDate,2024-09-17T15:24:22+02:00*%
%TF.ProjectId,PCB,5043422e-6b69-4636-9164-5f7063625858,rev?*%
%TF.SameCoordinates,Original*%
%TF.FileFunction,Drillmap*%
%TF.FilePolarity,Positive*%
%FSLAX45Y45*%
G04 Gerber Fmt 4.5, Leading zero omitted, Abs format (unit mm)*
G04 Created by KiCad (PCBNEW 8.0.3) date 2024-09-17 15:24:22*
%MOMM*%
%LPD*%
G01*
G04 APERTURE LIST*
%ADD10C,0.050000*%
%ADD11C,0.200000*%
%ADD12C,0.100000*%
G04 APERTURE END LIST*
D10*
X16721000Y-13298000D02*
X11321000Y-13298000D01*
X16721000Y-7298000D02*
G75*
G02*
X17021000Y-7598000I0J-300000D01*
G01*
X11321000Y-7298000D02*
X16721000Y-7298000D01*
X11021000Y-7598000D02*
G75*
G02*
X11321000Y-7298000I300000J0D01*
G01*
X11321000Y-13298000D02*
G75*
G02*
X11021000Y-12998000I0J300000D01*
G01*
X17021000Y-7598000D02*
X17021000Y-12998000D01*
X17021000Y-12998000D02*
G75*
G02*
X16721000Y-13298000I-300000J0D01*
G01*
X11021000Y-12998000D02*
X11021000Y-7598000D01*
D11*
D12*
X13951000Y-12278000D02*
X13971000Y-12298000D01*
X13971000Y-12278000D02*
X13951000Y-12298000D01*
X13951000Y-12418000D02*
X13971000Y-12438000D01*
X13971000Y-12418000D02*
X13951000Y-12438000D01*
X14021000Y-12208000D02*
X14041000Y-12228000D01*
X14041000Y-12208000D02*
X14021000Y-12228000D01*
X14021000Y-12348000D02*
X14041000Y-12368000D01*
X14041000Y-12348000D02*
X14021000Y-12368000D01*
X14021000Y-12488000D02*
X14041000Y-12508000D01*
X14041000Y-12488000D02*
X14021000Y-12508000D01*
X14091000Y-12278000D02*
X14111000Y-12298000D01*
X14111000Y-12278000D02*
X14091000Y-12298000D01*
X14091000Y-12418000D02*
X14111000Y-12438000D01*
X14111000Y-12418000D02*
X14091000Y-12438000D01*
X14161000Y-12208000D02*
X14181000Y-12228000D01*
X14181000Y-12208000D02*
X14161000Y-12228000D01*
X14161000Y-12348000D02*
X14181000Y-12368000D01*
X14181000Y-12348000D02*
X14161000Y-12368000D01*
X14161000Y-12488000D02*
X14181000Y-12508000D01*
X14181000Y-12488000D02*
X14161000Y-12508000D01*
X14231000Y-12278000D02*
X14251000Y-12298000D01*
X14251000Y-12278000D02*
X14231000Y-12298000D01*
X14231000Y-12418000D02*
X14251000Y-12438000D01*
X14251000Y-12418000D02*
X14231000Y-12438000D01*
X11415000Y-10175000D02*
G75*
G02*
X11385000Y-10175000I-15000J0D01*
G01*
X11385000Y-10175000D02*
G75*
G02*
X11415000Y-10175000I15000J0D01*
G01*
X11554000Y-10087500D02*
G75*
G02*
X11524000Y-10087500I-15000J0D01*
G01*
X11524000Y-10087500D02*
G75*
G02*
X11554000Y-10087500I15000J0D01*
G01*
X11735000Y-11200000D02*
G75*
G02*
X11705000Y-11200000I-15000J0D01*
G01*
X11705000Y-11200000D02*
G75*
G02*
X11735000Y-11200000I15000J0D01*
G01*
X12515000Y-10075000D02*
G75*
G02*
X12485000Y-10075000I-15000J0D01*
G01*
X12485000Y-10075000D02*
G75*
G02*
X12515000Y-10075000I15000J0D01*
G01*
X12736000Y-12098000D02*
G75*
G02*
X12706000Y-12098000I-15000J0D01*
G01*
X12706000Y-12098000D02*
G75*
G02*
X12736000Y-12098000I15000J0D01*
G01*
X12875000Y-12540000D02*
G75*
G02*
X12845000Y-12540000I-15000J0D01*
G01*
X12845000Y-12540000D02*
G75*
G02*
X12875000Y-12540000I15000J0D01*
G01*
X12905000Y-11200000D02*
G75*
G02*
X12875000Y-11200000I-15000J0D01*
G01*
X12875000Y-11200000D02*
G75*
G02*
X12905000Y-11200000I15000J0D01*
G01*
X12935000Y-11900000D02*
G75*
G02*
X12905000Y-11900000I-15000J0D01*
G01*
X12905000Y-11900000D02*
G75*
G02*
X12935000Y-11900000I15000J0D01*
G01*
X12936000Y-12648000D02*
G75*
G02*
X12906000Y-12648000I-15000J0D01*
G01*
X12906000Y-12648000D02*
G75*
G02*
X12936000Y-12648000I15000J0D01*
G01*
X12965000Y-11600000D02*
G75*
G02*
X12935000Y-11600000I-15000J0D01*
G01*
X12935000Y-11600000D02*
G75*
G02*
X12965000Y-11600000I15000J0D01*
G01*
X13065000Y-10530000D02*
G75*
G02*
X13035000Y-10530000I-15000J0D01*
G01*
X13035000Y-10530000D02*
G75*
G02*
X13065000Y-10530000I15000J0D01*
G01*
X13140000Y-10250000D02*
G75*
G02*
X13110000Y-10250000I-15000J0D01*
G01*
X13110000Y-10250000D02*
G75*
G02*
X13140000Y-10250000I15000J0D01*
G01*
X13215000Y-11060000D02*
G75*
G02*
X13185000Y-11060000I-15000J0D01*
G01*
X13185000Y-11060000D02*
G75*
G02*
X13215000Y-11060000I15000J0D01*
G01*
X13265000Y-10910000D02*
G75*
G02*
X13235000Y-10910000I-15000J0D01*
G01*
X13235000Y-10910000D02*
G75*
G02*
X13265000Y-10910000I15000J0D01*
G01*
X13335000Y-11920000D02*
G75*
G02*
X13305000Y-11920000I-15000J0D01*
G01*
X13305000Y-11920000D02*
G75*
G02*
X13335000Y-11920000I15000J0D01*
G01*
X13440000Y-11150000D02*
G75*
G02*
X13410000Y-11150000I-15000J0D01*
G01*
X13410000Y-11150000D02*
G75*
G02*
X13440000Y-11150000I15000J0D01*
G01*
X13595000Y-11920000D02*
G75*
G02*
X13565000Y-11920000I-15000J0D01*
G01*
X13565000Y-11920000D02*
G75*
G02*
X13595000Y-11920000I15000J0D01*
G01*
X13615000Y-11200000D02*
G75*
G02*
X13585000Y-11200000I-15000J0D01*
G01*
X13585000Y-11200000D02*
G75*
G02*
X13615000Y-11200000I15000J0D01*
G01*
X13675000Y-11500000D02*
G75*
G02*
X13645000Y-11500000I-15000J0D01*
G01*
X13645000Y-11500000D02*
G75*
G02*
X13675000Y-11500000I15000J0D01*
G01*
X13695000Y-12023000D02*
G75*
G02*
X13665000Y-12023000I-15000J0D01*
G01*
X13665000Y-12023000D02*
G75*
G02*
X13695000Y-12023000I15000J0D01*
G01*
X13840000Y-11500000D02*
G75*
G02*
X13810000Y-11500000I-15000J0D01*
G01*
X13810000Y-11500000D02*
G75*
G02*
X13840000Y-11500000I15000J0D01*
G01*
X13935000Y-11700000D02*
G75*
G02*
X13905000Y-11700000I-15000J0D01*
G01*
X13905000Y-11700000D02*
G75*
G02*
X13935000Y-11700000I15000J0D01*
G01*
X14095000Y-11120000D02*
G75*
G02*
X14065000Y-11120000I-15000J0D01*
G01*
X14065000Y-11120000D02*
G75*
G02*
X14095000Y-11120000I15000J0D01*
G01*
X14136000Y-11598000D02*
G75*
G02*
X14106000Y-11598000I-15000J0D01*
G01*
X14106000Y-11598000D02*
G75*
G02*
X14136000Y-11598000I15000J0D01*
G01*
X14436000Y-11523000D02*
G75*
G02*
X14406000Y-11523000I-15000J0D01*
G01*
X14406000Y-11523000D02*
G75*
G02*
X14436000Y-11523000I15000J0D01*
G01*
X14436000Y-11723000D02*
G75*
G02*
X14406000Y-11723000I-15000J0D01*
G01*
X14406000Y-11723000D02*
G75*
G02*
X14436000Y-11723000I15000J0D01*
G01*
X14590000Y-11525000D02*
G75*
G02*
X14560000Y-11525000I-15000J0D01*
G01*
X14560000Y-11525000D02*
G75*
G02*
X14590000Y-11525000I15000J0D01*
G01*
X14636000Y-11668000D02*
G75*
G02*
X14606000Y-11668000I-15000J0D01*
G01*
X14606000Y-11668000D02*
G75*
G02*
X14636000Y-11668000I15000J0D01*
G01*
X15036000Y-11708000D02*
G75*
G02*
X15006000Y-11708000I-15000J0D01*
G01*
X15006000Y-11708000D02*
G75*
G02*
X15036000Y-11708000I15000J0D01*
G01*
X15736000Y-10898000D02*
G75*
G02*
X15706000Y-10898000I-15000J0D01*
G01*
X15706000Y-10898000D02*
G75*
G02*
X15736000Y-10898000I15000J0D01*
G01*
X15836000Y-9498000D02*
G75*
G02*
X15806000Y-9498000I-15000J0D01*
G01*
X15806000Y-9498000D02*
G75*
G02*
X15836000Y-9498000I15000J0D01*
G01*
X15986000Y-11048000D02*
G75*
G02*
X15956000Y-11048000I-15000J0D01*
G01*
X15956000Y-11048000D02*
G75*
G02*
X15986000Y-11048000I15000J0D01*
G01*
X16286000Y-10998000D02*
G75*
G02*
X16256000Y-10998000I-15000J0D01*
G01*
X16256000Y-10998000D02*
G75*
G02*
X16286000Y-10998000I15000J0D01*
G01*
X16356000Y-11778000D02*
G75*
G02*
X16326000Y-11778000I-15000J0D01*
G01*
X16326000Y-11778000D02*
G75*
G02*
X16356000Y-11778000I15000J0D01*
G01*
X16372073Y-11878926D02*
G75*
G02*
X16342073Y-11878926I-15000J0D01*
G01*
X16342073Y-11878926D02*
G75*
G02*
X16372073Y-11878926I15000J0D01*
G01*
X16575000Y-10420000D02*
G75*
G02*
X16545000Y-10420000I-15000J0D01*
G01*
X16545000Y-10420000D02*
G75*
G02*
X16575000Y-10420000I15000J0D01*
G01*
X16288000Y-11396000D02*
X16288000Y-11456000D01*
X16258000Y-11426000D02*
X16318000Y-11426000D01*
X16233000Y-11456000D02*
X16343000Y-11456000D01*
X16343000Y-11396000D02*
G75*
G02*
X16343000Y-11456000I0J-30000D01*
G01*
X16343000Y-11396000D02*
X16233000Y-11396000D01*
X16233000Y-11396000D02*
G75*
G03*
X16233000Y-11456000I0J-30000D01*
G01*
X16288000Y-12260000D02*
X16288000Y-12320000D01*
X16258000Y-12290000D02*
X16318000Y-12290000D01*
X16233000Y-12320000D02*
X16343000Y-12320000D01*
X16343000Y-12260000D02*
G75*
G02*
X16343000Y-12320000I0J-30000D01*
G01*
X16343000Y-12260000D02*
X16233000Y-12260000D01*
X16233000Y-12260000D02*
G75*
G03*
X16233000Y-12320000I0J-30000D01*
G01*
X16706000Y-11396000D02*
X16706000Y-11456000D01*
X16676000Y-11426000D02*
X16736000Y-11426000D01*
X16676000Y-11456000D02*
X16736000Y-11456000D01*
X16736000Y-11396000D02*
G75*
G02*
X16736000Y-11456000I0J-30000D01*
G01*
X16736000Y-11396000D02*
X16676000Y-11396000D01*
X16676000Y-11396000D02*
G75*
G03*
X16676000Y-11456000I0J-30000D01*
G01*
X16706000Y-12260000D02*
X16706000Y-12320000D01*
X16676000Y-12290000D02*
X16736000Y-12290000D01*
X16676000Y-12320000D02*
X16736000Y-12320000D01*
X16736000Y-12260000D02*
G75*
G02*
X16736000Y-12320000I0J-30000D01*
G01*
X16736000Y-12260000D02*
X16676000Y-12260000D01*
X16676000Y-12260000D02*
G75*
G03*
X16676000Y-12320000I0J-30000D01*
G01*
X11335356Y-8163356D02*
X11335356Y-8092644D01*
X11264644Y-8092644D01*
X11264644Y-8163356D01*
X11335356Y-8163356D01*
X11335356Y-8417356D02*
X11335356Y-8346644D01*
X11264644Y-8346644D01*
X11264644Y-8417356D01*
X11335356Y-8417356D01*
X11335356Y-8671356D02*
X11335356Y-8600644D01*
X11264644Y-8600644D01*
X11264644Y-8671356D01*
X11335356Y-8671356D01*
X11335356Y-8925356D02*
X11335356Y-8854644D01*
X11264644Y-8854644D01*
X11264644Y-8925356D01*
X11335356Y-8925356D01*
X11335356Y-9179356D02*
X11335356Y-9108644D01*
X11264644Y-9108644D01*
X11264644Y-9179356D01*
X11335356Y-9179356D01*
X11719356Y-10449356D02*
X11719356Y-10378644D01*
X11648644Y-10378644D01*
X11648644Y-10449356D01*
X11719356Y-10449356D01*
X11719356Y-10703356D02*
X11719356Y-10632644D01*
X11648644Y-10632644D01*
X11648644Y-10703356D01*
X11719356Y-10703356D01*
X11719356Y-10957356D02*
X11719356Y-10886644D01*
X11648644Y-10886644D01*
X11648644Y-10957356D01*
X11719356Y-10957356D01*
X11733356Y-12161356D02*
X11733356Y-12090644D01*
X11662644Y-12090644D01*
X11662644Y-12161356D01*
X11733356Y-12161356D01*
X11733356Y-12415356D02*
X11733356Y-12344644D01*
X11662644Y-12344644D01*
X11662644Y-12415356D01*
X11733356Y-12415356D01*
X11786356Y-7525356D02*
X11786356Y-7454644D01*
X11715644Y-7454644D01*
X11715644Y-7525356D01*
X11786356Y-7525356D01*
X11786356Y-7779356D02*
X11786356Y-7708644D01*
X11715644Y-7708644D01*
X11715644Y-7779356D01*
X11786356Y-7779356D01*
X11786356Y-8033356D02*
X11786356Y-7962644D01*
X11715644Y-7962644D01*
X11715644Y-8033356D01*
X11786356Y-8033356D01*
X11786356Y-8287356D02*
X11786356Y-8216644D01*
X11715644Y-8216644D01*
X11715644Y-8287356D01*
X11786356Y-8287356D01*
X11786356Y-8541356D02*
X11786356Y-8470644D01*
X11715644Y-8470644D01*
X11715644Y-8541356D01*
X11786356Y-8541356D01*
X11786356Y-8795356D02*
X11786356Y-8724644D01*
X11715644Y-8724644D01*
X11715644Y-8795356D01*
X11786356Y-8795356D01*
X11786356Y-9049356D02*
X11786356Y-8978644D01*
X11715644Y-8978644D01*
X11715644Y-9049356D01*
X11786356Y-9049356D01*
X11786356Y-9303356D02*
X11786356Y-9232644D01*
X11715644Y-9232644D01*
X11715644Y-9303356D01*
X11786356Y-9303356D01*
X11831356Y-9858356D02*
X11831356Y-9787644D01*
X11760644Y-9787644D01*
X11760644Y-9858356D01*
X11831356Y-9858356D01*
X11973356Y-10449356D02*
X11973356Y-10378644D01*
X11902644Y-10378644D01*
X11902644Y-10449356D01*
X11973356Y-10449356D01*
X11973356Y-10703356D02*
X11973356Y-10632644D01*
X11902644Y-10632644D01*
X11902644Y-10703356D01*
X11973356Y-10703356D01*
X11973356Y-10957356D02*
X11973356Y-10886644D01*
X11902644Y-10886644D01*
X11902644Y-10957356D01*
X11973356Y-10957356D01*
X11973356Y-11465356D02*
X11973356Y-11394644D01*
X11902644Y-11394644D01*
X11902644Y-11465356D01*
X11973356Y-11465356D01*
X11973356Y-11719356D02*
X11973356Y-11648644D01*
X11902644Y-11648644D01*
X11902644Y-11719356D01*
X11973356Y-11719356D01*
X11987356Y-12161356D02*
X11987356Y-12090644D01*
X11916644Y-12090644D01*
X11916644Y-12161356D01*
X11987356Y-12161356D01*
X11987356Y-12415356D02*
X11987356Y-12344644D01*
X11916644Y-12344644D01*
X11916644Y-12415356D01*
X11987356Y-12415356D01*
X12085356Y-9858356D02*
X12085356Y-9787644D01*
X12014644Y-9787644D01*
X12014644Y-9858356D01*
X12085356Y-9858356D01*
X12173588Y-7535356D02*
X12173588Y-7464644D01*
X12102877Y-7464644D01*
X12102877Y-7535356D01*
X12173588Y-7535356D01*
X12227356Y-10449356D02*
X12227356Y-10378644D01*
X12156644Y-10378644D01*
X12156644Y-10449356D01*
X12227356Y-10449356D01*
X12227356Y-10703356D02*
X12227356Y-10632644D01*
X12156644Y-10632644D01*
X12156644Y-10703356D01*
X12227356Y-10703356D01*
X12227356Y-10957356D02*
X12227356Y-10886644D01*
X12156644Y-10886644D01*
X12156644Y-10957356D01*
X12227356Y-10957356D01*
X12227356Y-11465356D02*
X12227356Y-11394644D01*
X12156644Y-11394644D01*
X12156644Y-11465356D01*
X12227356Y-11465356D01*
X12227356Y-11719356D02*
X12227356Y-11648644D01*
X12156644Y-11648644D01*
X12156644Y-11719356D01*
X12227356Y-11719356D01*
X12241356Y-12161356D02*
X12241356Y-12090644D01*
X12170644Y-12090644D01*
X12170644Y-12161356D01*
X12241356Y-12161356D01*
X12241356Y-12415356D02*
X12241356Y-12344644D01*
X12170644Y-12344644D01*
X12170644Y-12415356D01*
X12241356Y-12415356D01*
X12339356Y-9858356D02*
X12339356Y-9787644D01*
X12268644Y-9787644D01*
X12268644Y-9858356D01*
X12339356Y-9858356D01*
X12357856Y-9031356D02*
X12357856Y-8960644D01*
X12287144Y-8960644D01*
X12287144Y-9031356D01*
X12357856Y-9031356D01*
X12357856Y-9285356D02*
X12357856Y-9214644D01*
X12287144Y-9214644D01*
X12287144Y-9285356D01*
X12357856Y-9285356D01*
X12481356Y-10449356D02*
X12481356Y-10378644D01*
X12410644Y-10378644D01*
X12410644Y-10449356D01*
X12481356Y-10449356D01*
X12481356Y-10703356D02*
X12481356Y-10632644D01*
X12410644Y-10632644D01*
X12410644Y-10703356D01*
X12481356Y-10703356D01*
X12481356Y-10957356D02*
X12481356Y-10886644D01*
X12410644Y-10886644D01*
X12410644Y-10957356D01*
X12481356Y-10957356D01*
X12481356Y-11465356D02*
X12481356Y-11394644D01*
X12410644Y-11394644D01*
X12410644Y-11465356D01*
X12481356Y-11465356D01*
X12481356Y-11719356D02*
X12481356Y-11648644D01*
X12410644Y-11648644D01*
X12410644Y-11719356D01*
X12481356Y-11719356D01*
X12495356Y-12161356D02*
X12495356Y-12090644D01*
X12424644Y-12090644D01*
X12424644Y-12161356D01*
X12495356Y-12161356D01*
X12495356Y-12415356D02*
X12495356Y-12344644D01*
X12424644Y-12344644D01*
X12424644Y-12415356D01*
X12495356Y-12415356D01*
X12593356Y-9858356D02*
X12593356Y-9787644D01*
X12522644Y-9787644D01*
X12522644Y-9858356D01*
X12593356Y-9858356D01*
X12611856Y-9031356D02*
X12611856Y-8960644D01*
X12541144Y-8960644D01*
X12541144Y-9031356D01*
X12611856Y-9031356D01*
X12611856Y-9285356D02*
X12611856Y-9214644D01*
X12541144Y-9214644D01*
X12541144Y-9285356D01*
X12611856Y-9285356D01*
X12673588Y-7535356D02*
X12673588Y-7464644D01*
X12602877Y-7464644D01*
X12602877Y-7535356D01*
X12673588Y-7535356D01*
X12735356Y-10449356D02*
X12735356Y-10378644D01*
X12664644Y-10378644D01*
X12664644Y-10449356D01*
X12735356Y-10449356D01*
X12735356Y-10703356D02*
X12735356Y-10632644D01*
X12664644Y-10632644D01*
X12664644Y-10703356D01*
X12735356Y-10703356D01*
X12735356Y-10957356D02*
X12735356Y-10886644D01*
X12664644Y-10886644D01*
X12664644Y-10957356D01*
X12735356Y-10957356D01*
X12735356Y-11465356D02*
X12735356Y-11394644D01*
X12664644Y-11394644D01*
X12664644Y-11465356D01*
X12735356Y-11465356D01*
X12735356Y-11719356D02*
X12735356Y-11648644D01*
X12664644Y-11648644D01*
X12664644Y-11719356D01*
X12735356Y-11719356D01*
X13056356Y-7525356D02*
X13056356Y-7454644D01*
X12985644Y-7454644D01*
X12985644Y-7525356D01*
X13056356Y-7525356D01*
X13056356Y-7779356D02*
X13056356Y-7708644D01*
X12985644Y-7708644D01*
X12985644Y-7779356D01*
X13056356Y-7779356D01*
X13056356Y-8033356D02*
X13056356Y-7962644D01*
X12985644Y-7962644D01*
X12985644Y-8033356D01*
X13056356Y-8033356D01*
X13056356Y-8287356D02*
X13056356Y-8216644D01*
X12985644Y-8216644D01*
X12985644Y-8287356D01*
X13056356Y-8287356D01*
X13056356Y-8541356D02*
X13056356Y-8470644D01*
X12985644Y-8470644D01*
X12985644Y-8541356D01*
X13056356Y-8541356D01*
X13056356Y-8795356D02*
X13056356Y-8724644D01*
X12985644Y-8724644D01*
X12985644Y-8795356D01*
X13056356Y-8795356D01*
X13056356Y-9049356D02*
X13056356Y-8978644D01*
X12985644Y-8978644D01*
X12985644Y-9049356D01*
X13056356Y-9049356D01*
X13056356Y-9303356D02*
X13056356Y-9232644D01*
X12985644Y-9232644D01*
X12985644Y-9303356D01*
X13056356Y-9303356D01*
X13418856Y-7525356D02*
X13418856Y-7454644D01*
X13348144Y-7454644D01*
X13348144Y-7525356D01*
X13418856Y-7525356D01*
X13418856Y-7779356D02*
X13418856Y-7708644D01*
X13348144Y-7708644D01*
X13348144Y-7779356D01*
X13418856Y-7779356D01*
X13418856Y-8033356D02*
X13418856Y-7962644D01*
X13348144Y-7962644D01*
X13348144Y-8033356D01*
X13418856Y-8033356D01*
X13418856Y-8287356D02*
X13418856Y-8216644D01*
X13348144Y-8216644D01*
X13348144Y-8287356D01*
X13418856Y-8287356D01*
X13418856Y-8541356D02*
X13418856Y-8470644D01*
X13348144Y-8470644D01*
X13348144Y-8541356D01*
X13418856Y-8541356D01*
X13418856Y-8795356D02*
X13418856Y-8724644D01*
X13348144Y-8724644D01*
X13348144Y-8795356D01*
X13418856Y-8795356D01*
X13418856Y-9049356D02*
X13418856Y-8978644D01*
X13348144Y-8978644D01*
X13348144Y-9049356D01*
X13418856Y-9049356D01*
X13418856Y-9303356D02*
X13418856Y-9232644D01*
X13348144Y-9232644D01*
X13348144Y-9303356D01*
X13418856Y-9303356D01*
X13444356Y-9833356D02*
X13444356Y-9762644D01*
X13373644Y-9762644D01*
X13373644Y-9833356D01*
X13444356Y-9833356D01*
X13698356Y-9833356D02*
X13698356Y-9762644D01*
X13627644Y-9762644D01*
X13627644Y-9833356D01*
X13698356Y-9833356D01*
X13751356Y-10576356D02*
X13751356Y-10505644D01*
X13680644Y-10505644D01*
X13680644Y-10576356D01*
X13751356Y-10576356D01*
X13751356Y-10830356D02*
X13751356Y-10759644D01*
X13680644Y-10759644D01*
X13680644Y-10830356D01*
X13751356Y-10830356D01*
X13808588Y-7535356D02*
X13808588Y-7464644D01*
X13737877Y-7464644D01*
X13737877Y-7535356D01*
X13808588Y-7535356D01*
X13907856Y-8981356D02*
X13907856Y-8910644D01*
X13837144Y-8910644D01*
X13837144Y-8981356D01*
X13907856Y-8981356D01*
X13907856Y-9235356D02*
X13907856Y-9164644D01*
X13837144Y-9164644D01*
X13837144Y-9235356D01*
X13907856Y-9235356D01*
X13952356Y-9833356D02*
X13952356Y-9762644D01*
X13881644Y-9762644D01*
X13881644Y-9833356D01*
X13952356Y-9833356D01*
X14005356Y-10576356D02*
X14005356Y-10505644D01*
X13934644Y-10505644D01*
X13934644Y-10576356D01*
X14005356Y-10576356D01*
X14005356Y-10830356D02*
X14005356Y-10759644D01*
X13934644Y-10759644D01*
X13934644Y-10830356D01*
X14005356Y-10830356D01*
X14161856Y-8981356D02*
X14161856Y-8910644D01*
X14091144Y-8910644D01*
X14091144Y-8981356D01*
X14161856Y-8981356D01*
X14161856Y-9235356D02*
X14161856Y-9164644D01*
X14091144Y-9164644D01*
X14091144Y-9235356D01*
X14161856Y-9235356D01*
X14206356Y-9833356D02*
X14206356Y-9762644D01*
X14135644Y-9762644D01*
X14135644Y-9833356D01*
X14206356Y-9833356D01*
X14259356Y-10576356D02*
X14259356Y-10505644D01*
X14188644Y-10505644D01*
X14188644Y-10576356D01*
X14259356Y-10576356D01*
X14259356Y-10830356D02*
X14259356Y-10759644D01*
X14188644Y-10759644D01*
X14188644Y-10830356D01*
X14259356Y-10830356D01*
X14308588Y-7535356D02*
X14308588Y-7464644D01*
X14237877Y-7464644D01*
X14237877Y-7535356D01*
X14308588Y-7535356D01*
X14513356Y-10576356D02*
X14513356Y-10505644D01*
X14442644Y-10505644D01*
X14442644Y-10576356D01*
X14513356Y-10576356D01*
X14688856Y-7525356D02*
X14688856Y-7454644D01*
X14618144Y-7454644D01*
X14618144Y-7525356D01*
X14688856Y-7525356D01*
X14688856Y-7779356D02*
X14688856Y-7708644D01*
X14618144Y-7708644D01*
X14618144Y-7779356D01*
X14688856Y-7779356D01*
X14688856Y-8033356D02*
X14688856Y-7962644D01*
X14618144Y-7962644D01*
X14618144Y-8033356D01*
X14688856Y-8033356D01*
X14688856Y-8287356D02*
X14688856Y-8216644D01*
X14618144Y-8216644D01*
X14618144Y-8287356D01*
X14688856Y-8287356D01*
X14688856Y-8541356D02*
X14688856Y-8470644D01*
X14618144Y-8470644D01*
X14618144Y-8541356D01*
X14688856Y-8541356D01*
X14688856Y-8795356D02*
X14688856Y-8724644D01*
X14618144Y-8724644D01*
X14618144Y-8795356D01*
X14688856Y-8795356D01*
X14688856Y-9049356D02*
X14688856Y-8978644D01*
X14618144Y-8978644D01*
X14618144Y-9049356D01*
X14688856Y-9049356D01*
X14688856Y-9303356D02*
X14688856Y-9232644D01*
X14618144Y-9232644D01*
X14618144Y-9303356D01*
X14688856Y-9303356D01*
X15051356Y-7525356D02*
X15051356Y-7454644D01*
X14980644Y-7454644D01*
X14980644Y-7525356D01*
X15051356Y-7525356D01*
X15051356Y-7779356D02*
X15051356Y-7708644D01*
X14980644Y-7708644D01*
X14980644Y-7779356D01*
X15051356Y-7779356D01*
X15051356Y-8033356D02*
X15051356Y-7962644D01*
X14980644Y-7962644D01*
X14980644Y-8033356D01*
X15051356Y-8033356D01*
X15051356Y-8287356D02*
X15051356Y-8216644D01*
X14980644Y-8216644D01*
X14980644Y-8287356D01*
X15051356Y-8287356D01*
X15051356Y-8541356D02*
X15051356Y-8470644D01*
X14980644Y-8470644D01*
X14980644Y-8541356D01*
X15051356Y-8541356D01*
X15051356Y-8795356D02*
X15051356Y-8724644D01*
X14980644Y-8724644D01*
X14980644Y-8795356D01*
X15051356Y-8795356D01*
X15051356Y-9049356D02*
X15051356Y-8978644D01*
X14980644Y-8978644D01*
X14980644Y-9049356D01*
X15051356Y-9049356D01*
X15051356Y-9303356D02*
X15051356Y-9232644D01*
X14980644Y-9232644D01*
X14980644Y-9303356D01*
X15051356Y-9303356D01*
X15081356Y-9833356D02*
X15081356Y-9762644D01*
X15010644Y-9762644D01*
X15010644Y-9833356D01*
X15081356Y-9833356D01*
X15329356Y-11706856D02*
X15329356Y-11636144D01*
X15258644Y-11636144D01*
X15258644Y-11706856D01*
X15329356Y-11706856D01*
X15329356Y-11960856D02*
X15329356Y-11890144D01*
X15258644Y-11890144D01*
X15258644Y-11960856D01*
X15329356Y-11960856D01*
X15335356Y-9833356D02*
X15335356Y-9762644D01*
X15264644Y-9762644D01*
X15264644Y-9833356D01*
X15335356Y-9833356D01*
X15406356Y-10353356D02*
X15406356Y-10282644D01*
X15335644Y-10282644D01*
X15335644Y-10353356D01*
X15406356Y-10353356D01*
X15406356Y-11113356D02*
X15406356Y-11042644D01*
X15335644Y-11042644D01*
X15335644Y-11113356D01*
X15406356Y-11113356D01*
X15438588Y-7525356D02*
X15438588Y-7454644D01*
X15367877Y-7454644D01*
X15367877Y-7525356D01*
X15438588Y-7525356D01*
X15589356Y-9833356D02*
X15589356Y-9762644D01*
X15518644Y-9762644D01*
X15518644Y-9833356D01*
X15589356Y-9833356D01*
X15606356Y-11706856D02*
X15606356Y-11636144D01*
X15535644Y-11636144D01*
X15535644Y-11706856D01*
X15606356Y-11706856D01*
X15606356Y-11960856D02*
X15606356Y-11890144D01*
X15535644Y-11890144D01*
X15535644Y-11960856D01*
X15606356Y-11960856D01*
X15607856Y-9031356D02*
X15607856Y-8960644D01*
X15537144Y-8960644D01*
X15537144Y-9031356D01*
X15607856Y-9031356D01*
X15607856Y-9285356D02*
X15607856Y-9214644D01*
X15537144Y-9214644D01*
X15537144Y-9285356D01*
X15607856Y-9285356D01*
X15843356Y-9833356D02*
X15843356Y-9762644D01*
X15772644Y-9762644D01*
X15772644Y-9833356D01*
X15843356Y-9833356D01*
X15861856Y-9031356D02*
X15861856Y-8960644D01*
X15791144Y-8960644D01*
X15791144Y-9031356D01*
X15861856Y-9031356D01*
X15861856Y-9285356D02*
X15861856Y-9214644D01*
X15791144Y-9214644D01*
X15791144Y-9285356D01*
X15861856Y-9285356D01*
X15938588Y-7525356D02*
X15938588Y-7454644D01*
X15867877Y-7454644D01*
X15867877Y-7525356D01*
X15938588Y-7525356D01*
X16079856Y-12643356D02*
X16079856Y-12572644D01*
X16009144Y-12572644D01*
X16009144Y-12643356D01*
X16079856Y-12643356D01*
X16321356Y-7525356D02*
X16321356Y-7454644D01*
X16250644Y-7454644D01*
X16250644Y-7525356D01*
X16321356Y-7525356D01*
X16321356Y-7779356D02*
X16321356Y-7708644D01*
X16250644Y-7708644D01*
X16250644Y-7779356D01*
X16321356Y-7779356D01*
X16321356Y-8033356D02*
X16321356Y-7962644D01*
X16250644Y-7962644D01*
X16250644Y-8033356D01*
X16321356Y-8033356D01*
X16321356Y-8287356D02*
X16321356Y-8216644D01*
X16250644Y-8216644D01*
X16250644Y-8287356D01*
X16321356Y-8287356D01*
X16321356Y-8541356D02*
X16321356Y-8470644D01*
X16250644Y-8470644D01*
X16250644Y-8541356D01*
X16321356Y-8541356D01*
X16321356Y-8795356D02*
X16321356Y-8724644D01*
X16250644Y-8724644D01*
X16250644Y-8795356D01*
X16321356Y-8795356D01*
X16321356Y-9049356D02*
X16321356Y-8978644D01*
X16250644Y-8978644D01*
X16250644Y-9049356D01*
X16321356Y-9049356D01*
X16321356Y-9303356D02*
X16321356Y-9232644D01*
X16250644Y-9232644D01*
X16250644Y-9303356D01*
X16321356Y-9303356D01*
X16321356Y-9755356D02*
X16321356Y-9684644D01*
X16250644Y-9684644D01*
X16250644Y-9755356D01*
X16321356Y-9755356D01*
X16333856Y-12643356D02*
X16333856Y-12572644D01*
X16263144Y-12572644D01*
X16263144Y-12643356D01*
X16333856Y-12643356D01*
X16575356Y-9755356D02*
X16575356Y-9684644D01*
X16504644Y-9684644D01*
X16504644Y-9755356D01*
X16575356Y-9755356D01*
X16775356Y-8175356D02*
X16775356Y-8104644D01*
X16704644Y-8104644D01*
X16704644Y-8175356D01*
X16775356Y-8175356D01*
X16775356Y-8429356D02*
X16775356Y-8358644D01*
X16704644Y-8358644D01*
X16704644Y-8429356D01*
X16775356Y-8429356D01*
X16775356Y-8683356D02*
X16775356Y-8612644D01*
X16704644Y-8612644D01*
X16704644Y-8683356D01*
X16775356Y-8683356D01*
X16775356Y-8937356D02*
X16775356Y-8866644D01*
X16704644Y-8866644D01*
X16704644Y-8937356D01*
X16775356Y-8937356D01*
X16775356Y-9191356D02*
X16775356Y-9120644D01*
X16704644Y-9120644D01*
X16704644Y-9191356D01*
X16775356Y-9191356D01*
X16829356Y-9755356D02*
X16829356Y-9684644D01*
X16758644Y-9684644D01*
X16758644Y-9755356D01*
X16829356Y-9755356D01*
D11*
X11279277Y-13611984D02*
X11279277Y-13411984D01*
X11279277Y-13411984D02*
X11326896Y-13411984D01*
X11326896Y-13411984D02*
X11355467Y-13421508D01*
X11355467Y-13421508D02*
X11374515Y-13440555D01*
X11374515Y-13440555D02*
X11384039Y-13459603D01*
X11384039Y-13459603D02*
X11393562Y-13497698D01*
X11393562Y-13497698D02*
X11393562Y-13526269D01*
X11393562Y-13526269D02*
X11384039Y-13564365D01*
X11384039Y-13564365D02*
X11374515Y-13583412D01*
X11374515Y-13583412D02*
X11355467Y-13602460D01*
X11355467Y-13602460D02*
X11326896Y-13611984D01*
X11326896Y-13611984D02*
X11279277Y-13611984D01*
X11479277Y-13611984D02*
X11479277Y-13478650D01*
X11479277Y-13516746D02*
X11488801Y-13497698D01*
X11488801Y-13497698D02*
X11498324Y-13488174D01*
X11498324Y-13488174D02*
X11517372Y-13478650D01*
X11517372Y-13478650D02*
X11536420Y-13478650D01*
X11603086Y-13611984D02*
X11603086Y-13478650D01*
X11603086Y-13411984D02*
X11593562Y-13421508D01*
X11593562Y-13421508D02*
X11603086Y-13431031D01*
X11603086Y-13431031D02*
X11612610Y-13421508D01*
X11612610Y-13421508D02*
X11603086Y-13411984D01*
X11603086Y-13411984D02*
X11603086Y-13431031D01*
X11726896Y-13611984D02*
X11707848Y-13602460D01*
X11707848Y-13602460D02*
X11698324Y-13583412D01*
X11698324Y-13583412D02*
X11698324Y-13411984D01*
X11831658Y-13611984D02*
X11812610Y-13602460D01*
X11812610Y-13602460D02*
X11803086Y-13583412D01*
X11803086Y-13583412D02*
X11803086Y-13411984D01*
X12060229Y-13611984D02*
X12060229Y-13411984D01*
X12060229Y-13411984D02*
X12126896Y-13554841D01*
X12126896Y-13554841D02*
X12193562Y-13411984D01*
X12193562Y-13411984D02*
X12193562Y-13611984D01*
X12374515Y-13611984D02*
X12374515Y-13507222D01*
X12374515Y-13507222D02*
X12364991Y-13488174D01*
X12364991Y-13488174D02*
X12345943Y-13478650D01*
X12345943Y-13478650D02*
X12307848Y-13478650D01*
X12307848Y-13478650D02*
X12288801Y-13488174D01*
X12374515Y-13602460D02*
X12355467Y-13611984D01*
X12355467Y-13611984D02*
X12307848Y-13611984D01*
X12307848Y-13611984D02*
X12288801Y-13602460D01*
X12288801Y-13602460D02*
X12279277Y-13583412D01*
X12279277Y-13583412D02*
X12279277Y-13564365D01*
X12279277Y-13564365D02*
X12288801Y-13545317D01*
X12288801Y-13545317D02*
X12307848Y-13535793D01*
X12307848Y-13535793D02*
X12355467Y-13535793D01*
X12355467Y-13535793D02*
X12374515Y-13526269D01*
X12469753Y-13478650D02*
X12469753Y-13678650D01*
X12469753Y-13488174D02*
X12488801Y-13478650D01*
X12488801Y-13478650D02*
X12526896Y-13478650D01*
X12526896Y-13478650D02*
X12545943Y-13488174D01*
X12545943Y-13488174D02*
X12555467Y-13497698D01*
X12555467Y-13497698D02*
X12564991Y-13516746D01*
X12564991Y-13516746D02*
X12564991Y-13573888D01*
X12564991Y-13573888D02*
X12555467Y-13592936D01*
X12555467Y-13592936D02*
X12545943Y-13602460D01*
X12545943Y-13602460D02*
X12526896Y-13611984D01*
X12526896Y-13611984D02*
X12488801Y-13611984D01*
X12488801Y-13611984D02*
X12469753Y-13602460D01*
X12650705Y-13592936D02*
X12660229Y-13602460D01*
X12660229Y-13602460D02*
X12650705Y-13611984D01*
X12650705Y-13611984D02*
X12641182Y-13602460D01*
X12641182Y-13602460D02*
X12650705Y-13592936D01*
X12650705Y-13592936D02*
X12650705Y-13611984D01*
X12650705Y-13488174D02*
X12660229Y-13497698D01*
X12660229Y-13497698D02*
X12650705Y-13507222D01*
X12650705Y-13507222D02*
X12641182Y-13497698D01*
X12641182Y-13497698D02*
X12650705Y-13488174D01*
X12650705Y-13488174D02*
X12650705Y-13507222D01*
D12*
X10998500Y-13930500D02*
X11018500Y-13950500D01*
X11018500Y-13930500D02*
X10998500Y-13950500D01*
D11*
X11317372Y-13831984D02*
X11336420Y-13831984D01*
X11336420Y-13831984D02*
X11355467Y-13841508D01*
X11355467Y-13841508D02*
X11364991Y-13851031D01*
X11364991Y-13851031D02*
X11374515Y-13870079D01*
X11374515Y-13870079D02*
X11384039Y-13908174D01*
X11384039Y-13908174D02*
X11384039Y-13955793D01*
X11384039Y-13955793D02*
X11374515Y-13993888D01*
X11374515Y-13993888D02*
X11364991Y-14012936D01*
X11364991Y-14012936D02*
X11355467Y-14022460D01*
X11355467Y-14022460D02*
X11336420Y-14031984D01*
X11336420Y-14031984D02*
X11317372Y-14031984D01*
X11317372Y-14031984D02*
X11298324Y-14022460D01*
X11298324Y-14022460D02*
X11288801Y-14012936D01*
X11288801Y-14012936D02*
X11279277Y-13993888D01*
X11279277Y-13993888D02*
X11269753Y-13955793D01*
X11269753Y-13955793D02*
X11269753Y-13908174D01*
X11269753Y-13908174D02*
X11279277Y-13870079D01*
X11279277Y-13870079D02*
X11288801Y-13851031D01*
X11288801Y-13851031D02*
X11298324Y-13841508D01*
X11298324Y-13841508D02*
X11317372Y-13831984D01*
X11469753Y-14012936D02*
X11479277Y-14022460D01*
X11479277Y-14022460D02*
X11469753Y-14031984D01*
X11469753Y-14031984D02*
X11460229Y-14022460D01*
X11460229Y-14022460D02*
X11469753Y-14012936D01*
X11469753Y-14012936D02*
X11469753Y-14031984D01*
X11555467Y-13851031D02*
X11564991Y-13841508D01*
X11564991Y-13841508D02*
X11584039Y-13831984D01*
X11584039Y-13831984D02*
X11631658Y-13831984D01*
X11631658Y-13831984D02*
X11650705Y-13841508D01*
X11650705Y-13841508D02*
X11660229Y-13851031D01*
X11660229Y-13851031D02*
X11669753Y-13870079D01*
X11669753Y-13870079D02*
X11669753Y-13889127D01*
X11669753Y-13889127D02*
X11660229Y-13917698D01*
X11660229Y-13917698D02*
X11545943Y-14031984D01*
X11545943Y-14031984D02*
X11669753Y-14031984D01*
X11793562Y-13831984D02*
X11812610Y-13831984D01*
X11812610Y-13831984D02*
X11831658Y-13841508D01*
X11831658Y-13841508D02*
X11841182Y-13851031D01*
X11841182Y-13851031D02*
X11850705Y-13870079D01*
X11850705Y-13870079D02*
X11860229Y-13908174D01*
X11860229Y-13908174D02*
X11860229Y-13955793D01*
X11860229Y-13955793D02*
X11850705Y-13993888D01*
X11850705Y-13993888D02*
X11841182Y-14012936D01*
X11841182Y-14012936D02*
X11831658Y-14022460D01*
X11831658Y-14022460D02*
X11812610Y-14031984D01*
X11812610Y-14031984D02*
X11793562Y-14031984D01*
X11793562Y-14031984D02*
X11774515Y-14022460D01*
X11774515Y-14022460D02*
X11764991Y-14012936D01*
X11764991Y-14012936D02*
X11755467Y-13993888D01*
X11755467Y-13993888D02*
X11745943Y-13955793D01*
X11745943Y-13955793D02*
X11745943Y-13908174D01*
X11745943Y-13908174D02*
X11755467Y-13870079D01*
X11755467Y-13870079D02*
X11764991Y-13851031D01*
X11764991Y-13851031D02*
X11774515Y-13841508D01*
X11774515Y-13841508D02*
X11793562Y-13831984D01*
X11984039Y-13831984D02*
X12003086Y-13831984D01*
X12003086Y-13831984D02*
X12022134Y-13841508D01*
X12022134Y-13841508D02*
X12031658Y-13851031D01*
X12031658Y-13851031D02*
X12041182Y-13870079D01*
X12041182Y-13870079D02*
X12050705Y-13908174D01*
X12050705Y-13908174D02*
X12050705Y-13955793D01*
X12050705Y-13955793D02*
X12041182Y-13993888D01*
X12041182Y-13993888D02*
X12031658Y-14012936D01*
X12031658Y-14012936D02*
X12022134Y-14022460D01*
X12022134Y-14022460D02*
X12003086Y-14031984D01*
X12003086Y-14031984D02*
X11984039Y-14031984D01*
X11984039Y-14031984D02*
X11964991Y-14022460D01*
X11964991Y-14022460D02*
X11955467Y-14012936D01*
X11955467Y-14012936D02*
X11945943Y-13993888D01*
X11945943Y-13993888D02*
X11936420Y-13955793D01*
X11936420Y-13955793D02*
X11936420Y-13908174D01*
X11936420Y-13908174D02*
X11945943Y-13870079D01*
X11945943Y-13870079D02*
X11955467Y-13851031D01*
X11955467Y-13851031D02*
X11964991Y-13841508D01*
X11964991Y-13841508D02*
X11984039Y-13831984D01*
X12136420Y-14031984D02*
X12136420Y-13898650D01*
X12136420Y-13917698D02*
X12145943Y-13908174D01*
X12145943Y-13908174D02*
X12164991Y-13898650D01*
X12164991Y-13898650D02*
X12193563Y-13898650D01*
X12193563Y-13898650D02*
X12212610Y-13908174D01*
X12212610Y-13908174D02*
X12222134Y-13927222D01*
X12222134Y-13927222D02*
X12222134Y-14031984D01*
X12222134Y-13927222D02*
X12231658Y-13908174D01*
X12231658Y-13908174D02*
X12250705Y-13898650D01*
X12250705Y-13898650D02*
X12279277Y-13898650D01*
X12279277Y-13898650D02*
X12298324Y-13908174D01*
X12298324Y-13908174D02*
X12307848Y-13927222D01*
X12307848Y-13927222D02*
X12307848Y-14031984D01*
X12403086Y-14031984D02*
X12403086Y-13898650D01*
X12403086Y-13917698D02*
X12412610Y-13908174D01*
X12412610Y-13908174D02*
X12431658Y-13898650D01*
X12431658Y-13898650D02*
X12460229Y-13898650D01*
X12460229Y-13898650D02*
X12479277Y-13908174D01*
X12479277Y-13908174D02*
X12488801Y-13927222D01*
X12488801Y-13927222D02*
X12488801Y-14031984D01*
X12488801Y-13927222D02*
X12498324Y-13908174D01*
X12498324Y-13908174D02*
X12517372Y-13898650D01*
X12517372Y-13898650D02*
X12545943Y-13898650D01*
X12545943Y-13898650D02*
X12564991Y-13908174D01*
X12564991Y-13908174D02*
X12574515Y-13927222D01*
X12574515Y-13927222D02*
X12574515Y-14031984D01*
X12964991Y-13822460D02*
X12793563Y-14079603D01*
X13222134Y-13831984D02*
X13241182Y-13831984D01*
X13241182Y-13831984D02*
X13260229Y-13841508D01*
X13260229Y-13841508D02*
X13269753Y-13851031D01*
X13269753Y-13851031D02*
X13279277Y-13870079D01*
X13279277Y-13870079D02*
X13288801Y-13908174D01*
X13288801Y-13908174D02*
X13288801Y-13955793D01*
X13288801Y-13955793D02*
X13279277Y-13993888D01*
X13279277Y-13993888D02*
X13269753Y-14012936D01*
X13269753Y-14012936D02*
X13260229Y-14022460D01*
X13260229Y-14022460D02*
X13241182Y-14031984D01*
X13241182Y-14031984D02*
X13222134Y-14031984D01*
X13222134Y-14031984D02*
X13203086Y-14022460D01*
X13203086Y-14022460D02*
X13193563Y-14012936D01*
X13193563Y-14012936D02*
X13184039Y-13993888D01*
X13184039Y-13993888D02*
X13174515Y-13955793D01*
X13174515Y-13955793D02*
X13174515Y-13908174D01*
X13174515Y-13908174D02*
X13184039Y-13870079D01*
X13184039Y-13870079D02*
X13193563Y-13851031D01*
X13193563Y-13851031D02*
X13203086Y-13841508D01*
X13203086Y-13841508D02*
X13222134Y-13831984D01*
X13374515Y-14012936D02*
X13384039Y-14022460D01*
X13384039Y-14022460D02*
X13374515Y-14031984D01*
X13374515Y-14031984D02*
X13364991Y-14022460D01*
X13364991Y-14022460D02*
X13374515Y-14012936D01*
X13374515Y-14012936D02*
X13374515Y-14031984D01*
X13507848Y-13831984D02*
X13526896Y-13831984D01*
X13526896Y-13831984D02*
X13545944Y-13841508D01*
X13545944Y-13841508D02*
X13555467Y-13851031D01*
X13555467Y-13851031D02*
X13564991Y-13870079D01*
X13564991Y-13870079D02*
X13574515Y-13908174D01*
X13574515Y-13908174D02*
X13574515Y-13955793D01*
X13574515Y-13955793D02*
X13564991Y-13993888D01*
X13564991Y-13993888D02*
X13555467Y-14012936D01*
X13555467Y-14012936D02*
X13545944Y-14022460D01*
X13545944Y-14022460D02*
X13526896Y-14031984D01*
X13526896Y-14031984D02*
X13507848Y-14031984D01*
X13507848Y-14031984D02*
X13488801Y-14022460D01*
X13488801Y-14022460D02*
X13479277Y-14012936D01*
X13479277Y-14012936D02*
X13469753Y-13993888D01*
X13469753Y-13993888D02*
X13460229Y-13955793D01*
X13460229Y-13955793D02*
X13460229Y-13908174D01*
X13460229Y-13908174D02*
X13469753Y-13870079D01*
X13469753Y-13870079D02*
X13479277Y-13851031D01*
X13479277Y-13851031D02*
X13488801Y-13841508D01*
X13488801Y-13841508D02*
X13507848Y-13831984D01*
X13698325Y-13831984D02*
X13717372Y-13831984D01*
X13717372Y-13831984D02*
X13736420Y-13841508D01*
X13736420Y-13841508D02*
X13745944Y-13851031D01*
X13745944Y-13851031D02*
X13755467Y-13870079D01*
X13755467Y-13870079D02*
X13764991Y-13908174D01*
X13764991Y-13908174D02*
X13764991Y-13955793D01*
X13764991Y-13955793D02*
X13755467Y-13993888D01*
X13755467Y-13993888D02*
X13745944Y-14012936D01*
X13745944Y-14012936D02*
X13736420Y-14022460D01*
X13736420Y-14022460D02*
X13717372Y-14031984D01*
X13717372Y-14031984D02*
X13698325Y-14031984D01*
X13698325Y-14031984D02*
X13679277Y-14022460D01*
X13679277Y-14022460D02*
X13669753Y-14012936D01*
X13669753Y-14012936D02*
X13660229Y-13993888D01*
X13660229Y-13993888D02*
X13650706Y-13955793D01*
X13650706Y-13955793D02*
X13650706Y-13908174D01*
X13650706Y-13908174D02*
X13660229Y-13870079D01*
X13660229Y-13870079D02*
X13669753Y-13851031D01*
X13669753Y-13851031D02*
X13679277Y-13841508D01*
X13679277Y-13841508D02*
X13698325Y-13831984D01*
X13831658Y-13831984D02*
X13964991Y-13831984D01*
X13964991Y-13831984D02*
X13879277Y-14031984D01*
X14050706Y-14031984D02*
X14088801Y-14031984D01*
X14088801Y-14031984D02*
X14107848Y-14022460D01*
X14107848Y-14022460D02*
X14117372Y-14012936D01*
X14117372Y-14012936D02*
X14136420Y-13984365D01*
X14136420Y-13984365D02*
X14145944Y-13946269D01*
X14145944Y-13946269D02*
X14145944Y-13870079D01*
X14145944Y-13870079D02*
X14136420Y-13851031D01*
X14136420Y-13851031D02*
X14126896Y-13841508D01*
X14126896Y-13841508D02*
X14107848Y-13831984D01*
X14107848Y-13831984D02*
X14069753Y-13831984D01*
X14069753Y-13831984D02*
X14050706Y-13841508D01*
X14050706Y-13841508D02*
X14041182Y-13851031D01*
X14041182Y-13851031D02*
X14031658Y-13870079D01*
X14031658Y-13870079D02*
X14031658Y-13917698D01*
X14031658Y-13917698D02*
X14041182Y-13936746D01*
X14041182Y-13936746D02*
X14050706Y-13946269D01*
X14050706Y-13946269D02*
X14069753Y-13955793D01*
X14069753Y-13955793D02*
X14107848Y-13955793D01*
X14107848Y-13955793D02*
X14126896Y-13946269D01*
X14126896Y-13946269D02*
X14136420Y-13936746D01*
X14136420Y-13936746D02*
X14145944Y-13917698D01*
X14222134Y-13831984D02*
X14222134Y-13870079D01*
X14298325Y-13831984D02*
X14298325Y-13870079D01*
X14593563Y-14108174D02*
X14584039Y-14098650D01*
X14584039Y-14098650D02*
X14564991Y-14070079D01*
X14564991Y-14070079D02*
X14555468Y-14051031D01*
X14555468Y-14051031D02*
X14545944Y-14022460D01*
X14545944Y-14022460D02*
X14536420Y-13974841D01*
X14536420Y-13974841D02*
X14536420Y-13936746D01*
X14536420Y-13936746D02*
X14545944Y-13889127D01*
X14545944Y-13889127D02*
X14555468Y-13860555D01*
X14555468Y-13860555D02*
X14564991Y-13841508D01*
X14564991Y-13841508D02*
X14584039Y-13812936D01*
X14584039Y-13812936D02*
X14593563Y-13803412D01*
X14774515Y-14031984D02*
X14660229Y-14031984D01*
X14717372Y-14031984D02*
X14717372Y-13831984D01*
X14717372Y-13831984D02*
X14698325Y-13860555D01*
X14698325Y-13860555D02*
X14679277Y-13879603D01*
X14679277Y-13879603D02*
X14660229Y-13889127D01*
X14850706Y-13851031D02*
X14860229Y-13841508D01*
X14860229Y-13841508D02*
X14879277Y-13831984D01*
X14879277Y-13831984D02*
X14926896Y-13831984D01*
X14926896Y-13831984D02*
X14945944Y-13841508D01*
X14945944Y-13841508D02*
X14955468Y-13851031D01*
X14955468Y-13851031D02*
X14964991Y-13870079D01*
X14964991Y-13870079D02*
X14964991Y-13889127D01*
X14964991Y-13889127D02*
X14955468Y-13917698D01*
X14955468Y-13917698D02*
X14841182Y-14031984D01*
X14841182Y-14031984D02*
X14964991Y-14031984D01*
X15203087Y-14031984D02*
X15203087Y-13831984D01*
X15288801Y-14031984D02*
X15288801Y-13927222D01*
X15288801Y-13927222D02*
X15279277Y-13908174D01*
X15279277Y-13908174D02*
X15260230Y-13898650D01*
X15260230Y-13898650D02*
X15231658Y-13898650D01*
X15231658Y-13898650D02*
X15212610Y-13908174D01*
X15212610Y-13908174D02*
X15203087Y-13917698D01*
X15412610Y-14031984D02*
X15393563Y-14022460D01*
X15393563Y-14022460D02*
X15384039Y-14012936D01*
X15384039Y-14012936D02*
X15374515Y-13993888D01*
X15374515Y-13993888D02*
X15374515Y-13936746D01*
X15374515Y-13936746D02*
X15384039Y-13917698D01*
X15384039Y-13917698D02*
X15393563Y-13908174D01*
X15393563Y-13908174D02*
X15412610Y-13898650D01*
X15412610Y-13898650D02*
X15441182Y-13898650D01*
X15441182Y-13898650D02*
X15460230Y-13908174D01*
X15460230Y-13908174D02*
X15469753Y-13917698D01*
X15469753Y-13917698D02*
X15479277Y-13936746D01*
X15479277Y-13936746D02*
X15479277Y-13993888D01*
X15479277Y-13993888D02*
X15469753Y-14012936D01*
X15469753Y-14012936D02*
X15460230Y-14022460D01*
X15460230Y-14022460D02*
X15441182Y-14031984D01*
X15441182Y-14031984D02*
X15412610Y-14031984D01*
X15593563Y-14031984D02*
X15574515Y-14022460D01*
X15574515Y-14022460D02*
X15564991Y-14003412D01*
X15564991Y-14003412D02*
X15564991Y-13831984D01*
X15745944Y-14022460D02*
X15726896Y-14031984D01*
X15726896Y-14031984D02*
X15688801Y-14031984D01*
X15688801Y-14031984D02*
X15669753Y-14022460D01*
X15669753Y-14022460D02*
X15660230Y-14003412D01*
X15660230Y-14003412D02*
X15660230Y-13927222D01*
X15660230Y-13927222D02*
X15669753Y-13908174D01*
X15669753Y-13908174D02*
X15688801Y-13898650D01*
X15688801Y-13898650D02*
X15726896Y-13898650D01*
X15726896Y-13898650D02*
X15745944Y-13908174D01*
X15745944Y-13908174D02*
X15755468Y-13927222D01*
X15755468Y-13927222D02*
X15755468Y-13946269D01*
X15755468Y-13946269D02*
X15660230Y-13965317D01*
X15831658Y-14022460D02*
X15850706Y-14031984D01*
X15850706Y-14031984D02*
X15888801Y-14031984D01*
X15888801Y-14031984D02*
X15907849Y-14022460D01*
X15907849Y-14022460D02*
X15917372Y-14003412D01*
X15917372Y-14003412D02*
X15917372Y-13993888D01*
X15917372Y-13993888D02*
X15907849Y-13974841D01*
X15907849Y-13974841D02*
X15888801Y-13965317D01*
X15888801Y-13965317D02*
X15860230Y-13965317D01*
X15860230Y-13965317D02*
X15841182Y-13955793D01*
X15841182Y-13955793D02*
X15831658Y-13936746D01*
X15831658Y-13936746D02*
X15831658Y-13927222D01*
X15831658Y-13927222D02*
X15841182Y-13908174D01*
X15841182Y-13908174D02*
X15860230Y-13898650D01*
X15860230Y-13898650D02*
X15888801Y-13898650D01*
X15888801Y-13898650D02*
X15907849Y-13908174D01*
X15984039Y-14108174D02*
X15993563Y-14098650D01*
X15993563Y-14098650D02*
X16012611Y-14070079D01*
X16012611Y-14070079D02*
X16022134Y-14051031D01*
X16022134Y-14051031D02*
X16031658Y-14022460D01*
X16031658Y-14022460D02*
X16041182Y-13974841D01*
X16041182Y-13974841D02*
X16041182Y-13936746D01*
X16041182Y-13936746D02*
X16031658Y-13889127D01*
X16031658Y-13889127D02*
X16022134Y-13860555D01*
X16022134Y-13860555D02*
X16012611Y-13841508D01*
X16012611Y-13841508D02*
X15993563Y-13812936D01*
X15993563Y-13812936D02*
X15984039Y-13803412D01*
D12*
X11018500Y-14204500D02*
G75*
G02*
X10988500Y-14204500I-15000J0D01*
G01*
X10988500Y-14204500D02*
G75*
G02*
X11018500Y-14204500I15000J0D01*
G01*
D11*
X11317372Y-14095984D02*
X11336420Y-14095984D01*
X11336420Y-14095984D02*
X11355467Y-14105508D01*
X11355467Y-14105508D02*
X11364991Y-14115031D01*
X11364991Y-14115031D02*
X11374515Y-14134079D01*
X11374515Y-14134079D02*
X11384039Y-14172174D01*
X11384039Y-14172174D02*
X11384039Y-14219793D01*
X11384039Y-14219793D02*
X11374515Y-14257888D01*
X11374515Y-14257888D02*
X11364991Y-14276936D01*
X11364991Y-14276936D02*
X11355467Y-14286460D01*
X11355467Y-14286460D02*
X11336420Y-14295984D01*
X11336420Y-14295984D02*
X11317372Y-14295984D01*
X11317372Y-14295984D02*
X11298324Y-14286460D01*
X11298324Y-14286460D02*
X11288801Y-14276936D01*
X11288801Y-14276936D02*
X11279277Y-14257888D01*
X11279277Y-14257888D02*
X11269753Y-14219793D01*
X11269753Y-14219793D02*
X11269753Y-14172174D01*
X11269753Y-14172174D02*
X11279277Y-14134079D01*
X11279277Y-14134079D02*
X11288801Y-14115031D01*
X11288801Y-14115031D02*
X11298324Y-14105508D01*
X11298324Y-14105508D02*
X11317372Y-14095984D01*
X11469753Y-14276936D02*
X11479277Y-14286460D01*
X11479277Y-14286460D02*
X11469753Y-14295984D01*
X11469753Y-14295984D02*
X11460229Y-14286460D01*
X11460229Y-14286460D02*
X11469753Y-14276936D01*
X11469753Y-14276936D02*
X11469753Y-14295984D01*
X11545943Y-14095984D02*
X11669753Y-14095984D01*
X11669753Y-14095984D02*
X11603086Y-14172174D01*
X11603086Y-14172174D02*
X11631658Y-14172174D01*
X11631658Y-14172174D02*
X11650705Y-14181698D01*
X11650705Y-14181698D02*
X11660229Y-14191222D01*
X11660229Y-14191222D02*
X11669753Y-14210269D01*
X11669753Y-14210269D02*
X11669753Y-14257888D01*
X11669753Y-14257888D02*
X11660229Y-14276936D01*
X11660229Y-14276936D02*
X11650705Y-14286460D01*
X11650705Y-14286460D02*
X11631658Y-14295984D01*
X11631658Y-14295984D02*
X11574515Y-14295984D01*
X11574515Y-14295984D02*
X11555467Y-14286460D01*
X11555467Y-14286460D02*
X11545943Y-14276936D01*
X11793562Y-14095984D02*
X11812610Y-14095984D01*
X11812610Y-14095984D02*
X11831658Y-14105508D01*
X11831658Y-14105508D02*
X11841182Y-14115031D01*
X11841182Y-14115031D02*
X11850705Y-14134079D01*
X11850705Y-14134079D02*
X11860229Y-14172174D01*
X11860229Y-14172174D02*
X11860229Y-14219793D01*
X11860229Y-14219793D02*
X11850705Y-14257888D01*
X11850705Y-14257888D02*
X11841182Y-14276936D01*
X11841182Y-14276936D02*
X11831658Y-14286460D01*
X11831658Y-14286460D02*
X11812610Y-14295984D01*
X11812610Y-14295984D02*
X11793562Y-14295984D01*
X11793562Y-14295984D02*
X11774515Y-14286460D01*
X11774515Y-14286460D02*
X11764991Y-14276936D01*
X11764991Y-14276936D02*
X11755467Y-14257888D01*
X11755467Y-14257888D02*
X11745943Y-14219793D01*
X11745943Y-14219793D02*
X11745943Y-14172174D01*
X11745943Y-14172174D02*
X11755467Y-14134079D01*
X11755467Y-14134079D02*
X11764991Y-14115031D01*
X11764991Y-14115031D02*
X11774515Y-14105508D01*
X11774515Y-14105508D02*
X11793562Y-14095984D01*
X11984039Y-14095984D02*
X12003086Y-14095984D01*
X12003086Y-14095984D02*
X12022134Y-14105508D01*
X12022134Y-14105508D02*
X12031658Y-14115031D01*
X12031658Y-14115031D02*
X12041182Y-14134079D01*
X12041182Y-14134079D02*
X12050705Y-14172174D01*
X12050705Y-14172174D02*
X12050705Y-14219793D01*
X12050705Y-14219793D02*
X12041182Y-14257888D01*
X12041182Y-14257888D02*
X12031658Y-14276936D01*
X12031658Y-14276936D02*
X12022134Y-14286460D01*
X12022134Y-14286460D02*
X12003086Y-14295984D01*
X12003086Y-14295984D02*
X11984039Y-14295984D01*
X11984039Y-14295984D02*
X11964991Y-14286460D01*
X11964991Y-14286460D02*
X11955467Y-14276936D01*
X11955467Y-14276936D02*
X11945943Y-14257888D01*
X11945943Y-14257888D02*
X11936420Y-14219793D01*
X11936420Y-14219793D02*
X11936420Y-14172174D01*
X11936420Y-14172174D02*
X11945943Y-14134079D01*
X11945943Y-14134079D02*
X11955467Y-14115031D01*
X11955467Y-14115031D02*
X11964991Y-14105508D01*
X11964991Y-14105508D02*
X11984039Y-14095984D01*
X12136420Y-14295984D02*
X12136420Y-14162650D01*
X12136420Y-14181698D02*
X12145943Y-14172174D01*
X12145943Y-14172174D02*
X12164991Y-14162650D01*
X12164991Y-14162650D02*
X12193563Y-14162650D01*
X12193563Y-14162650D02*
X12212610Y-14172174D01*
X12212610Y-14172174D02*
X12222134Y-14191222D01*
X12222134Y-14191222D02*
X12222134Y-14295984D01*
X12222134Y-14191222D02*
X12231658Y-14172174D01*
X12231658Y-14172174D02*
X12250705Y-14162650D01*
X12250705Y-14162650D02*
X12279277Y-14162650D01*
X12279277Y-14162650D02*
X12298324Y-14172174D01*
X12298324Y-14172174D02*
X12307848Y-14191222D01*
X12307848Y-14191222D02*
X12307848Y-14295984D01*
X12403086Y-14295984D02*
X12403086Y-14162650D01*
X12403086Y-14181698D02*
X12412610Y-14172174D01*
X12412610Y-14172174D02*
X12431658Y-14162650D01*
X12431658Y-14162650D02*
X12460229Y-14162650D01*
X12460229Y-14162650D02*
X12479277Y-14172174D01*
X12479277Y-14172174D02*
X12488801Y-14191222D01*
X12488801Y-14191222D02*
X12488801Y-14295984D01*
X12488801Y-14191222D02*
X12498324Y-14172174D01*
X12498324Y-14172174D02*
X12517372Y-14162650D01*
X12517372Y-14162650D02*
X12545943Y-14162650D01*
X12545943Y-14162650D02*
X12564991Y-14172174D01*
X12564991Y-14172174D02*
X12574515Y-14191222D01*
X12574515Y-14191222D02*
X12574515Y-14295984D01*
X12964991Y-14086460D02*
X12793563Y-14343603D01*
X13222134Y-14095984D02*
X13241182Y-14095984D01*
X13241182Y-14095984D02*
X13260229Y-14105508D01*
X13260229Y-14105508D02*
X13269753Y-14115031D01*
X13269753Y-14115031D02*
X13279277Y-14134079D01*
X13279277Y-14134079D02*
X13288801Y-14172174D01*
X13288801Y-14172174D02*
X13288801Y-14219793D01*
X13288801Y-14219793D02*
X13279277Y-14257888D01*
X13279277Y-14257888D02*
X13269753Y-14276936D01*
X13269753Y-14276936D02*
X13260229Y-14286460D01*
X13260229Y-14286460D02*
X13241182Y-14295984D01*
X13241182Y-14295984D02*
X13222134Y-14295984D01*
X13222134Y-14295984D02*
X13203086Y-14286460D01*
X13203086Y-14286460D02*
X13193563Y-14276936D01*
X13193563Y-14276936D02*
X13184039Y-14257888D01*
X13184039Y-14257888D02*
X13174515Y-14219793D01*
X13174515Y-14219793D02*
X13174515Y-14172174D01*
X13174515Y-14172174D02*
X13184039Y-14134079D01*
X13184039Y-14134079D02*
X13193563Y-14115031D01*
X13193563Y-14115031D02*
X13203086Y-14105508D01*
X13203086Y-14105508D02*
X13222134Y-14095984D01*
X13374515Y-14276936D02*
X13384039Y-14286460D01*
X13384039Y-14286460D02*
X13374515Y-14295984D01*
X13374515Y-14295984D02*
X13364991Y-14286460D01*
X13364991Y-14286460D02*
X13374515Y-14276936D01*
X13374515Y-14276936D02*
X13374515Y-14295984D01*
X13507848Y-14095984D02*
X13526896Y-14095984D01*
X13526896Y-14095984D02*
X13545944Y-14105508D01*
X13545944Y-14105508D02*
X13555467Y-14115031D01*
X13555467Y-14115031D02*
X13564991Y-14134079D01*
X13564991Y-14134079D02*
X13574515Y-14172174D01*
X13574515Y-14172174D02*
X13574515Y-14219793D01*
X13574515Y-14219793D02*
X13564991Y-14257888D01*
X13564991Y-14257888D02*
X13555467Y-14276936D01*
X13555467Y-14276936D02*
X13545944Y-14286460D01*
X13545944Y-14286460D02*
X13526896Y-14295984D01*
X13526896Y-14295984D02*
X13507848Y-14295984D01*
X13507848Y-14295984D02*
X13488801Y-14286460D01*
X13488801Y-14286460D02*
X13479277Y-14276936D01*
X13479277Y-14276936D02*
X13469753Y-14257888D01*
X13469753Y-14257888D02*
X13460229Y-14219793D01*
X13460229Y-14219793D02*
X13460229Y-14172174D01*
X13460229Y-14172174D02*
X13469753Y-14134079D01*
X13469753Y-14134079D02*
X13479277Y-14115031D01*
X13479277Y-14115031D02*
X13488801Y-14105508D01*
X13488801Y-14105508D02*
X13507848Y-14095984D01*
X13764991Y-14295984D02*
X13650706Y-14295984D01*
X13707848Y-14295984D02*
X13707848Y-14095984D01*
X13707848Y-14095984D02*
X13688801Y-14124555D01*
X13688801Y-14124555D02*
X13669753Y-14143603D01*
X13669753Y-14143603D02*
X13650706Y-14153127D01*
X13955467Y-14295984D02*
X13841182Y-14295984D01*
X13898325Y-14295984D02*
X13898325Y-14095984D01*
X13898325Y-14095984D02*
X13879277Y-14124555D01*
X13879277Y-14124555D02*
X13860229Y-14143603D01*
X13860229Y-14143603D02*
X13841182Y-14153127D01*
X14069753Y-14181698D02*
X14050706Y-14172174D01*
X14050706Y-14172174D02*
X14041182Y-14162650D01*
X14041182Y-14162650D02*
X14031658Y-14143603D01*
X14031658Y-14143603D02*
X14031658Y-14134079D01*
X14031658Y-14134079D02*
X14041182Y-14115031D01*
X14041182Y-14115031D02*
X14050706Y-14105508D01*
X14050706Y-14105508D02*
X14069753Y-14095984D01*
X14069753Y-14095984D02*
X14107848Y-14095984D01*
X14107848Y-14095984D02*
X14126896Y-14105508D01*
X14126896Y-14105508D02*
X14136420Y-14115031D01*
X14136420Y-14115031D02*
X14145944Y-14134079D01*
X14145944Y-14134079D02*
X14145944Y-14143603D01*
X14145944Y-14143603D02*
X14136420Y-14162650D01*
X14136420Y-14162650D02*
X14126896Y-14172174D01*
X14126896Y-14172174D02*
X14107848Y-14181698D01*
X14107848Y-14181698D02*
X14069753Y-14181698D01*
X14069753Y-14181698D02*
X14050706Y-14191222D01*
X14050706Y-14191222D02*
X14041182Y-14200746D01*
X14041182Y-14200746D02*
X14031658Y-14219793D01*
X14031658Y-14219793D02*
X14031658Y-14257888D01*
X14031658Y-14257888D02*
X14041182Y-14276936D01*
X14041182Y-14276936D02*
X14050706Y-14286460D01*
X14050706Y-14286460D02*
X14069753Y-14295984D01*
X14069753Y-14295984D02*
X14107848Y-14295984D01*
X14107848Y-14295984D02*
X14126896Y-14286460D01*
X14126896Y-14286460D02*
X14136420Y-14276936D01*
X14136420Y-14276936D02*
X14145944Y-14257888D01*
X14145944Y-14257888D02*
X14145944Y-14219793D01*
X14145944Y-14219793D02*
X14136420Y-14200746D01*
X14136420Y-14200746D02*
X14126896Y-14191222D01*
X14126896Y-14191222D02*
X14107848Y-14181698D01*
X14222134Y-14095984D02*
X14222134Y-14134079D01*
X14298325Y-14095984D02*
X14298325Y-14134079D01*
X14593563Y-14372174D02*
X14584039Y-14362650D01*
X14584039Y-14362650D02*
X14564991Y-14334079D01*
X14564991Y-14334079D02*
X14555468Y-14315031D01*
X14555468Y-14315031D02*
X14545944Y-14286460D01*
X14545944Y-14286460D02*
X14536420Y-14238841D01*
X14536420Y-14238841D02*
X14536420Y-14200746D01*
X14536420Y-14200746D02*
X14545944Y-14153127D01*
X14545944Y-14153127D02*
X14555468Y-14124555D01*
X14555468Y-14124555D02*
X14564991Y-14105508D01*
X14564991Y-14105508D02*
X14584039Y-14076936D01*
X14584039Y-14076936D02*
X14593563Y-14067412D01*
X14650706Y-14095984D02*
X14774515Y-14095984D01*
X14774515Y-14095984D02*
X14707848Y-14172174D01*
X14707848Y-14172174D02*
X14736420Y-14172174D01*
X14736420Y-14172174D02*
X14755468Y-14181698D01*
X14755468Y-14181698D02*
X14764991Y-14191222D01*
X14764991Y-14191222D02*
X14774515Y-14210269D01*
X14774515Y-14210269D02*
X14774515Y-14257888D01*
X14774515Y-14257888D02*
X14764991Y-14276936D01*
X14764991Y-14276936D02*
X14755468Y-14286460D01*
X14755468Y-14286460D02*
X14736420Y-14295984D01*
X14736420Y-14295984D02*
X14679277Y-14295984D01*
X14679277Y-14295984D02*
X14660229Y-14286460D01*
X14660229Y-14286460D02*
X14650706Y-14276936D01*
X14945944Y-14095984D02*
X14907848Y-14095984D01*
X14907848Y-14095984D02*
X14888801Y-14105508D01*
X14888801Y-14105508D02*
X14879277Y-14115031D01*
X14879277Y-14115031D02*
X14860229Y-14143603D01*
X14860229Y-14143603D02*
X14850706Y-14181698D01*
X14850706Y-14181698D02*
X14850706Y-14257888D01*
X14850706Y-14257888D02*
X14860229Y-14276936D01*
X14860229Y-14276936D02*
X14869753Y-14286460D01*
X14869753Y-14286460D02*
X14888801Y-14295984D01*
X14888801Y-14295984D02*
X14926896Y-14295984D01*
X14926896Y-14295984D02*
X14945944Y-14286460D01*
X14945944Y-14286460D02*
X14955468Y-14276936D01*
X14955468Y-14276936D02*
X14964991Y-14257888D01*
X14964991Y-14257888D02*
X14964991Y-14210269D01*
X14964991Y-14210269D02*
X14955468Y-14191222D01*
X14955468Y-14191222D02*
X14945944Y-14181698D01*
X14945944Y-14181698D02*
X14926896Y-14172174D01*
X14926896Y-14172174D02*
X14888801Y-14172174D01*
X14888801Y-14172174D02*
X14869753Y-14181698D01*
X14869753Y-14181698D02*
X14860229Y-14191222D01*
X14860229Y-14191222D02*
X14850706Y-14210269D01*
X15203087Y-14295984D02*
X15203087Y-14095984D01*
X15288801Y-14295984D02*
X15288801Y-14191222D01*
X15288801Y-14191222D02*
X15279277Y-14172174D01*
X15279277Y-14172174D02*
X15260230Y-14162650D01*
X15260230Y-14162650D02*
X15231658Y-14162650D01*
X15231658Y-14162650D02*
X15212610Y-14172174D01*
X15212610Y-14172174D02*
X15203087Y-14181698D01*
X15412610Y-14295984D02*
X15393563Y-14286460D01*
X15393563Y-14286460D02*
X15384039Y-14276936D01*
X15384039Y-14276936D02*
X15374515Y-14257888D01*
X15374515Y-14257888D02*
X15374515Y-14200746D01*
X15374515Y-14200746D02*
X15384039Y-14181698D01*
X15384039Y-14181698D02*
X15393563Y-14172174D01*
X15393563Y-14172174D02*
X15412610Y-14162650D01*
X15412610Y-14162650D02*
X15441182Y-14162650D01*
X15441182Y-14162650D02*
X15460230Y-14172174D01*
X15460230Y-14172174D02*
X15469753Y-14181698D01*
X15469753Y-14181698D02*
X15479277Y-14200746D01*
X15479277Y-14200746D02*
X15479277Y-14257888D01*
X15479277Y-14257888D02*
X15469753Y-14276936D01*
X15469753Y-14276936D02*
X15460230Y-14286460D01*
X15460230Y-14286460D02*
X15441182Y-14295984D01*
X15441182Y-14295984D02*
X15412610Y-14295984D01*
X15593563Y-14295984D02*
X15574515Y-14286460D01*
X15574515Y-14286460D02*
X15564991Y-14267412D01*
X15564991Y-14267412D02*
X15564991Y-14095984D01*
X15745944Y-14286460D02*
X15726896Y-14295984D01*
X15726896Y-14295984D02*
X15688801Y-14295984D01*
X15688801Y-14295984D02*
X15669753Y-14286460D01*
X15669753Y-14286460D02*
X15660230Y-14267412D01*
X15660230Y-14267412D02*
X15660230Y-14191222D01*
X15660230Y-14191222D02*
X15669753Y-14172174D01*
X15669753Y-14172174D02*
X15688801Y-14162650D01*
X15688801Y-14162650D02*
X15726896Y-14162650D01*
X15726896Y-14162650D02*
X15745944Y-14172174D01*
X15745944Y-14172174D02*
X15755468Y-14191222D01*
X15755468Y-14191222D02*
X15755468Y-14210269D01*
X15755468Y-14210269D02*
X15660230Y-14229317D01*
X15831658Y-14286460D02*
X15850706Y-14295984D01*
X15850706Y-14295984D02*
X15888801Y-14295984D01*
X15888801Y-14295984D02*
X15907849Y-14286460D01*
X15907849Y-14286460D02*
X15917372Y-14267412D01*
X15917372Y-14267412D02*
X15917372Y-14257888D01*
X15917372Y-14257888D02*
X15907849Y-14238841D01*
X15907849Y-14238841D02*
X15888801Y-14229317D01*
X15888801Y-14229317D02*
X15860230Y-14229317D01*
X15860230Y-14229317D02*
X15841182Y-14219793D01*
X15841182Y-14219793D02*
X15831658Y-14200746D01*
X15831658Y-14200746D02*
X15831658Y-14191222D01*
X15831658Y-14191222D02*
X15841182Y-14172174D01*
X15841182Y-14172174D02*
X15860230Y-14162650D01*
X15860230Y-14162650D02*
X15888801Y-14162650D01*
X15888801Y-14162650D02*
X15907849Y-14172174D01*
X15984039Y-14372174D02*
X15993563Y-14362650D01*
X15993563Y-14362650D02*
X16012611Y-14334079D01*
X16012611Y-14334079D02*
X16022134Y-14315031D01*
X16022134Y-14315031D02*
X16031658Y-14286460D01*
X16031658Y-14286460D02*
X16041182Y-14238841D01*
X16041182Y-14238841D02*
X16041182Y-14200746D01*
X16041182Y-14200746D02*
X16031658Y-14153127D01*
X16031658Y-14153127D02*
X16022134Y-14124555D01*
X16022134Y-14124555D02*
X16012611Y-14105508D01*
X16012611Y-14105508D02*
X15993563Y-14076936D01*
X15993563Y-14076936D02*
X15984039Y-14067412D01*
D12*
X10988500Y-14438500D02*
X10988500Y-14498500D01*
X10958500Y-14468500D02*
X11018500Y-14468500D01*
D11*
X11317372Y-14359984D02*
X11336420Y-14359984D01*
X11336420Y-14359984D02*
X11355467Y-14369508D01*
X11355467Y-14369508D02*
X11364991Y-14379031D01*
X11364991Y-14379031D02*
X11374515Y-14398079D01*
X11374515Y-14398079D02*
X11384039Y-14436174D01*
X11384039Y-14436174D02*
X11384039Y-14483793D01*
X11384039Y-14483793D02*
X11374515Y-14521888D01*
X11374515Y-14521888D02*
X11364991Y-14540936D01*
X11364991Y-14540936D02*
X11355467Y-14550460D01*
X11355467Y-14550460D02*
X11336420Y-14559984D01*
X11336420Y-14559984D02*
X11317372Y-14559984D01*
X11317372Y-14559984D02*
X11298324Y-14550460D01*
X11298324Y-14550460D02*
X11288801Y-14540936D01*
X11288801Y-14540936D02*
X11279277Y-14521888D01*
X11279277Y-14521888D02*
X11269753Y-14483793D01*
X11269753Y-14483793D02*
X11269753Y-14436174D01*
X11269753Y-14436174D02*
X11279277Y-14398079D01*
X11279277Y-14398079D02*
X11288801Y-14379031D01*
X11288801Y-14379031D02*
X11298324Y-14369508D01*
X11298324Y-14369508D02*
X11317372Y-14359984D01*
X11469753Y-14540936D02*
X11479277Y-14550460D01*
X11479277Y-14550460D02*
X11469753Y-14559984D01*
X11469753Y-14559984D02*
X11460229Y-14550460D01*
X11460229Y-14550460D02*
X11469753Y-14540936D01*
X11469753Y-14540936D02*
X11469753Y-14559984D01*
X11650705Y-14359984D02*
X11612610Y-14359984D01*
X11612610Y-14359984D02*
X11593562Y-14369508D01*
X11593562Y-14369508D02*
X11584039Y-14379031D01*
X11584039Y-14379031D02*
X11564991Y-14407603D01*
X11564991Y-14407603D02*
X11555467Y-14445698D01*
X11555467Y-14445698D02*
X11555467Y-14521888D01*
X11555467Y-14521888D02*
X11564991Y-14540936D01*
X11564991Y-14540936D02*
X11574515Y-14550460D01*
X11574515Y-14550460D02*
X11593562Y-14559984D01*
X11593562Y-14559984D02*
X11631658Y-14559984D01*
X11631658Y-14559984D02*
X11650705Y-14550460D01*
X11650705Y-14550460D02*
X11660229Y-14540936D01*
X11660229Y-14540936D02*
X11669753Y-14521888D01*
X11669753Y-14521888D02*
X11669753Y-14474269D01*
X11669753Y-14474269D02*
X11660229Y-14455222D01*
X11660229Y-14455222D02*
X11650705Y-14445698D01*
X11650705Y-14445698D02*
X11631658Y-14436174D01*
X11631658Y-14436174D02*
X11593562Y-14436174D01*
X11593562Y-14436174D02*
X11574515Y-14445698D01*
X11574515Y-14445698D02*
X11564991Y-14455222D01*
X11564991Y-14455222D02*
X11555467Y-14474269D01*
X11793562Y-14359984D02*
X11812610Y-14359984D01*
X11812610Y-14359984D02*
X11831658Y-14369508D01*
X11831658Y-14369508D02*
X11841182Y-14379031D01*
X11841182Y-14379031D02*
X11850705Y-14398079D01*
X11850705Y-14398079D02*
X11860229Y-14436174D01*
X11860229Y-14436174D02*
X11860229Y-14483793D01*
X11860229Y-14483793D02*
X11850705Y-14521888D01*
X11850705Y-14521888D02*
X11841182Y-14540936D01*
X11841182Y-14540936D02*
X11831658Y-14550460D01*
X11831658Y-14550460D02*
X11812610Y-14559984D01*
X11812610Y-14559984D02*
X11793562Y-14559984D01*
X11793562Y-14559984D02*
X11774515Y-14550460D01*
X11774515Y-14550460D02*
X11764991Y-14540936D01*
X11764991Y-14540936D02*
X11755467Y-14521888D01*
X11755467Y-14521888D02*
X11745943Y-14483793D01*
X11745943Y-14483793D02*
X11745943Y-14436174D01*
X11745943Y-14436174D02*
X11755467Y-14398079D01*
X11755467Y-14398079D02*
X11764991Y-14379031D01*
X11764991Y-14379031D02*
X11774515Y-14369508D01*
X11774515Y-14369508D02*
X11793562Y-14359984D01*
X11984039Y-14359984D02*
X12003086Y-14359984D01*
X12003086Y-14359984D02*
X12022134Y-14369508D01*
X12022134Y-14369508D02*
X12031658Y-14379031D01*
X12031658Y-14379031D02*
X12041182Y-14398079D01*
X12041182Y-14398079D02*
X12050705Y-14436174D01*
X12050705Y-14436174D02*
X12050705Y-14483793D01*
X12050705Y-14483793D02*
X12041182Y-14521888D01*
X12041182Y-14521888D02*
X12031658Y-14540936D01*
X12031658Y-14540936D02*
X12022134Y-14550460D01*
X12022134Y-14550460D02*
X12003086Y-14559984D01*
X12003086Y-14559984D02*
X11984039Y-14559984D01*
X11984039Y-14559984D02*
X11964991Y-14550460D01*
X11964991Y-14550460D02*
X11955467Y-14540936D01*
X11955467Y-14540936D02*
X11945943Y-14521888D01*
X11945943Y-14521888D02*
X11936420Y-14483793D01*
X11936420Y-14483793D02*
X11936420Y-14436174D01*
X11936420Y-14436174D02*
X11945943Y-14398079D01*
X11945943Y-14398079D02*
X11955467Y-14379031D01*
X11955467Y-14379031D02*
X11964991Y-14369508D01*
X11964991Y-14369508D02*
X11984039Y-14359984D01*
X12136420Y-14559984D02*
X12136420Y-14426650D01*
X12136420Y-14445698D02*
X12145943Y-14436174D01*
X12145943Y-14436174D02*
X12164991Y-14426650D01*
X12164991Y-14426650D02*
X12193563Y-14426650D01*
X12193563Y-14426650D02*
X12212610Y-14436174D01*
X12212610Y-14436174D02*
X12222134Y-14455222D01*
X12222134Y-14455222D02*
X12222134Y-14559984D01*
X12222134Y-14455222D02*
X12231658Y-14436174D01*
X12231658Y-14436174D02*
X12250705Y-14426650D01*
X12250705Y-14426650D02*
X12279277Y-14426650D01*
X12279277Y-14426650D02*
X12298324Y-14436174D01*
X12298324Y-14436174D02*
X12307848Y-14455222D01*
X12307848Y-14455222D02*
X12307848Y-14559984D01*
X12403086Y-14559984D02*
X12403086Y-14426650D01*
X12403086Y-14445698D02*
X12412610Y-14436174D01*
X12412610Y-14436174D02*
X12431658Y-14426650D01*
X12431658Y-14426650D02*
X12460229Y-14426650D01*
X12460229Y-14426650D02*
X12479277Y-14436174D01*
X12479277Y-14436174D02*
X12488801Y-14455222D01*
X12488801Y-14455222D02*
X12488801Y-14559984D01*
X12488801Y-14455222D02*
X12498324Y-14436174D01*
X12498324Y-14436174D02*
X12517372Y-14426650D01*
X12517372Y-14426650D02*
X12545943Y-14426650D01*
X12545943Y-14426650D02*
X12564991Y-14436174D01*
X12564991Y-14436174D02*
X12574515Y-14455222D01*
X12574515Y-14455222D02*
X12574515Y-14559984D01*
X12964991Y-14350460D02*
X12793563Y-14607603D01*
X13222134Y-14359984D02*
X13241182Y-14359984D01*
X13241182Y-14359984D02*
X13260229Y-14369508D01*
X13260229Y-14369508D02*
X13269753Y-14379031D01*
X13269753Y-14379031D02*
X13279277Y-14398079D01*
X13279277Y-14398079D02*
X13288801Y-14436174D01*
X13288801Y-14436174D02*
X13288801Y-14483793D01*
X13288801Y-14483793D02*
X13279277Y-14521888D01*
X13279277Y-14521888D02*
X13269753Y-14540936D01*
X13269753Y-14540936D02*
X13260229Y-14550460D01*
X13260229Y-14550460D02*
X13241182Y-14559984D01*
X13241182Y-14559984D02*
X13222134Y-14559984D01*
X13222134Y-14559984D02*
X13203086Y-14550460D01*
X13203086Y-14550460D02*
X13193563Y-14540936D01*
X13193563Y-14540936D02*
X13184039Y-14521888D01*
X13184039Y-14521888D02*
X13174515Y-14483793D01*
X13174515Y-14483793D02*
X13174515Y-14436174D01*
X13174515Y-14436174D02*
X13184039Y-14398079D01*
X13184039Y-14398079D02*
X13193563Y-14379031D01*
X13193563Y-14379031D02*
X13203086Y-14369508D01*
X13203086Y-14369508D02*
X13222134Y-14359984D01*
X13374515Y-14540936D02*
X13384039Y-14550460D01*
X13384039Y-14550460D02*
X13374515Y-14559984D01*
X13374515Y-14559984D02*
X13364991Y-14550460D01*
X13364991Y-14550460D02*
X13374515Y-14540936D01*
X13374515Y-14540936D02*
X13374515Y-14559984D01*
X13507848Y-14359984D02*
X13526896Y-14359984D01*
X13526896Y-14359984D02*
X13545944Y-14369508D01*
X13545944Y-14369508D02*
X13555467Y-14379031D01*
X13555467Y-14379031D02*
X13564991Y-14398079D01*
X13564991Y-14398079D02*
X13574515Y-14436174D01*
X13574515Y-14436174D02*
X13574515Y-14483793D01*
X13574515Y-14483793D02*
X13564991Y-14521888D01*
X13564991Y-14521888D02*
X13555467Y-14540936D01*
X13555467Y-14540936D02*
X13545944Y-14550460D01*
X13545944Y-14550460D02*
X13526896Y-14559984D01*
X13526896Y-14559984D02*
X13507848Y-14559984D01*
X13507848Y-14559984D02*
X13488801Y-14550460D01*
X13488801Y-14550460D02*
X13479277Y-14540936D01*
X13479277Y-14540936D02*
X13469753Y-14521888D01*
X13469753Y-14521888D02*
X13460229Y-14483793D01*
X13460229Y-14483793D02*
X13460229Y-14436174D01*
X13460229Y-14436174D02*
X13469753Y-14398079D01*
X13469753Y-14398079D02*
X13479277Y-14379031D01*
X13479277Y-14379031D02*
X13488801Y-14369508D01*
X13488801Y-14369508D02*
X13507848Y-14359984D01*
X13650706Y-14379031D02*
X13660229Y-14369508D01*
X13660229Y-14369508D02*
X13679277Y-14359984D01*
X13679277Y-14359984D02*
X13726896Y-14359984D01*
X13726896Y-14359984D02*
X13745944Y-14369508D01*
X13745944Y-14369508D02*
X13755467Y-14379031D01*
X13755467Y-14379031D02*
X13764991Y-14398079D01*
X13764991Y-14398079D02*
X13764991Y-14417127D01*
X13764991Y-14417127D02*
X13755467Y-14445698D01*
X13755467Y-14445698D02*
X13641182Y-14559984D01*
X13641182Y-14559984D02*
X13764991Y-14559984D01*
X13831658Y-14359984D02*
X13955467Y-14359984D01*
X13955467Y-14359984D02*
X13888801Y-14436174D01*
X13888801Y-14436174D02*
X13917372Y-14436174D01*
X13917372Y-14436174D02*
X13936420Y-14445698D01*
X13936420Y-14445698D02*
X13945944Y-14455222D01*
X13945944Y-14455222D02*
X13955467Y-14474269D01*
X13955467Y-14474269D02*
X13955467Y-14521888D01*
X13955467Y-14521888D02*
X13945944Y-14540936D01*
X13945944Y-14540936D02*
X13936420Y-14550460D01*
X13936420Y-14550460D02*
X13917372Y-14559984D01*
X13917372Y-14559984D02*
X13860229Y-14559984D01*
X13860229Y-14559984D02*
X13841182Y-14550460D01*
X13841182Y-14550460D02*
X13831658Y-14540936D01*
X14126896Y-14359984D02*
X14088801Y-14359984D01*
X14088801Y-14359984D02*
X14069753Y-14369508D01*
X14069753Y-14369508D02*
X14060229Y-14379031D01*
X14060229Y-14379031D02*
X14041182Y-14407603D01*
X14041182Y-14407603D02*
X14031658Y-14445698D01*
X14031658Y-14445698D02*
X14031658Y-14521888D01*
X14031658Y-14521888D02*
X14041182Y-14540936D01*
X14041182Y-14540936D02*
X14050706Y-14550460D01*
X14050706Y-14550460D02*
X14069753Y-14559984D01*
X14069753Y-14559984D02*
X14107848Y-14559984D01*
X14107848Y-14559984D02*
X14126896Y-14550460D01*
X14126896Y-14550460D02*
X14136420Y-14540936D01*
X14136420Y-14540936D02*
X14145944Y-14521888D01*
X14145944Y-14521888D02*
X14145944Y-14474269D01*
X14145944Y-14474269D02*
X14136420Y-14455222D01*
X14136420Y-14455222D02*
X14126896Y-14445698D01*
X14126896Y-14445698D02*
X14107848Y-14436174D01*
X14107848Y-14436174D02*
X14069753Y-14436174D01*
X14069753Y-14436174D02*
X14050706Y-14445698D01*
X14050706Y-14445698D02*
X14041182Y-14455222D01*
X14041182Y-14455222D02*
X14031658Y-14474269D01*
X14222134Y-14359984D02*
X14222134Y-14398079D01*
X14298325Y-14359984D02*
X14298325Y-14398079D01*
X14593563Y-14636174D02*
X14584039Y-14626650D01*
X14584039Y-14626650D02*
X14564991Y-14598079D01*
X14564991Y-14598079D02*
X14555468Y-14579031D01*
X14555468Y-14579031D02*
X14545944Y-14550460D01*
X14545944Y-14550460D02*
X14536420Y-14502841D01*
X14536420Y-14502841D02*
X14536420Y-14464746D01*
X14536420Y-14464746D02*
X14545944Y-14417127D01*
X14545944Y-14417127D02*
X14555468Y-14388555D01*
X14555468Y-14388555D02*
X14564991Y-14369508D01*
X14564991Y-14369508D02*
X14584039Y-14340936D01*
X14584039Y-14340936D02*
X14593563Y-14331412D01*
X14707848Y-14359984D02*
X14726896Y-14359984D01*
X14726896Y-14359984D02*
X14745944Y-14369508D01*
X14745944Y-14369508D02*
X14755468Y-14379031D01*
X14755468Y-14379031D02*
X14764991Y-14398079D01*
X14764991Y-14398079D02*
X14774515Y-14436174D01*
X14774515Y-14436174D02*
X14774515Y-14483793D01*
X14774515Y-14483793D02*
X14764991Y-14521888D01*
X14764991Y-14521888D02*
X14755468Y-14540936D01*
X14755468Y-14540936D02*
X14745944Y-14550460D01*
X14745944Y-14550460D02*
X14726896Y-14559984D01*
X14726896Y-14559984D02*
X14707848Y-14559984D01*
X14707848Y-14559984D02*
X14688801Y-14550460D01*
X14688801Y-14550460D02*
X14679277Y-14540936D01*
X14679277Y-14540936D02*
X14669753Y-14521888D01*
X14669753Y-14521888D02*
X14660229Y-14483793D01*
X14660229Y-14483793D02*
X14660229Y-14436174D01*
X14660229Y-14436174D02*
X14669753Y-14398079D01*
X14669753Y-14398079D02*
X14679277Y-14379031D01*
X14679277Y-14379031D02*
X14688801Y-14369508D01*
X14688801Y-14369508D02*
X14707848Y-14359984D01*
X15012610Y-14559984D02*
X15012610Y-14359984D01*
X15098325Y-14559984D02*
X15098325Y-14455222D01*
X15098325Y-14455222D02*
X15088801Y-14436174D01*
X15088801Y-14436174D02*
X15069753Y-14426650D01*
X15069753Y-14426650D02*
X15041182Y-14426650D01*
X15041182Y-14426650D02*
X15022134Y-14436174D01*
X15022134Y-14436174D02*
X15012610Y-14445698D01*
X15222134Y-14559984D02*
X15203087Y-14550460D01*
X15203087Y-14550460D02*
X15193563Y-14540936D01*
X15193563Y-14540936D02*
X15184039Y-14521888D01*
X15184039Y-14521888D02*
X15184039Y-14464746D01*
X15184039Y-14464746D02*
X15193563Y-14445698D01*
X15193563Y-14445698D02*
X15203087Y-14436174D01*
X15203087Y-14436174D02*
X15222134Y-14426650D01*
X15222134Y-14426650D02*
X15250706Y-14426650D01*
X15250706Y-14426650D02*
X15269753Y-14436174D01*
X15269753Y-14436174D02*
X15279277Y-14445698D01*
X15279277Y-14445698D02*
X15288801Y-14464746D01*
X15288801Y-14464746D02*
X15288801Y-14521888D01*
X15288801Y-14521888D02*
X15279277Y-14540936D01*
X15279277Y-14540936D02*
X15269753Y-14550460D01*
X15269753Y-14550460D02*
X15250706Y-14559984D01*
X15250706Y-14559984D02*
X15222134Y-14559984D01*
X15403087Y-14559984D02*
X15384039Y-14550460D01*
X15384039Y-14550460D02*
X15374515Y-14531412D01*
X15374515Y-14531412D02*
X15374515Y-14359984D01*
X15555468Y-14550460D02*
X15536420Y-14559984D01*
X15536420Y-14559984D02*
X15498325Y-14559984D01*
X15498325Y-14559984D02*
X15479277Y-14550460D01*
X15479277Y-14550460D02*
X15469753Y-14531412D01*
X15469753Y-14531412D02*
X15469753Y-14455222D01*
X15469753Y-14455222D02*
X15479277Y-14436174D01*
X15479277Y-14436174D02*
X15498325Y-14426650D01*
X15498325Y-14426650D02*
X15536420Y-14426650D01*
X15536420Y-14426650D02*
X15555468Y-14436174D01*
X15555468Y-14436174D02*
X15564991Y-14455222D01*
X15564991Y-14455222D02*
X15564991Y-14474269D01*
X15564991Y-14474269D02*
X15469753Y-14493317D01*
X15641182Y-14550460D02*
X15660230Y-14559984D01*
X15660230Y-14559984D02*
X15698325Y-14559984D01*
X15698325Y-14559984D02*
X15717372Y-14550460D01*
X15717372Y-14550460D02*
X15726896Y-14531412D01*
X15726896Y-14531412D02*
X15726896Y-14521888D01*
X15726896Y-14521888D02*
X15717372Y-14502841D01*
X15717372Y-14502841D02*
X15698325Y-14493317D01*
X15698325Y-14493317D02*
X15669753Y-14493317D01*
X15669753Y-14493317D02*
X15650706Y-14483793D01*
X15650706Y-14483793D02*
X15641182Y-14464746D01*
X15641182Y-14464746D02*
X15641182Y-14455222D01*
X15641182Y-14455222D02*
X15650706Y-14436174D01*
X15650706Y-14436174D02*
X15669753Y-14426650D01*
X15669753Y-14426650D02*
X15698325Y-14426650D01*
X15698325Y-14426650D02*
X15717372Y-14436174D01*
X15964992Y-14483793D02*
X16117373Y-14483793D01*
X16041182Y-14559984D02*
X16041182Y-14407603D01*
X16450706Y-14426650D02*
X16450706Y-14559984D01*
X16403087Y-14350460D02*
X16355468Y-14493317D01*
X16355468Y-14493317D02*
X16479277Y-14493317D01*
X16698325Y-14550460D02*
X16717373Y-14559984D01*
X16717373Y-14559984D02*
X16755468Y-14559984D01*
X16755468Y-14559984D02*
X16774515Y-14550460D01*
X16774515Y-14550460D02*
X16784039Y-14531412D01*
X16784039Y-14531412D02*
X16784039Y-14521888D01*
X16784039Y-14521888D02*
X16774515Y-14502841D01*
X16774515Y-14502841D02*
X16755468Y-14493317D01*
X16755468Y-14493317D02*
X16726896Y-14493317D01*
X16726896Y-14493317D02*
X16707849Y-14483793D01*
X16707849Y-14483793D02*
X16698325Y-14464746D01*
X16698325Y-14464746D02*
X16698325Y-14455222D01*
X16698325Y-14455222D02*
X16707849Y-14436174D01*
X16707849Y-14436174D02*
X16726896Y-14426650D01*
X16726896Y-14426650D02*
X16755468Y-14426650D01*
X16755468Y-14426650D02*
X16774515Y-14436174D01*
X16898325Y-14559984D02*
X16879277Y-14550460D01*
X16879277Y-14550460D02*
X16869754Y-14531412D01*
X16869754Y-14531412D02*
X16869754Y-14359984D01*
X17003087Y-14559984D02*
X16984039Y-14550460D01*
X16984039Y-14550460D02*
X16974516Y-14540936D01*
X16974516Y-14540936D02*
X16964992Y-14521888D01*
X16964992Y-14521888D02*
X16964992Y-14464746D01*
X16964992Y-14464746D02*
X16974516Y-14445698D01*
X16974516Y-14445698D02*
X16984039Y-14436174D01*
X16984039Y-14436174D02*
X17003087Y-14426650D01*
X17003087Y-14426650D02*
X17031658Y-14426650D01*
X17031658Y-14426650D02*
X17050706Y-14436174D01*
X17050706Y-14436174D02*
X17060230Y-14445698D01*
X17060230Y-14445698D02*
X17069754Y-14464746D01*
X17069754Y-14464746D02*
X17069754Y-14521888D01*
X17069754Y-14521888D02*
X17060230Y-14540936D01*
X17060230Y-14540936D02*
X17050706Y-14550460D01*
X17050706Y-14550460D02*
X17031658Y-14559984D01*
X17031658Y-14559984D02*
X17003087Y-14559984D01*
X17126897Y-14426650D02*
X17203087Y-14426650D01*
X17155468Y-14359984D02*
X17155468Y-14531412D01*
X17155468Y-14531412D02*
X17164992Y-14550460D01*
X17164992Y-14550460D02*
X17184039Y-14559984D01*
X17184039Y-14559984D02*
X17203087Y-14559984D01*
X17260230Y-14550460D02*
X17279277Y-14559984D01*
X17279277Y-14559984D02*
X17317373Y-14559984D01*
X17317373Y-14559984D02*
X17336420Y-14550460D01*
X17336420Y-14550460D02*
X17345944Y-14531412D01*
X17345944Y-14531412D02*
X17345944Y-14521888D01*
X17345944Y-14521888D02*
X17336420Y-14502841D01*
X17336420Y-14502841D02*
X17317373Y-14493317D01*
X17317373Y-14493317D02*
X17288801Y-14493317D01*
X17288801Y-14493317D02*
X17269754Y-14483793D01*
X17269754Y-14483793D02*
X17260230Y-14464746D01*
X17260230Y-14464746D02*
X17260230Y-14455222D01*
X17260230Y-14455222D02*
X17269754Y-14436174D01*
X17269754Y-14436174D02*
X17288801Y-14426650D01*
X17288801Y-14426650D02*
X17317373Y-14426650D01*
X17317373Y-14426650D02*
X17336420Y-14436174D01*
X17412611Y-14636174D02*
X17422135Y-14626650D01*
X17422135Y-14626650D02*
X17441182Y-14598079D01*
X17441182Y-14598079D02*
X17450706Y-14579031D01*
X17450706Y-14579031D02*
X17460230Y-14550460D01*
X17460230Y-14550460D02*
X17469754Y-14502841D01*
X17469754Y-14502841D02*
X17469754Y-14464746D01*
X17469754Y-14464746D02*
X17460230Y-14417127D01*
X17460230Y-14417127D02*
X17450706Y-14388555D01*
X17450706Y-14388555D02*
X17441182Y-14369508D01*
X17441182Y-14369508D02*
X17422135Y-14340936D01*
X17422135Y-14340936D02*
X17412611Y-14331412D01*
D12*
X11003856Y-14767856D02*
X11003856Y-14697144D01*
X10933144Y-14697144D01*
X10933144Y-14767856D01*
X11003856Y-14767856D01*
D11*
X11384039Y-14823984D02*
X11269753Y-14823984D01*
X11326896Y-14823984D02*
X11326896Y-14623984D01*
X11326896Y-14623984D02*
X11307848Y-14652555D01*
X11307848Y-14652555D02*
X11288801Y-14671603D01*
X11288801Y-14671603D02*
X11269753Y-14681127D01*
X11469753Y-14804936D02*
X11479277Y-14814460D01*
X11479277Y-14814460D02*
X11469753Y-14823984D01*
X11469753Y-14823984D02*
X11460229Y-14814460D01*
X11460229Y-14814460D02*
X11469753Y-14804936D01*
X11469753Y-14804936D02*
X11469753Y-14823984D01*
X11603086Y-14623984D02*
X11622134Y-14623984D01*
X11622134Y-14623984D02*
X11641182Y-14633508D01*
X11641182Y-14633508D02*
X11650705Y-14643031D01*
X11650705Y-14643031D02*
X11660229Y-14662079D01*
X11660229Y-14662079D02*
X11669753Y-14700174D01*
X11669753Y-14700174D02*
X11669753Y-14747793D01*
X11669753Y-14747793D02*
X11660229Y-14785888D01*
X11660229Y-14785888D02*
X11650705Y-14804936D01*
X11650705Y-14804936D02*
X11641182Y-14814460D01*
X11641182Y-14814460D02*
X11622134Y-14823984D01*
X11622134Y-14823984D02*
X11603086Y-14823984D01*
X11603086Y-14823984D02*
X11584039Y-14814460D01*
X11584039Y-14814460D02*
X11574515Y-14804936D01*
X11574515Y-14804936D02*
X11564991Y-14785888D01*
X11564991Y-14785888D02*
X11555467Y-14747793D01*
X11555467Y-14747793D02*
X11555467Y-14700174D01*
X11555467Y-14700174D02*
X11564991Y-14662079D01*
X11564991Y-14662079D02*
X11574515Y-14643031D01*
X11574515Y-14643031D02*
X11584039Y-14633508D01*
X11584039Y-14633508D02*
X11603086Y-14623984D01*
X11793562Y-14623984D02*
X11812610Y-14623984D01*
X11812610Y-14623984D02*
X11831658Y-14633508D01*
X11831658Y-14633508D02*
X11841182Y-14643031D01*
X11841182Y-14643031D02*
X11850705Y-14662079D01*
X11850705Y-14662079D02*
X11860229Y-14700174D01*
X11860229Y-14700174D02*
X11860229Y-14747793D01*
X11860229Y-14747793D02*
X11850705Y-14785888D01*
X11850705Y-14785888D02*
X11841182Y-14804936D01*
X11841182Y-14804936D02*
X11831658Y-14814460D01*
X11831658Y-14814460D02*
X11812610Y-14823984D01*
X11812610Y-14823984D02*
X11793562Y-14823984D01*
X11793562Y-14823984D02*
X11774515Y-14814460D01*
X11774515Y-14814460D02*
X11764991Y-14804936D01*
X11764991Y-14804936D02*
X11755467Y-14785888D01*
X11755467Y-14785888D02*
X11745943Y-14747793D01*
X11745943Y-14747793D02*
X11745943Y-14700174D01*
X11745943Y-14700174D02*
X11755467Y-14662079D01*
X11755467Y-14662079D02*
X11764991Y-14643031D01*
X11764991Y-14643031D02*
X11774515Y-14633508D01*
X11774515Y-14633508D02*
X11793562Y-14623984D01*
X11984039Y-14623984D02*
X12003086Y-14623984D01*
X12003086Y-14623984D02*
X12022134Y-14633508D01*
X12022134Y-14633508D02*
X12031658Y-14643031D01*
X12031658Y-14643031D02*
X12041182Y-14662079D01*
X12041182Y-14662079D02*
X12050705Y-14700174D01*
X12050705Y-14700174D02*
X12050705Y-14747793D01*
X12050705Y-14747793D02*
X12041182Y-14785888D01*
X12041182Y-14785888D02*
X12031658Y-14804936D01*
X12031658Y-14804936D02*
X12022134Y-14814460D01*
X12022134Y-14814460D02*
X12003086Y-14823984D01*
X12003086Y-14823984D02*
X11984039Y-14823984D01*
X11984039Y-14823984D02*
X11964991Y-14814460D01*
X11964991Y-14814460D02*
X11955467Y-14804936D01*
X11955467Y-14804936D02*
X11945943Y-14785888D01*
X11945943Y-14785888D02*
X11936420Y-14747793D01*
X11936420Y-14747793D02*
X11936420Y-14700174D01*
X11936420Y-14700174D02*
X11945943Y-14662079D01*
X11945943Y-14662079D02*
X11955467Y-14643031D01*
X11955467Y-14643031D02*
X11964991Y-14633508D01*
X11964991Y-14633508D02*
X11984039Y-14623984D01*
X12136420Y-14823984D02*
X12136420Y-14690650D01*
X12136420Y-14709698D02*
X12145943Y-14700174D01*
X12145943Y-14700174D02*
X12164991Y-14690650D01*
X12164991Y-14690650D02*
X12193563Y-14690650D01*
X12193563Y-14690650D02*
X12212610Y-14700174D01*
X12212610Y-14700174D02*
X12222134Y-14719222D01*
X12222134Y-14719222D02*
X12222134Y-14823984D01*
X12222134Y-14719222D02*
X12231658Y-14700174D01*
X12231658Y-14700174D02*
X12250705Y-14690650D01*
X12250705Y-14690650D02*
X12279277Y-14690650D01*
X12279277Y-14690650D02*
X12298324Y-14700174D01*
X12298324Y-14700174D02*
X12307848Y-14719222D01*
X12307848Y-14719222D02*
X12307848Y-14823984D01*
X12403086Y-14823984D02*
X12403086Y-14690650D01*
X12403086Y-14709698D02*
X12412610Y-14700174D01*
X12412610Y-14700174D02*
X12431658Y-14690650D01*
X12431658Y-14690650D02*
X12460229Y-14690650D01*
X12460229Y-14690650D02*
X12479277Y-14700174D01*
X12479277Y-14700174D02*
X12488801Y-14719222D01*
X12488801Y-14719222D02*
X12488801Y-14823984D01*
X12488801Y-14719222D02*
X12498324Y-14700174D01*
X12498324Y-14700174D02*
X12517372Y-14690650D01*
X12517372Y-14690650D02*
X12545943Y-14690650D01*
X12545943Y-14690650D02*
X12564991Y-14700174D01*
X12564991Y-14700174D02*
X12574515Y-14719222D01*
X12574515Y-14719222D02*
X12574515Y-14823984D01*
X12964991Y-14614460D02*
X12793563Y-14871603D01*
X13222134Y-14623984D02*
X13241182Y-14623984D01*
X13241182Y-14623984D02*
X13260229Y-14633508D01*
X13260229Y-14633508D02*
X13269753Y-14643031D01*
X13269753Y-14643031D02*
X13279277Y-14662079D01*
X13279277Y-14662079D02*
X13288801Y-14700174D01*
X13288801Y-14700174D02*
X13288801Y-14747793D01*
X13288801Y-14747793D02*
X13279277Y-14785888D01*
X13279277Y-14785888D02*
X13269753Y-14804936D01*
X13269753Y-14804936D02*
X13260229Y-14814460D01*
X13260229Y-14814460D02*
X13241182Y-14823984D01*
X13241182Y-14823984D02*
X13222134Y-14823984D01*
X13222134Y-14823984D02*
X13203086Y-14814460D01*
X13203086Y-14814460D02*
X13193563Y-14804936D01*
X13193563Y-14804936D02*
X13184039Y-14785888D01*
X13184039Y-14785888D02*
X13174515Y-14747793D01*
X13174515Y-14747793D02*
X13174515Y-14700174D01*
X13174515Y-14700174D02*
X13184039Y-14662079D01*
X13184039Y-14662079D02*
X13193563Y-14643031D01*
X13193563Y-14643031D02*
X13203086Y-14633508D01*
X13203086Y-14633508D02*
X13222134Y-14623984D01*
X13374515Y-14804936D02*
X13384039Y-14814460D01*
X13384039Y-14814460D02*
X13374515Y-14823984D01*
X13374515Y-14823984D02*
X13364991Y-14814460D01*
X13364991Y-14814460D02*
X13374515Y-14804936D01*
X13374515Y-14804936D02*
X13374515Y-14823984D01*
X13507848Y-14623984D02*
X13526896Y-14623984D01*
X13526896Y-14623984D02*
X13545944Y-14633508D01*
X13545944Y-14633508D02*
X13555467Y-14643031D01*
X13555467Y-14643031D02*
X13564991Y-14662079D01*
X13564991Y-14662079D02*
X13574515Y-14700174D01*
X13574515Y-14700174D02*
X13574515Y-14747793D01*
X13574515Y-14747793D02*
X13564991Y-14785888D01*
X13564991Y-14785888D02*
X13555467Y-14804936D01*
X13555467Y-14804936D02*
X13545944Y-14814460D01*
X13545944Y-14814460D02*
X13526896Y-14823984D01*
X13526896Y-14823984D02*
X13507848Y-14823984D01*
X13507848Y-14823984D02*
X13488801Y-14814460D01*
X13488801Y-14814460D02*
X13479277Y-14804936D01*
X13479277Y-14804936D02*
X13469753Y-14785888D01*
X13469753Y-14785888D02*
X13460229Y-14747793D01*
X13460229Y-14747793D02*
X13460229Y-14700174D01*
X13460229Y-14700174D02*
X13469753Y-14662079D01*
X13469753Y-14662079D02*
X13479277Y-14643031D01*
X13479277Y-14643031D02*
X13488801Y-14633508D01*
X13488801Y-14633508D02*
X13507848Y-14623984D01*
X13641182Y-14623984D02*
X13764991Y-14623984D01*
X13764991Y-14623984D02*
X13698325Y-14700174D01*
X13698325Y-14700174D02*
X13726896Y-14700174D01*
X13726896Y-14700174D02*
X13745944Y-14709698D01*
X13745944Y-14709698D02*
X13755467Y-14719222D01*
X13755467Y-14719222D02*
X13764991Y-14738269D01*
X13764991Y-14738269D02*
X13764991Y-14785888D01*
X13764991Y-14785888D02*
X13755467Y-14804936D01*
X13755467Y-14804936D02*
X13745944Y-14814460D01*
X13745944Y-14814460D02*
X13726896Y-14823984D01*
X13726896Y-14823984D02*
X13669753Y-14823984D01*
X13669753Y-14823984D02*
X13650706Y-14814460D01*
X13650706Y-14814460D02*
X13641182Y-14804936D01*
X13860229Y-14823984D02*
X13898325Y-14823984D01*
X13898325Y-14823984D02*
X13917372Y-14814460D01*
X13917372Y-14814460D02*
X13926896Y-14804936D01*
X13926896Y-14804936D02*
X13945944Y-14776365D01*
X13945944Y-14776365D02*
X13955467Y-14738269D01*
X13955467Y-14738269D02*
X13955467Y-14662079D01*
X13955467Y-14662079D02*
X13945944Y-14643031D01*
X13945944Y-14643031D02*
X13936420Y-14633508D01*
X13936420Y-14633508D02*
X13917372Y-14623984D01*
X13917372Y-14623984D02*
X13879277Y-14623984D01*
X13879277Y-14623984D02*
X13860229Y-14633508D01*
X13860229Y-14633508D02*
X13850706Y-14643031D01*
X13850706Y-14643031D02*
X13841182Y-14662079D01*
X13841182Y-14662079D02*
X13841182Y-14709698D01*
X13841182Y-14709698D02*
X13850706Y-14728746D01*
X13850706Y-14728746D02*
X13860229Y-14738269D01*
X13860229Y-14738269D02*
X13879277Y-14747793D01*
X13879277Y-14747793D02*
X13917372Y-14747793D01*
X13917372Y-14747793D02*
X13936420Y-14738269D01*
X13936420Y-14738269D02*
X13945944Y-14728746D01*
X13945944Y-14728746D02*
X13955467Y-14709698D01*
X14126896Y-14690650D02*
X14126896Y-14823984D01*
X14079277Y-14614460D02*
X14031658Y-14757317D01*
X14031658Y-14757317D02*
X14155467Y-14757317D01*
X14222134Y-14623984D02*
X14222134Y-14662079D01*
X14298325Y-14623984D02*
X14298325Y-14662079D01*
X14593563Y-14900174D02*
X14584039Y-14890650D01*
X14584039Y-14890650D02*
X14564991Y-14862079D01*
X14564991Y-14862079D02*
X14555468Y-14843031D01*
X14555468Y-14843031D02*
X14545944Y-14814460D01*
X14545944Y-14814460D02*
X14536420Y-14766841D01*
X14536420Y-14766841D02*
X14536420Y-14728746D01*
X14536420Y-14728746D02*
X14545944Y-14681127D01*
X14545944Y-14681127D02*
X14555468Y-14652555D01*
X14555468Y-14652555D02*
X14564991Y-14633508D01*
X14564991Y-14633508D02*
X14584039Y-14604936D01*
X14584039Y-14604936D02*
X14593563Y-14595412D01*
X14774515Y-14823984D02*
X14660229Y-14823984D01*
X14717372Y-14823984D02*
X14717372Y-14623984D01*
X14717372Y-14623984D02*
X14698325Y-14652555D01*
X14698325Y-14652555D02*
X14679277Y-14671603D01*
X14679277Y-14671603D02*
X14660229Y-14681127D01*
X14841182Y-14623984D02*
X14964991Y-14623984D01*
X14964991Y-14623984D02*
X14898325Y-14700174D01*
X14898325Y-14700174D02*
X14926896Y-14700174D01*
X14926896Y-14700174D02*
X14945944Y-14709698D01*
X14945944Y-14709698D02*
X14955468Y-14719222D01*
X14955468Y-14719222D02*
X14964991Y-14738269D01*
X14964991Y-14738269D02*
X14964991Y-14785888D01*
X14964991Y-14785888D02*
X14955468Y-14804936D01*
X14955468Y-14804936D02*
X14945944Y-14814460D01*
X14945944Y-14814460D02*
X14926896Y-14823984D01*
X14926896Y-14823984D02*
X14869753Y-14823984D01*
X14869753Y-14823984D02*
X14850706Y-14814460D01*
X14850706Y-14814460D02*
X14841182Y-14804936D01*
X15031658Y-14623984D02*
X15164991Y-14623984D01*
X15164991Y-14623984D02*
X15079277Y-14823984D01*
X15393563Y-14823984D02*
X15393563Y-14623984D01*
X15479277Y-14823984D02*
X15479277Y-14719222D01*
X15479277Y-14719222D02*
X15469753Y-14700174D01*
X15469753Y-14700174D02*
X15450706Y-14690650D01*
X15450706Y-14690650D02*
X15422134Y-14690650D01*
X15422134Y-14690650D02*
X15403087Y-14700174D01*
X15403087Y-14700174D02*
X15393563Y-14709698D01*
X15603087Y-14823984D02*
X15584039Y-14814460D01*
X15584039Y-14814460D02*
X15574515Y-14804936D01*
X15574515Y-14804936D02*
X15564991Y-14785888D01*
X15564991Y-14785888D02*
X15564991Y-14728746D01*
X15564991Y-14728746D02*
X15574515Y-14709698D01*
X15574515Y-14709698D02*
X15584039Y-14700174D01*
X15584039Y-14700174D02*
X15603087Y-14690650D01*
X15603087Y-14690650D02*
X15631658Y-14690650D01*
X15631658Y-14690650D02*
X15650706Y-14700174D01*
X15650706Y-14700174D02*
X15660230Y-14709698D01*
X15660230Y-14709698D02*
X15669753Y-14728746D01*
X15669753Y-14728746D02*
X15669753Y-14785888D01*
X15669753Y-14785888D02*
X15660230Y-14804936D01*
X15660230Y-14804936D02*
X15650706Y-14814460D01*
X15650706Y-14814460D02*
X15631658Y-14823984D01*
X15631658Y-14823984D02*
X15603087Y-14823984D01*
X15784039Y-14823984D02*
X15764991Y-14814460D01*
X15764991Y-14814460D02*
X15755468Y-14795412D01*
X15755468Y-14795412D02*
X15755468Y-14623984D01*
X15936420Y-14814460D02*
X15917372Y-14823984D01*
X15917372Y-14823984D02*
X15879277Y-14823984D01*
X15879277Y-14823984D02*
X15860230Y-14814460D01*
X15860230Y-14814460D02*
X15850706Y-14795412D01*
X15850706Y-14795412D02*
X15850706Y-14719222D01*
X15850706Y-14719222D02*
X15860230Y-14700174D01*
X15860230Y-14700174D02*
X15879277Y-14690650D01*
X15879277Y-14690650D02*
X15917372Y-14690650D01*
X15917372Y-14690650D02*
X15936420Y-14700174D01*
X15936420Y-14700174D02*
X15945944Y-14719222D01*
X15945944Y-14719222D02*
X15945944Y-14738269D01*
X15945944Y-14738269D02*
X15850706Y-14757317D01*
X16022134Y-14814460D02*
X16041182Y-14823984D01*
X16041182Y-14823984D02*
X16079277Y-14823984D01*
X16079277Y-14823984D02*
X16098325Y-14814460D01*
X16098325Y-14814460D02*
X16107849Y-14795412D01*
X16107849Y-14795412D02*
X16107849Y-14785888D01*
X16107849Y-14785888D02*
X16098325Y-14766841D01*
X16098325Y-14766841D02*
X16079277Y-14757317D01*
X16079277Y-14757317D02*
X16050706Y-14757317D01*
X16050706Y-14757317D02*
X16031658Y-14747793D01*
X16031658Y-14747793D02*
X16022134Y-14728746D01*
X16022134Y-14728746D02*
X16022134Y-14719222D01*
X16022134Y-14719222D02*
X16031658Y-14700174D01*
X16031658Y-14700174D02*
X16050706Y-14690650D01*
X16050706Y-14690650D02*
X16079277Y-14690650D01*
X16079277Y-14690650D02*
X16098325Y-14700174D01*
X16174515Y-14900174D02*
X16184039Y-14890650D01*
X16184039Y-14890650D02*
X16203087Y-14862079D01*
X16203087Y-14862079D02*
X16212611Y-14843031D01*
X16212611Y-14843031D02*
X16222134Y-14814460D01*
X16222134Y-14814460D02*
X16231658Y-14766841D01*
X16231658Y-14766841D02*
X16231658Y-14728746D01*
X16231658Y-14728746D02*
X16222134Y-14681127D01*
X16222134Y-14681127D02*
X16212611Y-14652555D01*
X16212611Y-14652555D02*
X16203087Y-14633508D01*
X16203087Y-14633508D02*
X16184039Y-14604936D01*
X16184039Y-14604936D02*
X16174515Y-14595412D01*
M02*
