%TF.GenerationSoftware,KiCad,Pcbnew,8.0.8*%
%TF.CreationDate,2025-02-02T19:51:23+01:00*%
%TF.ProjectId,PCB,5043422e-6b69-4636-9164-5f7063625858,rev?*%
%TF.SameCoordinates,Original*%
%TF.FileFunction,Soldermask,Bot*%
%TF.FilePolarity,Negative*%
%FSLAX46Y46*%
G04 Gerber Fmt 4.6, Leading zero omitted, Abs format (unit mm)*
G04 Created by KiCad (PCBNEW 8.0.8) date 2025-02-02 19:51:23*
%MOMM*%
%LPD*%
G01*
G04 APERTURE LIST*
G04 Aperture macros list*
%AMRoundRect*
0 Rectangle with rounded corners*
0 $1 Rounding radius*
0 $2 $3 $4 $5 $6 $7 $8 $9 X,Y pos of 4 corners*
0 Add a 4 corners polygon primitive as box body*
4,1,4,$2,$3,$4,$5,$6,$7,$8,$9,$2,$3,0*
0 Add four circle primitives for the rounded corners*
1,1,$1+$1,$2,$3*
1,1,$1+$1,$4,$5*
1,1,$1+$1,$6,$7*
1,1,$1+$1,$8,$9*
0 Add four rect primitives between the rounded corners*
20,1,$1+$1,$2,$3,$4,$5,0*
20,1,$1+$1,$4,$5,$6,$7,0*
20,1,$1+$1,$6,$7,$8,$9,0*
20,1,$1+$1,$8,$9,$2,$3,0*%
G04 Aperture macros list end*
%ADD10O,1.700000X1.700000*%
%ADD11R,1.700000X1.700000*%
%ADD12R,2.000000X2.000000*%
%ADD13C,2.000000*%
%ADD14C,3.200000*%
%ADD15RoundRect,0.102000X-0.754000X-0.754000X0.754000X-0.754000X0.754000X0.754000X-0.754000X0.754000X0*%
%ADD16C,1.712000*%
%ADD17C,0.650000*%
%ADD18O,2.100000X1.000000*%
%ADD19O,1.600000X1.000000*%
G04 APERTURE END LIST*
D10*
%TO.C,S7*%
X120790000Y-103500000D03*
X118250000Y-103500000D03*
D11*
X115710000Y-103500000D03*
%TD*%
D10*
%TO.C,S6*%
X120790000Y-106250000D03*
X118250000Y-106250000D03*
D11*
X115710000Y-106250000D03*
%TD*%
D10*
%TO.C,S5*%
X120805000Y-109000000D03*
X118265000Y-109000000D03*
D11*
X115725000Y-109000000D03*
%TD*%
%TO.C,S4*%
X115670000Y-111750000D03*
D10*
X118210000Y-111750000D03*
X120750000Y-111750000D03*
%TD*%
D11*
%TO.C,S3*%
X115670000Y-114500000D03*
D10*
X118210000Y-114500000D03*
X120750000Y-114500000D03*
%TD*%
D11*
%TO.C,S2*%
X115670000Y-117250000D03*
D10*
X118210000Y-117250000D03*
X120750000Y-117250000D03*
%TD*%
D11*
%TO.C,S1*%
X115670000Y-120000000D03*
D10*
X118210000Y-120000000D03*
X120750000Y-120000000D03*
%TD*%
%TO.C,UART0*%
X121500000Y-125750000D03*
X118960000Y-125750000D03*
X116420000Y-125750000D03*
D11*
X113880000Y-125750000D03*
%TD*%
D10*
%TO.C,TOF*%
X136880000Y-85500000D03*
X139420000Y-85500000D03*
X141960000Y-85500000D03*
D11*
X144500000Y-85500000D03*
%TD*%
D12*
%TO.C,BZ1*%
X153710000Y-110780000D03*
D13*
X153710000Y-103180000D03*
%TD*%
D11*
%TO.C,JP1*%
X124460000Y-92600000D03*
D10*
X127000000Y-92600000D03*
%TD*%
D11*
%TO.C,J3*%
X158080000Y-97980000D03*
D10*
X155540000Y-97980000D03*
X153000000Y-97980000D03*
X150460000Y-97980000D03*
%TD*%
D14*
%TO.C,H3*%
X113200000Y-130000000D03*
%TD*%
D11*
%TO.C,JP5*%
X156560000Y-92500000D03*
D10*
X159100000Y-92500000D03*
%TD*%
D15*
%TO.C,U5*%
X150160000Y-74900000D03*
D16*
X150160000Y-77440000D03*
X150160000Y-79980000D03*
X150160000Y-82520000D03*
X150160000Y-85060000D03*
X150160000Y-87600000D03*
X150160000Y-90140000D03*
X150160000Y-92680000D03*
X162860000Y-74900000D03*
X162860000Y-77440000D03*
X162860000Y-79980000D03*
X162860000Y-82520000D03*
X162860000Y-85060000D03*
X162860000Y-87600000D03*
X162860000Y-90140000D03*
X162860000Y-92680000D03*
%TD*%
D11*
%TO.C,J6*%
X164800000Y-126080000D03*
D10*
X162260000Y-126080000D03*
%TD*%
D11*
%TO.C,J12*%
X162860000Y-97200000D03*
D10*
X165400000Y-97200000D03*
X167940000Y-97200000D03*
%TD*%
D12*
%TO.C,C3*%
X121382323Y-75000000D03*
D13*
X126382323Y-75000000D03*
%TD*%
D11*
%TO.C,J8*%
X125580000Y-98230000D03*
D10*
X123040000Y-98230000D03*
X120500000Y-98230000D03*
X117960000Y-98230000D03*
%TD*%
D11*
%TO.C,J10*%
X167400000Y-81400000D03*
D10*
X167400000Y-83940000D03*
X167400000Y-86480000D03*
X167400000Y-89020000D03*
X167400000Y-91560000D03*
%TD*%
D11*
%TO.C,J11*%
X113000000Y-81280000D03*
D10*
X113000000Y-83820000D03*
X113000000Y-86360000D03*
X113000000Y-88900000D03*
X113000000Y-91440000D03*
%TD*%
D14*
%TO.C,H4*%
X167200000Y-130000000D03*
%TD*%
D17*
%TO.C,J1*%
X163410000Y-121470000D03*
X163410000Y-115690000D03*
D18*
X162880000Y-122900000D03*
D19*
X167060000Y-122900000D03*
D18*
X162880000Y-114260000D03*
D19*
X167060000Y-114260000D03*
%TD*%
D12*
%TO.C,C8*%
X154032323Y-74900000D03*
D13*
X159032323Y-74900000D03*
%TD*%
D11*
%TO.C,JP6*%
X156560000Y-89960000D03*
D10*
X159100000Y-89960000D03*
%TD*%
D14*
%TO.C,H1*%
X113200000Y-76000000D03*
%TD*%
%TO.C,H2*%
X167200000Y-76000000D03*
%TD*%
D11*
%TO.C,JP2*%
X124460000Y-90060000D03*
D10*
X127000000Y-90060000D03*
%TD*%
D15*
%TO.C,U1*%
X117510000Y-74900000D03*
D16*
X117510000Y-77440000D03*
X117510000Y-79980000D03*
X117510000Y-82520000D03*
X117510000Y-85060000D03*
X117510000Y-87600000D03*
X117510000Y-90140000D03*
X117510000Y-92680000D03*
X130210000Y-74900000D03*
X130210000Y-77440000D03*
X130210000Y-79980000D03*
X130210000Y-82520000D03*
X130210000Y-85060000D03*
X130210000Y-87600000D03*
X130210000Y-90140000D03*
X130210000Y-92680000D03*
%TD*%
D11*
%TO.C,J5*%
X152940000Y-118400000D03*
D10*
X152940000Y-115860000D03*
%TD*%
D11*
%TO.C,J7*%
X155710000Y-118400000D03*
D10*
X155710000Y-115860000D03*
%TD*%
D11*
%TO.C,SCREEN*%
X144500000Y-78000000D03*
D10*
X141960000Y-78000000D03*
X139420000Y-78000000D03*
X136880000Y-78000000D03*
%TD*%
M02*
